SplineFontDB: 3.2
FontName: Modern-manJu-Round
FullName: Modern manJu Round
FamilyName: Modern-manJu
Weight: Book
Copyright: Copyright 2023 L.
Version: 0.1
ItalicAngle: 0
UnderlinePosition: -106
UnderlineWidth: 24
Ascent: 1352
Descent: 696
InvalidEm: 0
sfntRevision: 0x00010000
LayerCount: 2
Layer: 0 1 "Back" 1
Layer: 1 1 "Fore" 0
XUID: [1021 520 2022644484 8954717]
StyleMap: 0x0040
FSType: 0
OS2Version: 3
OS2_WeightWidthSlopeOnly: 0
OS2_UseTypoMetrics: 0
CreationTime: 1390402476
ModificationTime: 1686924439
PfmFamily: 17
TTFWeight: 400
TTFWidth: 5
LineGap: 0
VLineGap: 0
Panose: 2 2 6 3 5 4 5 2 3 4
OS2TypoAscent: 536
OS2TypoAOffset: 0
OS2TypoDescent: -168
OS2TypoDOffset: 0
OS2TypoLinegap: 0
OS2WinAscent: 536
OS2WinAOffset: 0
OS2WinDescent: 168
OS2WinDOffset: 0
HheadAscent: 536
HheadAOffset: 0
HheadDescent: -168
HheadDOffset: 0
OS2SubXSize: 358
OS2SubYSize: 332
OS2SubXOff: 0
OS2SubYOff: 72
OS2SupXSize: 358
OS2SupYSize: 332
OS2SupXOff: 0
OS2SupYOff: 232
OS2StrikeYSize: 26
OS2StrikeYPos: 132
OS2CapHeight: 340
OS2XHeight: 228
OS2FamilyClass: 261
OS2Vendor: 'SBT '
OS2CodePages: 001e0101.00000000
OS2UnicodeRanges: 800000a7.1001e408.00020016.00000000
Lookup: 1 0 0 "Single Substitution lookup 4" { "Single Substitution lookup 4 subtable"  } []
Lookup: 1 0 0 "Single Substitution lookup 6" { "Single Substitution lookup 6 subtable"  } []
Lookup: 1 0 0 "Single Substitution lookup 7" { "Single Substitution lookup 7 subtable"  } []
Lookup: 1 0 0 "Single Substitution lookup 8" { "Single Substitution lookup 8 subtable"  } []
Lookup: 1 0 0 "Single Substitution lookup 9" { "Single Substitution lookup 9 subtable"  } []
Lookup: 1 0 0 "Single Substitution lookup 10" { "Single Substitution lookup 10 subtable"  } []
Lookup: 1 0 0 "Single Substitution lookup 11" { "Single Substitution lookup 11 subtable"  } []
Lookup: 1 0 0 "Single Substitution lookup 12" { "Single Substitution lookup 12 subtable"  } []

StartChar: a.isol
Encoding: 6176 6176 0
Width: 902
GlyphClass: 2
Flags: W
LayerCount: 2
Fore
SplineSet
0 696 m 0,0,1
 164 696 164 696 246 614 c 256,2,3
 328 532 328 532 328 368 c 1,4,5
 450 368 450 368 476 368 c 256,6,7
 502 368 502 368 574 368 c 0,8,9
 696 368 696 368 758 430 c 256,10,11
 820 492 820 492 820 614 c 0,12,13
 820 738 820 738 758 798 c 0,14,15
 696 860 696 860 574 860 c 0,16,17
 532 860 532 860 532 902 c 0,18,19
 532 942 532 942 574 942 c 0,20,21
 738 942 738 942 820 860 c 256,22,23
 902 778 902 778 902 614 c 256,24,25
 902 450 902 450 820 368 c 256,26,27
 738 286 738 286 574 286 c 0,28,29
 502 286 502 286 476 286 c 256,30,31
 450 286 450 286 328 286 c 1,32,33
 328 246 328 246 328 246 c 257,34,35
 328 246 328 246 328 204 c 0,36,37
 328 164 328 164 286 164 c 0,38,39
 246 164 246 164 246 204 c 0,40,41
 246 246 246 246 246 246 c 257,42,43
 246 246 246 246 246 368 c 0,44,45
 246 492 246 492 184 552 c 0,46,47
 122 614 122 614 0 614 c 0,48,49
 -40 614 -40 614 -40 656 c 0,50,51
 -40 696 -40 696 0 696 c 0,0,1
EndSplineSet
Validated: 1
Substitution2: "'fina' Terminal Forms in Mongolian lookup 2 subtable" a.fina
Substitution2: "'medi' Medial Forms in Mongolian lookup 1 subtable" a.medi
Substitution2: "Required Feature in Latin lookup 0 subtable" a.init
EndChar

StartChar: a.init
Encoding: 65562 -1 1
Width: 656
GlyphClass: 2
Flags: W
LayerCount: 2
Fore
SplineSet
0 696 m 0,0,1
 164 696 164 696 246 614 c 256,2,3
 328 532 328 532 328 368 c 1,4,5
 368 368 368 368 492 368 c 0,6,7
 614 368 614 368 656 368 c 1,8,9
 656 328 656 328 656 308 c 0,10,11
 656 286 656 286 656 286 c 1,12,13
 634 286 634 286 604 286 c 256,14,15
 574 286 574 286 532 286 c 1,16,17
 532 286 532 286 532 254 c 0,18,19
 532 220 532 220 532 204 c 0,20,21
 532 164 532 164 492 164 c 0,22,23
 450 164 450 164 450 204 c 0,24,25
 450 246 450 246 450 246 c 257,26,27
 450 246 450 246 450 286 c 1,28,29
 410 286 410 286 390 286 c 0,30,31
 368 286 368 286 328 286 c 1,32,33
 328 246 328 246 328 246 c 257,34,35
 328 246 328 246 328 204 c 0,36,37
 328 164 328 164 286 164 c 0,38,39
 246 164 246 164 246 204 c 0,40,41
 246 246 246 246 246 246 c 257,42,43
 246 246 246 246 246 368 c 0,44,45
 246 492 246 492 184 552 c 0,46,47
 122 614 122 614 0 614 c 0,48,49
 -40 614 -40 614 -40 656 c 0,50,51
 -40 696 -40 696 0 696 c 0,0,1
EndSplineSet
Validated: 1
EndChar

StartChar: a.fina
Encoding: 65563 -1 2
Width: 614
GlyphClass: 2
Flags: W
LayerCount: 2
Fore
SplineSet
0 368 m 1,0,1
 122 368 122 368 168 368 c 0,2,3
 216 368 216 368 286 368 c 0,4,5
 410 368 410 368 472 430 c 0,6,7
 532 492 532 492 532 614 c 0,8,9
 532 738 532 738 472 798 c 0,10,11
 410 860 410 860 286 860 c 0,12,13
 246 860 246 860 246 902 c 0,14,15
 246 942 246 942 286 942 c 0,16,17
 450 942 450 942 532 860 c 256,18,19
 614 778 614 778 614 614 c 256,20,21
 614 450 614 450 532 368 c 256,22,23
 450 286 450 286 286 286 c 0,24,25
 216 286 216 286 168 286 c 0,26,27
 122 286 122 286 0 286 c 1,28,29
 0 328 0 328 0 348 c 256,30,31
 0 368 0 368 0 368 c 1,0,1
EndSplineSet
Validated: 1
Substitution2: "Single Substitution lookup 6 subtable" a1.fina
EndChar

StartChar: a1.fina
Encoding: 65564 -1 3
Width: 656
GlyphClass: 2
Flags: W
LayerCount: 2
Fore
SplineSet
328 368 m 0,0,1
 492 368 492 368 574 286 c 256,2,3
 656 204 656 204 656 40 c 0,4,5
 656 -122 656 -122 574 -204 c 256,6,7
 492 -286 492 -286 328 -286 c 0,8,9
 286 -286 286 -286 286 -246 c 0,10,11
 286 -204 286 -204 328 -204 c 0,12,13
 450 -204 450 -204 512 -144 c 0,14,15
 574 -82 574 -82 574 40 c 0,16,17
 574 164 574 164 512 226 c 0,18,19
 450 286 450 286 328 286 c 0,20,21
 256 286 256 286 230 286 c 256,22,23
 204 286 204 286 82 286 c 1,24,25
 82 246 82 246 82 246 c 257,26,27
 82 246 82 246 82 204 c 0,28,29
 82 164 82 164 40 164 c 0,30,31
 0 164 0 164 0 204 c 0,32,33
 0 246 0 246 0 246 c 257,34,35
 0 246 0 246 0 368 c 1,36,37
 40 368 40 368 122 368 c 256,38,39
 204 368 204 368 328 368 c 0,0,1
EndSplineSet
Validated: 1
EndChar

StartChar: a.medi
Encoding: 65565 -1 4
Width: 206
GlyphClass: 2
Flags: W
LayerCount: 2
Fore
SplineSet
0 368 m 1,0,1
 40 368 40 368 102 368 c 256,2,3
 164 368 164 368 204 368 c 1,4,5
 204 356 204 356 204 342 c 256,6,7
 204 328 204 328 204 286 c 1,8,9
 164 286 164 286 136 286 c 256,10,11
 108 286 108 286 82 286 c 1,12,13
 82 286 82 286 82 266 c 256,14,15
 82 246 82 246 82 204 c 0,16,17
 82 164 82 164 40 164 c 0,18,19
 0 164 0 164 0 204 c 0,20,21
 0 246 0 246 0 246 c 257,22,23
 0 246 0 246 0 286 c 0,24,25
 0 328 0 328 0 328 c 257,26,27
 0 328 0 328 0 368 c 1,0,1
EndSplineSet
Validated: 1
Substitution2: "Single Substitution lookup 26 subtable" glyph277
EndChar

StartChar: e.isol
Encoding: 6237 6237 5
Width: 902
GlyphClass: 2
Flags: W
LayerCount: 2
Fore
SplineSet
0 696 m 0,0,1
 164 696 164 696 246 614 c 256,2,3
 328 532 328 532 328 368 c 1,4,5
 450 368 450 368 476 368 c 256,6,7
 502 368 502 368 574 368 c 0,8,9
 738 368 738 368 820 286 c 256,10,11
 902 204 902 204 902 40 c 0,12,13
 902 -122 902 -122 820 -204 c 256,14,15
 738 -286 738 -286 574 -286 c 0,16,17
 532 -286 532 -286 532 -246 c 0,18,19
 532 -204 532 -204 574 -204 c 0,20,21
 696 -204 696 -204 758 -144 c 0,22,23
 820 -82 820 -82 820 40 c 0,24,25
 820 164 820 164 758 226 c 0,26,27
 696 286 696 286 574 286 c 0,28,29
 502 286 502 286 476 286 c 256,30,31
 450 286 450 286 328 286 c 1,32,33
 328 246 328 246 328 246 c 257,34,35
 328 246 328 246 328 204 c 0,36,37
 328 164 328 164 286 164 c 0,38,39
 246 164 246 164 246 204 c 0,40,41
 246 246 246 246 246 246 c 257,42,43
 246 246 246 246 246 368 c 0,44,45
 246 492 246 492 184 552 c 0,46,47
 122 614 122 614 0 614 c 0,48,49
 -40 614 -40 614 -40 656 c 0,50,51
 -40 696 -40 696 0 696 c 0,0,1
EndSplineSet
Validated: 1
Substitution2: "'fina' Terminal Forms in Mongolian lookup 2 subtable" e.fina
Substitution2: "'medi' Medial Forms in Mongolian lookup 1 subtable" e.medi
Substitution2: "Required Feature in Latin lookup 0 subtable" e.init
EndChar

StartChar: e.init
Encoding: 65566 -1 6
Width: 656
GlyphClass: 2
Flags: W
LayerCount: 2
Fore
SplineSet
0 696 m 0,0,1
 164 696 164 696 246 614 c 256,2,3
 328 532 328 532 328 368 c 1,4,5
 368 368 368 368 492 368 c 0,6,7
 614 368 614 368 656 368 c 1,8,9
 656 328 656 328 656 328 c 257,10,11
 656 328 656 328 656 286 c 1,12,13
 614 286 614 286 492 286 c 0,14,15
 368 286 368 286 328 286 c 1,16,17
 328 246 328 246 328 246 c 257,18,19
 328 246 328 246 328 204 c 0,20,21
 328 164 328 164 286 164 c 0,22,23
 246 164 246 164 246 204 c 0,24,25
 246 246 246 246 246 246 c 257,26,27
 246 246 246 246 246 368 c 0,28,29
 246 492 246 492 184 552 c 0,30,31
 122 614 122 614 0 614 c 0,32,33
 -40 614 -40 614 -40 656 c 0,34,35
 -40 696 -40 696 0 696 c 0,0,1
EndSplineSet
Validated: 1
EndChar

StartChar: e.fina
Encoding: 65567 -1 7
Width: 614
GlyphClass: 2
Flags: W
LayerCount: 2
Fore
SplineSet
0 368 m 1,0,1
 122 368 122 368 168 368 c 0,2,3
 216 368 216 368 286 368 c 0,4,5
 410 368 410 368 472 430 c 0,6,7
 532 492 532 492 532 614 c 0,8,9
 532 738 532 738 472 798 c 0,10,11
 410 860 410 860 286 860 c 0,12,13
 246 860 246 860 246 902 c 0,14,15
 246 942 246 942 286 942 c 0,16,17
 450 942 450 942 532 860 c 256,18,19
 614 778 614 778 614 614 c 256,20,21
 614 450 614 450 532 368 c 256,22,23
 450 286 450 286 286 286 c 0,24,25
 216 286 216 286 168 286 c 0,26,27
 122 286 122 286 0 286 c 1,28,29
 0 328 0 328 0 348 c 256,30,31
 0 368 0 368 0 368 c 1,0,1
330 592 m 0,32,33
 322 582 322 582 310 578 c 256,34,35
 298 574 298 574 286 574 c 256,36,37
 274 574 274 574 264 578 c 0,38,39
 252 582 252 582 244 592 c 0,40,41
 234 600 234 600 230 612 c 0,42,43
 226 622 226 622 226 634 c 256,44,45
 226 646 226 646 230 658 c 256,46,47
 234 670 234 670 244 678 c 0,48,49
 252 686 252 686 264 692 c 0,50,51
 274 696 274 696 286 696 c 256,52,53
 298 696 298 696 310 692 c 0,54,55
 322 686 322 686 330 678 c 256,56,57
 338 670 338 670 344 658 c 0,58,59
 348 646 348 646 348 634 c 256,60,61
 348 622 348 622 344 612 c 0,62,63
 338 600 338 600 330 592 c 0,32,33
EndSplineSet
Validated: 1
Substitution2: "Single Substitution lookup 8 subtable" e3.fina
Substitution2: "Single Substitution lookup 7 subtable" e2.fina
Substitution2: "Single Substitution lookup 6 subtable" e1.fina
EndChar

StartChar: e1.fina
Encoding: 65568 -1 8
Width: 614
GlyphClass: 2
Flags: W
LayerCount: 2
Fore
SplineSet
0 368 m 1,0,1
 122 368 122 368 168 368 c 0,2,3
 216 368 216 368 286 368 c 0,4,5
 410 368 410 368 472 430 c 0,6,7
 532 492 532 492 532 614 c 0,8,9
 532 738 532 738 472 798 c 0,10,11
 410 860 410 860 286 860 c 0,12,13
 246 860 246 860 246 902 c 0,14,15
 246 942 246 942 286 942 c 0,16,17
 450 942 450 942 532 860 c 256,18,19
 614 778 614 778 614 614 c 256,20,21
 614 450 614 450 532 368 c 256,22,23
 450 286 450 286 286 286 c 0,24,25
 216 286 216 286 168 286 c 0,26,27
 122 286 122 286 0 286 c 1,28,29
 0 328 0 328 0 348 c 256,30,31
 0 368 0 368 0 368 c 1,0,1
EndSplineSet
Validated: 1
EndChar

StartChar: e3.fina
Encoding: 65569 -1 9
Width: 656
GlyphClass: 2
Flags: W
LayerCount: 2
Fore
SplineSet
328 368 m 0,0,1
 492 368 492 368 574 286 c 256,2,3
 656 204 656 204 656 40 c 0,4,5
 656 -122 656 -122 574 -204 c 256,6,7
 492 -286 492 -286 328 -286 c 0,8,9
 286 -286 286 -286 286 -246 c 0,10,11
 286 -204 286 -204 328 -204 c 0,12,13
 450 -204 450 -204 512 -144 c 0,14,15
 574 -82 574 -82 574 40 c 0,16,17
 574 164 574 164 512 226 c 0,18,19
 450 286 450 286 328 286 c 0,20,21
 256 286 256 286 230 286 c 256,22,23
 204 286 204 286 82 286 c 1,24,25
 82 246 82 246 82 246 c 257,26,27
 82 246 82 246 82 204 c 0,28,29
 82 164 82 164 40 164 c 0,30,31
 0 164 0 164 0 204 c 0,32,33
 0 246 0 246 0 246 c 257,34,35
 0 246 0 246 0 368 c 1,36,37
 40 368 40 368 122 368 c 256,38,39
 204 368 204 368 328 368 c 0,0,1
-202 836 m 0,40,41
 -210 828 -210 828 -222 824 c 0,42,43
 -234 818 -234 818 -246 818 c 256,44,45
 -258 818 -258 818 -270 824 c 0,46,47
 -280 828 -280 828 -290 836 c 0,48,49
 -298 846 -298 846 -302 858 c 0,50,51
 -308 868 -308 868 -308 880 c 256,52,53
 -308 892 -308 892 -302 904 c 0,54,55
 -298 916 -298 916 -290 924 c 0,56,57
 -280 932 -280 932 -270 938 c 0,58,59
 -258 942 -258 942 -246 942 c 256,60,61
 -234 942 -234 942 -222 938 c 0,62,63
 -210 932 -210 932 -202 924 c 256,64,65
 -194 916 -194 916 -190 904 c 0,66,67
 -184 892 -184 892 -184 880 c 256,68,69
 -184 868 -184 868 -190 858 c 0,70,71
 -194 846 -194 846 -202 836 c 0,40,41
EndSplineSet
Validated: 1
EndChar

StartChar: e2.fina
Encoding: 65570 -1 10
Width: 656
GlyphClass: 2
Flags: W
LayerCount: 2
Fore
SplineSet
328 368 m 0,0,1
 492 368 492 368 574 286 c 256,2,3
 656 204 656 204 656 40 c 0,4,5
 656 -122 656 -122 574 -204 c 256,6,7
 492 -286 492 -286 328 -286 c 0,8,9
 286 -286 286 -286 286 -246 c 0,10,11
 286 -204 286 -204 328 -204 c 0,12,13
 450 -204 450 -204 512 -144 c 0,14,15
 574 -82 574 -82 574 40 c 0,16,17
 574 164 574 164 512 226 c 0,18,19
 450 286 450 286 328 286 c 0,20,21
 256 286 256 286 230 286 c 256,22,23
 204 286 204 286 82 286 c 1,24,25
 82 246 82 246 82 246 c 257,26,27
 82 246 82 246 82 204 c 0,28,29
 82 164 82 164 40 164 c 0,30,31
 0 164 0 164 0 204 c 0,32,33
 0 246 0 246 0 246 c 257,34,35
 0 246 0 246 0 368 c 1,36,37
 40 368 40 368 122 368 c 256,38,39
 204 368 204 368 328 368 c 0,0,1
EndSplineSet
Validated: 1
EndChar

StartChar: e.medi
Encoding: 65571 -1 11
Width: 206
GlyphClass: 2
Flags: W
LayerCount: 2
Fore
SplineSet
0 368 m 1,0,1
 0 368 0 368 0 368 c 257,2,3
 0 368 0 368 0 368 c 1,4,5
 40 368 40 368 102 368 c 256,6,7
 164 368 164 368 204 368 c 1,8,9
 204 348 204 348 204 318 c 0,10,11
 204 286 204 286 204 286 c 1,12,13
 164 286 164 286 132 286 c 256,14,15
 100 286 100 286 82 286 c 1,16,17
 82 286 82 286 82 256 c 0,18,19
 82 224 82 224 82 204 c 0,20,21
 82 164 82 164 40 164 c 0,22,23
 0 164 0 164 0 204 c 0,24,25
 0 246 0 246 0 246 c 257,26,27
 0 246 0 246 0 286 c 0,28,29
 0 328 0 328 0 328 c 257,30,31
 0 328 0 328 0 368 c 1,0,1
84 592 m 0,32,33
 76 582 76 582 64 578 c 256,34,35
 52 574 52 574 40 574 c 0,36,37
 30 574 30 574 18 578 c 256,38,39
 6 582 6 582 -2 592 c 0,40,41
 -10 600 -10 600 -16 612 c 0,42,43
 -20 622 -20 622 -20 634 c 256,44,45
 -20 646 -20 646 -16 658 c 0,46,47
 -10 670 -10 670 -2 678 c 256,48,49
 6 686 6 686 18 692 c 0,50,51
 30 696 30 696 40 696 c 0,52,53
 52 696 52 696 64 692 c 0,54,55
 76 686 76 686 84 678 c 256,56,57
 92 670 92 670 98 658 c 0,58,59
 102 646 102 646 102 634 c 256,60,61
 102 622 102 622 98 612 c 0,62,63
 92 600 92 600 84 592 c 0,32,33
EndSplineSet
Validated: 5
Substitution2: "Single Substitution lookup 26 subtable" glyph278
Substitution2: "Single Substitution lookup 6 subtable" e1.medi
EndChar

StartChar: e1.medi
Encoding: 65572 -1 12
Width: 206
GlyphClass: 2
Flags: W
LayerCount: 2
Fore
SplineSet
0 368 m 1,0,1
 40 368 40 368 102 368 c 256,2,3
 164 368 164 368 204 368 c 1,4,5
 204 356 204 356 204 342 c 256,6,7
 204 328 204 328 204 286 c 1,8,9
 164 286 164 286 136 286 c 256,10,11
 108 286 108 286 82 286 c 1,12,13
 82 286 82 286 82 266 c 256,14,15
 82 246 82 246 82 204 c 0,16,17
 82 164 82 164 40 164 c 0,18,19
 0 164 0 164 0 204 c 0,20,21
 0 246 0 246 0 246 c 257,22,23
 0 246 0 246 0 286 c 0,24,25
 0 328 0 328 0 328 c 257,26,27
 0 328 0 328 0 368 c 1,0,1
EndSplineSet
Validated: 1
Substitution2: "Single Substitution lookup 26 subtable" glyph277
EndChar

StartChar: i.isol
Encoding: 6259 6259 13
Width: 902
GlyphClass: 2
Flags: W
LayerCount: 2
Fore
SplineSet
0 696 m 0,0,1
 164 696 164 696 246 614 c 256,2,3
 328 532 328 532 328 368 c 1,4,5
 450 368 450 368 414 368 c 256,6,7
 378 368 378 368 450 368 c 1,8,9
 450 450 450 450 512 512 c 256,10,11
 574 574 574 574 656 574 c 0,12,13
 778 574 778 574 840 512 c 256,14,15
 902 450 902 450 902 328 c 0,16,17
 902 286 902 286 860 286 c 0,18,19
 820 286 820 286 820 328 c 0,20,21
 820 410 820 410 778 450 c 0,22,23
 738 492 738 492 656 492 c 0,24,25
 614 492 614 492 574 450 c 0,26,27
 532 410 532 410 532 328 c 0,28,29
 532 164 532 164 532 118 c 256,30,31
 532 72 532 72 532 0 c 0,32,33
 532 -40 532 -40 492 -40 c 0,34,35
 450 -40 450 -40 450 0 c 256,36,37
 450 40 450 40 450 122 c 256,38,39
 450 204 450 204 450 286 c 1,40,41
 378 286 378 286 414 286 c 256,42,43
 450 286 450 286 328 286 c 1,44,45
 328 246 328 246 328 246 c 257,46,47
 328 246 328 246 328 204 c 0,48,49
 328 164 328 164 286 164 c 0,50,51
 246 164 246 164 246 204 c 0,52,53
 246 246 246 246 246 246 c 257,54,55
 246 246 246 246 246 368 c 0,56,57
 246 492 246 492 184 552 c 0,58,59
 122 614 122 614 0 614 c 0,60,61
 -40 614 -40 614 -40 656 c 0,62,63
 -40 696 -40 696 0 696 c 0,0,1
EndSplineSet
Validated: 37
Substitution2: "Single Substitution lookup 6 subtable" i1.isol
Substitution2: "'fina' Terminal Forms in Mongolian lookup 2 subtable" i.fina
Substitution2: "'medi' Medial Forms in Mongolian lookup 1 subtable" i.medi
Substitution2: "Required Feature in Latin lookup 0 subtable" i.init
EndChar

StartChar: i1.isol
Encoding: 65573 -1 14
Width: 450
GlyphClass: 2
Flags: W
LayerCount: 2
Fore
SplineSet
0 368 m 256,0,1
 0 450 0 450 62 512 c 0,2,3
 122 574 122 574 204 574 c 0,4,5
 328 574 328 574 390 512 c 0,6,7
 450 450 450 450 450 328 c 0,8,9
 450 286 450 286 410 286 c 0,10,11
 368 286 368 286 368 328 c 0,12,13
 368 410 368 410 328 450 c 0,14,15
 286 492 286 492 204 492 c 0,16,17
 164 492 164 492 122 450 c 0,18,19
 82 410 82 410 82 328 c 0,20,21
 82 164 82 164 82 118 c 256,22,23
 82 72 82 72 82 0 c 0,24,25
 82 -40 82 -40 40 -40 c 0,26,27
 0 -40 0 -40 0 0 c 0,28,29
 0 152 0 152 0 220 c 0,30,31
 0 286 0 286 0 368 c 256,0,1
EndSplineSet
Validated: 1
EndChar

StartChar: i.init
Encoding: 65574 -1 15
Width: 656
GlyphClass: 2
Flags: W
LayerCount: 2
Fore
SplineSet
0 696 m 0,0,1
 164 696 164 696 246 614 c 256,2,3
 328 532 328 532 328 368 c 1,4,5
 368 368 368 368 390 368 c 0,6,7
 410 368 410 368 450 368 c 2,8,9
 450 368 450 368 492 368 c 0,10,11
 532 368 532 368 532 368 c 2,12,13
 554 368 554 368 584 368 c 256,14,15
 614 368 614 368 656 368 c 1,16,17
 656 328 656 328 656 308 c 0,18,19
 656 286 656 286 656 286 c 1,20,21
 614 286 614 286 594 286 c 256,22,23
 574 286 574 286 532 286 c 1,24,25
 532 166 532 166 532 114 c 0,26,27
 532 64 532 64 532 0 c 0,28,29
 532 -40 532 -40 492 -40 c 0,30,31
 450 -40 450 -40 450 0 c 256,32,33
 450 40 450 40 450 122 c 256,34,35
 450 204 450 204 450 286 c 1,36,37
 410 286 410 286 390 286 c 0,38,39
 368 286 368 286 328 286 c 1,40,41
 328 246 328 246 328 246 c 257,42,43
 328 246 328 246 328 204 c 0,44,45
 328 164 328 164 286 164 c 0,46,47
 246 164 246 164 246 204 c 0,48,49
 246 246 246 246 246 246 c 257,50,51
 246 246 246 246 246 368 c 0,52,53
 246 492 246 492 184 552 c 0,54,55
 122 614 122 614 0 614 c 0,56,57
 -40 614 -40 614 -40 656 c 0,58,59
 -40 696 -40 696 0 696 c 0,0,1
EndSplineSet
Validated: 1
EndChar

StartChar: glyph147
Encoding: 65575 -1 16
Width: 574
GlyphClass: 2
Flags: W
LayerCount: 2
Fore
SplineSet
204 368 m 1,0,1
 204 450 204 450 266 512 c 256,2,3
 328 574 328 574 410 574 c 0,4,5
 532 574 532 574 594 512 c 256,6,7
 656 450 656 450 656 328 c 0,8,9
 656 286 656 286 614 286 c 0,10,11
 574 286 574 286 574 328 c 0,12,13
 574 410 574 410 532 450 c 0,14,15
 492 492 492 492 410 492 c 0,16,17
 368 492 368 492 328 450 c 0,18,19
 286 410 286 410 286 328 c 0,20,21
 286 164 286 164 286 118 c 256,22,23
 286 72 286 72 286 0 c 0,24,25
 286 -40 286 -40 246 -40 c 0,26,27
 204 -40 204 -40 204 0 c 256,28,29
 204 40 204 40 204 122 c 256,30,31
 204 204 204 204 204 286 c 1,32,33
 134 286 134 286 168 286 c 0,34,35
 204 286 204 286 82 286 c 1,36,37
 82 246 82 246 82 246 c 257,38,39
 82 246 82 246 82 204 c 0,40,41
 82 164 82 164 40 164 c 0,42,43
 0 164 0 164 0 204 c 0,44,45
 0 246 0 246 0 246 c 257,46,47
 0 246 0 246 0 368 c 1,48,49
 70 368 70 368 120 368 c 256,50,51
 170 368 170 368 204 368 c 1,0,1
EndSplineSet
Validated: 37
EndChar

StartChar: i.fina
Encoding: 65576 -1 17
Width: 450
GlyphClass: 2
Flags: W
LayerCount: 2
Fore
SplineSet
0 368 m 256,0,1
 0 450 0 450 62 512 c 0,2,3
 122 574 122 574 204 574 c 0,4,5
 328 574 328 574 390 512 c 0,6,7
 450 450 450 450 450 328 c 0,8,9
 450 286 450 286 410 286 c 0,10,11
 368 286 368 286 368 328 c 0,12,13
 368 410 368 410 328 450 c 0,14,15
 286 492 286 492 204 492 c 0,16,17
 164 492 164 492 122 450 c 0,18,19
 82 410 82 410 82 328 c 0,20,21
 82 164 82 164 82 118 c 256,22,23
 82 72 82 72 82 0 c 0,24,25
 82 -40 82 -40 40 -40 c 0,26,27
 0 -40 0 -40 0 0 c 0,28,29
 0 152 0 152 0 220 c 0,30,31
 0 286 0 286 0 368 c 256,0,1
EndSplineSet
Validated: 1
Substitution2: "Single Substitution lookup 7 subtable" i2.fina
Substitution2: "Single Substitution lookup 6 subtable" i1.fina
EndChar

StartChar: i2.fina
Encoding: 65577 -1 18
Width: 410
GlyphClass: 2
Flags: W
LayerCount: 2
Fore
SplineSet
0 286 m 1,0,1
 0 310 0 310 0 340 c 0,2,3
 0 368 0 368 0 368 c 257,4,5
 0 368 0 368 40 368 c 0,6,7
 82 368 82 368 82 368 c 2,8,9
 246 368 246 368 328 286 c 256,10,11
 410 204 410 204 410 40 c 0,12,13
 410 0 410 0 368 0 c 0,14,15
 328 0 328 0 328 40 c 0,16,17
 328 164 328 164 266 226 c 0,18,19
 204 286 204 286 82 286 c 0,20,21
 80 286 80 286 82 262 c 0,22,23
 82 236 82 236 82 -40 c 0,24,25
 82 -82 82 -82 40 -82 c 0,26,27
 0 -82 0 -82 0 -40 c 0,28,29
 0 168 0 168 0 228 c 0,30,31
 2 286 2 286 0 286 c 1,0,1
EndSplineSet
Validated: 1
EndChar

StartChar: i1.fina
Encoding: 65578 -1 19
Width: 328
GlyphClass: 2
Flags: W
LayerCount: 2
Fore
SplineSet
0 368 m 1,0,1
 164 368 164 368 246 286 c 256,2,3
 328 204 328 204 328 40 c 0,4,5
 328 0 328 0 286 0 c 0,6,7
 246 0 246 0 246 40 c 0,8,9
 246 164 246 164 184 226 c 0,10,11
 122 286 122 286 0 286 c 1,12,13
 0 328 0 328 0 348 c 256,14,15
 0 368 0 368 0 368 c 1,0,1
EndSplineSet
Validated: 1
EndChar

StartChar: iy.isol
Encoding: 6239 6239 20
Width: 1148
GlyphClass: 2
Flags: W
LayerCount: 2
Fore
SplineSet
286 368 m 0,0,1
 410 368 410 368 472 430 c 0,2,3
 532 492 532 492 532 614 c 0,4,5
 532 738 532 738 472 798 c 0,6,7
 410 860 410 860 286 860 c 0,8,9
 246 860 246 860 246 902 c 0,10,11
 246 942 246 942 286 942 c 0,12,13
 450 942 450 942 532 860 c 256,14,15
 614 778 614 778 614 614 c 256,16,17
 614 450 614 450 532 368 c 256,18,19
 450 286 450 286 286 286 c 0,20,21
 216 286 216 286 168 286 c 0,22,23
 122 286 122 286 0 286 c 1,24,25
 0 328 0 328 0 348 c 256,26,27
 0 368 0 368 0 368 c 1,28,29
 122 368 122 368 168 368 c 0,30,31
 216 368 216 368 286 368 c 0,0,1
0 450 m 0,32,33
 0 492 0 492 40 492 c 0,34,35
 82 492 82 492 82 450 c 2,36,37
 82 450 82 450 82 448 c 2,38,39
 82 448 82 448 82 368 c 0,40,41
 82 328 82 328 40 328 c 0,42,43
 0 328 0 328 0 368 c 0,44,45
 0 410 0 410 0 328 c 0,46,47
 0 274 0 274 0 274 c 257,48,49
 0 274 0 274 0 286 c 0,50,51
 0 328 0 328 0 368 c 0,52,53
 0 410 0 410 0 450 c 0,32,33
164 450 m 0,54,55
 164 492 164 492 204 492 c 0,56,57
 246 492 246 492 246 450 c 2,58,59
 246 450 246 450 246 430 c 256,60,61
 246 410 246 410 246 368 c 0,62,63
 246 328 246 328 204 328 c 0,64,65
 164 328 164 328 164 368 c 0,66,67
 164 390 164 390 164 400 c 256,68,69
 164 410 164 410 164 450 c 0,54,55
EndSplineSet
Validated: 5
Substitution2: "'fina' Terminal Forms in Mongolian lookup 2 subtable" iy.fina
Substitution2: "'medi' Medial Forms in Mongolian lookup 1 subtable" iy.medi
Substitution2: "Required Feature in Latin lookup 0 subtable" iy.init
EndChar

StartChar: i.medi
Encoding: 65579 -1 21
Width: 206
GlyphClass: 2
Flags: W
LayerCount: 2
Fore
SplineSet
0 368 m 1,0,1
 40 368 40 368 102 368 c 256,2,3
 164 368 164 368 204 368 c 1,4,5
 204 328 204 328 204 328 c 257,6,7
 204 328 204 328 204 286 c 1,8,9
 164 286 164 286 134 286 c 0,10,11
 102 286 102 286 82 286 c 1,12,13
 82 246 82 246 82 132 c 256,14,15
 82 18 82 18 82 0 c 0,16,17
 82 -40 82 -40 40 -40 c 0,18,19
 0 -40 0 -40 0 0 c 0,20,21
 0 88 0 88 0 166 c 0,22,23
 0 246 0 246 0 286 c 0,24,25
 0 328 0 328 0 328 c 257,26,27
 0 328 0 328 0 368 c 1,0,1
EndSplineSet
Validated: 1
Substitution2: "Single Substitution lookup 29 subtable" glyph279
Substitution2: "Single Substitution lookup 26 subtable" glyph279
Substitution2: "Single Substitution lookup 6 subtable" i1.medi
EndChar

StartChar: is1.medi
Encoding: 65580 -1 22
Width: 410
GlyphClass: 2
Flags: W
LayerCount: 2
Fore
SplineSet
0 368 m 1,0,1
 0 368 0 368 20 368 c 256,2,3
 40 368 40 368 0 368 c 1,4,5
 40 368 40 368 102 368 c 256,6,7
 164 368 164 368 204 368 c 2,8,9
 204 368 204 368 286 368 c 256,10,11
 368 368 368 368 410 368 c 1,12,13
 410 368 410 368 410 348 c 256,14,15
 410 328 410 328 410 286 c 1,16,17
 368 286 368 286 348 286 c 256,18,19
 328 286 328 286 286 286 c 1,20,21
 286 286 286 286 288 164 c 0,22,23
 288 42 288 42 288 0 c 0,24,25
 288 -40 288 -40 248 -40 c 0,26,27
 206 -40 206 -40 206 0 c 0,28,29
 206 42 206 42 206 144 c 0,30,31
 204 246 204 246 204 286 c 1,32,33
 164 286 164 286 144 286 c 0,34,35
 122 286 122 286 82 286 c 1,36,37
 82 286 82 286 82 266 c 256,38,39
 82 246 82 246 82 204 c 0,40,41
 82 164 82 164 40 164 c 0,42,43
 0 164 0 164 0 204 c 0,44,45
 0 246 0 246 0 270 c 0,46,47
 0 292 0 292 0 368 c 1,0,1
EndSplineSet
Validated: 5
Substitution2: "Single Substitution lookup 31 subtable" glyph339
EndChar

StartChar: i1.medi
Encoding: 65581 -1 23
Width: 410
GlyphClass: 2
Flags: W
LayerCount: 2
Fore
SplineSet
-2 368 m 1,0,1
 -2 368 -2 368 18 368 c 256,2,3
 38 368 38 368 -2 368 c 1,4,5
 38 368 38 368 100 368 c 256,6,7
 162 368 162 368 202 368 c 2,8,9
 202 368 202 368 284 368 c 256,10,11
 366 368 366 368 408 368 c 1,12,13
 408 368 408 368 408 348 c 256,14,15
 408 328 408 328 408 286 c 1,16,17
 366 286 366 286 346 286 c 256,18,19
 326 286 326 286 284 286 c 1,20,21
 284 286 284 286 286 164 c 0,22,23
 286 40 286 40 286 0 c 256,24,25
 286 -40 286 -40 246 -40 c 0,26,27
 204 -40 204 -40 204 0 c 256,28,29
 204 40 204 40 204 144 c 0,30,31
 202 246 202 246 202 286 c 1,32,33
 162 286 162 286 142 286 c 0,34,35
 120 286 120 286 80 286 c 1,36,37
 80 286 80 286 80 164 c 0,38,39
 82 40 82 40 82 0 c 256,40,41
 82 -40 82 -40 40 -40 c 0,42,43
 0 -40 0 -40 0 0 c 256,44,45
 0 40 0 40 -2 166 c 0,46,47
 -2 292 -2 292 -2 368 c 1,0,1
EndSplineSet
Validated: 5
EndChar

StartChar: iy.init
Encoding: 65582 -1 24
Width: 370
GlyphClass: 2
Flags: W
LayerCount: 2
Fore
SplineSet
0 450 m 0,0,1
 0 492 0 492 40 492 c 0,2,3
 82 492 82 492 82 450 c 0,4,5
 82 406 82 406 82 408 c 256,6,7
 82 410 82 410 82 368 c 1,8,9
 116 368 116 368 140 368 c 256,10,11
 164 368 164 368 204 368 c 1,12,13
 204 356 204 356 204 342 c 256,14,15
 204 328 204 328 204 286 c 1,16,17
 164 286 164 286 136 286 c 256,18,19
 108 286 108 286 82 286 c 1,20,21
 82 286 82 286 82 266 c 256,22,23
 82 246 82 246 82 204 c 0,24,25
 82 164 82 164 40 164 c 0,26,27
 0 164 0 164 0 204 c 0,28,29
 0 246 0 246 0 246 c 257,30,31
 0 246 0 246 0 286 c 0,32,33
 0 328 0 328 0 368 c 0,34,35
 0 410 0 410 0 450 c 0,0,1
164 450 m 0,36,37
 164 492 164 492 204 492 c 0,38,39
 246 492 246 492 246 450 c 0,40,41
 246 406 246 406 246 408 c 256,42,43
 246 410 246 410 246 368 c 1,44,45
 280 368 280 368 304 368 c 256,46,47
 328 368 328 368 368 368 c 1,48,49
 368 356 368 356 368 342 c 256,50,51
 368 328 368 328 368 286 c 1,52,53
 256 286 256 286 220 286 c 256,54,55
 184 286 184 286 164 286 c 1,56,57
 164 328 164 328 164 368 c 0,58,59
 164 410 164 410 164 450 c 0,36,37
EndSplineSet
Validated: 5
EndChar

StartChar: o.isol
Encoding: 6179 6179 25
Width: 984
GlyphClass: 2
Flags: W
LayerCount: 2
Fore
SplineSet
0 696 m 0,0,1
 164 696 164 696 246 614 c 256,2,3
 328 532 328 532 328 368 c 1,4,5
 368 368 368 368 394 368 c 256,6,7
 420 368 420 368 492 368 c 0,8,9
 574 368 574 368 716 368 c 0,10,11
 860 368 860 368 984 368 c 1,12,13
 984 328 984 328 984 286 c 0,14,15
 984 246 984 246 984 246 c 2,16,17
 984 122 984 122 922 62 c 0,18,19
 860 0 860 0 738 0 c 0,20,21
 614 0 614 0 552 62 c 0,22,23
 492 122 492 122 492 246 c 2,24,25
 492 246 492 246 492 266 c 256,26,27
 492 286 492 286 492 286 c 1,28,29
 420 286 420 286 394 286 c 256,30,31
 368 286 368 286 328 286 c 1,32,33
 328 246 328 246 328 246 c 257,34,35
 328 246 328 246 328 204 c 0,36,37
 328 164 328 164 286 164 c 0,38,39
 246 164 246 164 246 204 c 0,40,41
 246 246 246 246 246 246 c 257,42,43
 246 246 246 246 246 368 c 0,44,45
 246 492 246 492 184 552 c 0,46,47
 122 614 122 614 0 614 c 0,48,49
 -40 614 -40 614 -40 656 c 0,50,51
 -40 696 -40 696 0 696 c 0,0,1
574 246 m 2,52,53
 574 164 574 164 614 122 c 0,54,55
 656 82 656 82 738 82 c 256,56,57
 820 82 820 82 860 122 c 0,58,59
 902 164 902 164 902 246 c 2,60,61
 902 246 902 246 902 266 c 256,62,63
 902 286 902 286 902 286 c 1,64,65
 820 286 820 286 716 286 c 0,66,67
 614 286 614 286 574 286 c 1,68,69
 574 286 574 286 574 266 c 256,70,71
 574 246 574 246 574 246 c 2,52,53
EndSplineSet
Validated: 1
Substitution2: "'fina' Terminal Forms in Mongolian lookup 2 subtable" o.fina
Substitution2: "'medi' Medial Forms in Mongolian lookup 1 subtable" o.medi
Substitution2: "Required Feature in Latin lookup 0 subtable" o.init
EndChar

StartChar: o.init
Encoding: 65583 -1 26
Width: 902
GlyphClass: 2
Flags: W
LayerCount: 2
Fore
SplineSet
0 696 m 0,0,1
 164 696 164 696 246 614 c 256,2,3
 328 532 328 532 328 368 c 1,4,5
 368 368 368 368 374 368 c 0,6,7
 378 368 378 368 450 368 c 0,8,9
 532 368 532 368 656 368 c 0,10,11
 778 368 778 368 902 368 c 1,12,13
 902 368 902 368 902 328 c 0,14,15
 902 286 902 286 902 286 c 1,16,17
 860 286 860 286 840 286 c 256,18,19
 820 286 820 286 778 286 c 1,20,21
 778 286 778 286 778 266 c 256,22,23
 778 246 778 246 778 246 c 2,24,25
 778 164 778 164 738 122 c 0,26,27
 696 82 696 82 614 82 c 256,28,29
 532 82 532 82 492 122 c 0,30,31
 450 164 450 164 450 246 c 2,32,33
 450 246 450 246 450 266 c 256,34,35
 450 286 450 286 450 286 c 1,36,37
 378 286 378 286 374 286 c 0,38,39
 368 286 368 286 328 286 c 1,40,41
 328 246 328 246 328 246 c 257,42,43
 328 246 328 246 328 204 c 0,44,45
 328 164 328 164 286 164 c 0,46,47
 246 164 246 164 246 204 c 0,48,49
 246 246 246 246 246 246 c 257,50,51
 246 246 246 246 246 368 c 0,52,53
 246 492 246 492 184 552 c 0,54,55
 122 614 122 614 0 614 c 0,56,57
 -40 614 -40 614 -40 656 c 0,58,59
 -40 696 -40 696 0 696 c 0,0,1
532 246 m 2,60,61
 532 204 532 204 552 184 c 0,62,63
 574 164 574 164 614 164 c 0,64,65
 656 164 656 164 676 184 c 256,66,67
 696 204 696 204 696 246 c 2,68,69
 696 246 696 246 696 266 c 256,70,71
 696 286 696 286 696 286 c 1,72,73
 656 286 656 286 614 286 c 0,74,75
 574 286 574 286 532 286 c 1,76,77
 532 286 532 286 532 266 c 256,78,79
 532 246 532 246 532 246 c 2,60,61
EndSplineSet
Validated: 1
EndChar

StartChar: o.fina
Encoding: 65584 -1 27
Width: 654
GlyphClass: 2
Flags: W
LayerCount: 2
Fore
SplineSet
0 368 m 0,0,1
 0 532 0 532 82 614 c 256,2,3
 164 696 164 696 328 696 c 256,4,5
 492 696 492 696 574 614 c 256,6,7
 656 532 656 532 656 368 c 0,8,9
 656 328 656 328 614 328 c 0,10,11
 574 328 574 328 574 368 c 0,12,13
 574 492 574 492 510 552 c 0,14,15
 446 614 446 614 328 614 c 0,16,17
 204 616 204 616 144 554 c 0,18,19
 82 492 82 492 82 368 c 1,20,21
 164 368 164 368 266 368 c 256,22,23
 368 368 368 368 450 368 c 1,24,25
 450 268 450 268 450 258 c 0,26,27
 450 246 450 246 450 246 c 2,28,29
 450 122 450 122 390 62 c 0,30,31
 328 0 328 0 246 0 c 0,32,33
 122 0 122 0 62 62 c 0,34,35
 0 122 0 122 0 246 c 1,36,37
 2 246 2 246 0 292 c 0,38,39
 0 338 0 338 0 368 c 0,0,1
82 246 m 2,40,41
 82 164 82 164 122 122 c 0,42,43
 164 82 164 82 246 82 c 0,44,45
 286 82 286 82 328 122 c 0,46,47
 368 164 368 164 368 246 c 2,48,49
 368 246 368 246 368 266 c 256,50,51
 368 286 368 286 368 286 c 1,52,53
 274 286 274 286 82 286 c 1,54,55
 82 286 82 286 82 266 c 256,56,57
 82 246 82 246 82 246 c 2,40,41
EndSplineSet
Validated: 33
Substitution2: "Single Substitution lookup 6 subtable" o1.fina
Substitution2: "Single Substitution lookup 4 subtable" o1.fina
EndChar

StartChar: o1.fina
Encoding: 65585 -1 28
Width: 328
GlyphClass: 2
Flags: W
LayerCount: 2
Fore
SplineSet
0 368 m 1,0,1
 82 368 82 368 144 368 c 0,2,3
 204 368 204 368 328 368 c 1,4,5
 328 346 328 346 328 338 c 0,6,7
 328 328 328 328 328 286 c 2,8,9
 328 286 328 286 328 266 c 256,10,11
 328 246 328 246 328 246 c 2,12,13
 328 164 328 164 286 122 c 0,14,15
 246 82 246 82 164 82 c 256,16,17
 82 82 82 82 40 122 c 0,18,19
 0 164 0 164 0 246 c 1,20,21
 2 246 2 246 0 292 c 0,22,23
 0 336 0 336 0 368 c 1,0,1
82 246 m 2,24,25
 82 204 82 204 102 184 c 256,26,27
 122 164 122 164 164 164 c 0,28,29
 204 164 204 164 226 184 c 0,30,31
 246 204 246 204 246 246 c 2,32,33
 246 246 246 246 246 266 c 256,34,35
 246 286 246 286 246 286 c 1,36,37
 192 286 192 286 82 286 c 1,38,39
 82 286 82 286 82 266 c 256,40,41
 82 246 82 246 82 246 c 2,24,25
EndSplineSet
Validated: 1
Substitution2: "Single Substitution lookup 27 subtable" glyph281
EndChar

StartChar: o.medi
Encoding: 65586 -1 29
Width: 450
GlyphClass: 2
Flags: W
LayerCount: 2
Fore
SplineSet
0 368 m 1,0,1
 82 368 82 368 204 368 c 0,2,3
 328 368 328 368 450 368 c 1,4,5
 450 350 450 350 450 324 c 256,6,7
 450 298 450 298 450 286 c 1,8,9
 424 286 424 286 376 286 c 256,10,11
 328 286 328 286 328 286 c 257,12,13
 328 286 328 286 328 266 c 256,14,15
 328 246 328 246 328 246 c 2,16,17
 328 164 328 164 286 122 c 0,18,19
 246 82 246 82 164 82 c 256,20,21
 82 82 82 82 40 122 c 0,22,23
 0 164 0 164 0 246 c 1,24,25
 2 246 2 246 0 292 c 0,26,27
 0 336 0 336 0 368 c 1,0,1
82 246 m 2,28,29
 82 204 82 204 102 184 c 256,30,31
 122 164 122 164 164 164 c 0,32,33
 204 164 204 164 226 184 c 0,34,35
 246 204 246 204 246 246 c 2,36,37
 246 246 246 246 246 266 c 256,38,39
 246 286 246 286 246 286 c 1,40,41
 192 286 192 286 82 286 c 1,42,43
 82 286 82 286 82 266 c 256,44,45
 82 246 82 246 82 246 c 2,28,29
EndSplineSet
Validated: 1
Substitution2: "Single Substitution lookup 27 subtable" glyph280
EndChar

StartChar: u.isol
Encoding: 6240 6240 30
Width: 984
GlyphClass: 2
Flags: W
LayerCount: 2
Fore
SplineSet
0 696 m 0,0,1
 164 696 164 696 246 614 c 256,2,3
 328 532 328 532 328 368 c 1,4,5
 368 368 368 368 394 368 c 256,6,7
 420 368 420 368 492 368 c 0,8,9
 574 368 574 368 716 368 c 0,10,11
 860 368 860 368 984 368 c 1,12,13
 984 328 984 328 984 286 c 0,14,15
 984 246 984 246 984 246 c 2,16,17
 984 122 984 122 922 62 c 0,18,19
 860 0 860 0 738 0 c 0,20,21
 614 0 614 0 552 62 c 0,22,23
 492 122 492 122 492 246 c 2,24,25
 492 246 492 246 492 266 c 256,26,27
 492 286 492 286 492 286 c 1,28,29
 420 286 420 286 394 286 c 256,30,31
 368 286 368 286 328 286 c 1,32,33
 328 246 328 246 328 246 c 257,34,35
 328 246 328 246 328 204 c 0,36,37
 328 164 328 164 286 164 c 0,38,39
 246 164 246 164 246 204 c 0,40,41
 246 246 246 246 246 246 c 257,42,43
 246 246 246 246 246 368 c 0,44,45
 246 492 246 492 184 552 c 0,46,47
 122 614 122 614 0 614 c 0,48,49
 -40 614 -40 614 -40 656 c 0,50,51
 -40 696 -40 696 0 696 c 0,0,1
574 246 m 2,52,53
 574 164 574 164 614 122 c 0,54,55
 656 82 656 82 738 82 c 256,56,57
 820 82 820 82 860 122 c 0,58,59
 902 164 902 164 902 246 c 2,60,61
 902 246 902 246 902 266 c 256,62,63
 902 286 902 286 902 286 c 1,64,65
 860 286 860 286 738 286 c 0,66,67
 614 286 614 286 574 286 c 1,68,69
 574 286 574 286 574 266 c 256,70,71
 574 246 574 246 574 246 c 2,52,53
780 592 m 0,72,73
 772 582 772 582 760 578 c 0,74,75
 750 574 750 574 738 574 c 256,76,77
 726 574 726 574 714 578 c 256,78,79
 702 582 702 582 694 592 c 0,80,81
 686 600 686 600 680 612 c 0,82,83
 676 622 676 622 676 634 c 256,84,85
 676 646 676 646 680 658 c 0,86,87
 686 670 686 670 694 678 c 256,88,89
 702 686 702 686 714 692 c 0,90,91
 726 696 726 696 738 696 c 256,92,93
 750 696 750 696 760 692 c 0,94,95
 772 686 772 686 780 678 c 0,96,97
 790 670 790 670 794 658 c 256,98,99
 798 646 798 646 798 634 c 256,100,101
 798 622 798 622 794 612 c 0,102,103
 790 600 790 600 780 592 c 0,72,73
EndSplineSet
Validated: 1
Substitution2: "'fina' Terminal Forms in Mongolian lookup 2 subtable" u.fina
Substitution2: "'medi' Medial Forms in Mongolian lookup 1 subtable" u.medi
Substitution2: "Required Feature in Latin lookup 0 subtable" u.init
EndChar

StartChar: u.init
Encoding: 65587 -1 31
Width: 902
GlyphClass: 2
Flags: W
LayerCount: 2
Fore
SplineSet
0 696 m 0,0,1
 164 696 164 696 246 614 c 256,2,3
 328 532 328 532 328 368 c 1,4,5
 368 368 368 368 374 368 c 0,6,7
 378 368 378 368 450 368 c 0,8,9
 528 368 528 368 660 368 c 256,10,11
 792 368 792 368 902 368 c 1,12,13
 902 328 902 328 902 328 c 257,14,15
 902 328 902 328 902 286 c 1,16,17
 878 286 878 286 848 286 c 0,18,19
 820 286 820 286 778 286 c 1,20,21
 778 286 778 286 778 266 c 256,22,23
 778 246 778 246 778 246 c 2,24,25
 778 164 778 164 738 122 c 0,26,27
 696 82 696 82 614 82 c 256,28,29
 532 82 532 82 492 122 c 0,30,31
 450 164 450 164 450 246 c 2,32,33
 450 246 450 246 450 266 c 256,34,35
 450 286 450 286 450 286 c 1,36,37
 378 286 378 286 374 286 c 0,38,39
 368 286 368 286 328 286 c 1,40,41
 328 246 328 246 328 246 c 257,42,43
 328 246 328 246 328 204 c 0,44,45
 328 164 328 164 286 164 c 0,46,47
 246 164 246 164 246 204 c 0,48,49
 246 246 246 246 246 246 c 257,50,51
 246 246 246 246 246 368 c 0,52,53
 246 492 246 492 184 552 c 0,54,55
 122 614 122 614 0 614 c 0,56,57
 -40 614 -40 614 -40 656 c 0,58,59
 -40 696 -40 696 0 696 c 0,0,1
532 246 m 2,60,61
 532 204 532 204 552 184 c 0,62,63
 574 164 574 164 614 164 c 0,64,65
 656 164 656 164 676 184 c 256,66,67
 696 204 696 204 696 246 c 2,68,69
 696 246 696 246 696 266 c 256,70,71
 696 286 696 286 696 286 c 1,72,73
 656 286 656 286 614 286 c 0,74,75
 574 286 574 286 532 286 c 1,76,77
 532 286 532 286 532 266 c 256,78,79
 532 246 532 246 532 246 c 2,60,61
658 592 m 0,80,81
 650 582 650 582 638 578 c 256,82,83
 626 574 626 574 614 574 c 256,84,85
 602 574 602 574 590 578 c 0,86,87
 580 582 580 582 570 592 c 0,88,89
 562 600 562 600 558 612 c 0,90,91
 552 622 552 622 552 634 c 256,92,93
 552 646 552 646 558 658 c 0,94,95
 562 670 562 670 570 678 c 0,96,97
 580 686 580 686 590 692 c 0,98,99
 602 696 602 696 614 696 c 256,100,101
 626 696 626 696 638 692 c 0,102,103
 650 686 650 686 658 678 c 256,104,105
 666 670 666 670 672 658 c 0,106,107
 676 646 676 646 676 634 c 256,108,109
 676 622 676 622 672 612 c 0,110,111
 666 600 666 600 658 592 c 0,80,81
EndSplineSet
Validated: 1
EndChar

StartChar: v.isol
Encoding: 6241 6241 32
Width: 1148
GlyphClass: 2
Flags: W
LayerCount: 2
Fore
SplineSet
0 696 m 0,0,1
 164 696 164 696 246 614 c 256,2,3
 328 532 328 532 328 368 c 1,4,5
 368 368 368 368 374 368 c 0,6,7
 378 368 378 368 450 368 c 0,8,9
 532 368 532 368 594 368 c 256,10,11
 656 368 656 368 778 368 c 0,12,13
 942 368 942 368 1024 286 c 256,14,15
 1106 204 1106 204 1106 40 c 0,16,17
 1106 0 1106 0 1064 0 c 0,18,19
 1024 0 1024 0 1024 40 c 0,20,21
 1024 164 1024 164 962 226 c 0,22,23
 902 286 902 286 778 286 c 1,24,25
 778 266 778 266 778 256 c 256,26,27
 778 246 778 246 778 246 c 2,28,29
 778 164 778 164 738 122 c 0,30,31
 696 82 696 82 614 82 c 256,32,33
 532 82 532 82 492 122 c 0,34,35
 450 164 450 164 450 246 c 2,36,37
 450 246 450 246 450 266 c 256,38,39
 450 286 450 286 450 286 c 1,40,41
 378 286 378 286 374 286 c 0,42,43
 368 286 368 286 328 286 c 1,44,45
 328 246 328 246 328 246 c 257,46,47
 328 246 328 246 328 204 c 0,48,49
 328 164 328 164 286 164 c 0,50,51
 246 164 246 164 246 204 c 0,52,53
 246 246 246 246 246 246 c 257,54,55
 246 246 246 246 246 368 c 0,56,57
 246 492 246 492 184 552 c 0,58,59
 122 614 122 614 0 614 c 0,60,61
 -40 614 -40 614 -40 656 c 0,62,63
 -40 696 -40 696 0 696 c 0,0,1
532 246 m 2,64,65
 532 204 532 204 552 184 c 0,66,67
 574 164 574 164 614 164 c 0,68,69
 656 164 656 164 676 184 c 256,70,71
 696 204 696 204 696 246 c 2,72,73
 696 246 696 246 696 266 c 256,74,75
 696 286 696 286 696 286 c 1,76,77
 656 286 656 286 614 286 c 0,78,79
 574 286 574 286 532 286 c 1,80,81
 532 286 532 286 532 266 c 256,82,83
 532 246 532 246 532 246 c 2,64,65
EndSplineSet
Validated: 1
Substitution2: "'fina' Terminal Forms in Mongolian lookup 2 subtable" v.fina
Substitution2: "'medi' Medial Forms in Mongolian lookup 1 subtable" v.medi
Substitution2: "Required Feature in Latin lookup 0 subtable" v.init
EndChar

StartChar: v.init
Encoding: 65588 -1 33
Width: 778
GlyphClass: 2
Flags: W
LayerCount: 2
Fore
SplineSet
0 696 m 0,0,1
 164 696 164 696 246 614 c 256,2,3
 328 532 328 532 328 368 c 1,4,5
 368 368 368 368 374 368 c 0,6,7
 378 368 378 368 450 368 c 0,8,9
 532 368 532 368 594 368 c 256,10,11
 656 368 656 368 778 368 c 1,12,13
 778 368 778 368 778 328 c 0,14,15
 778 286 778 286 778 286 c 2,16,17
 778 164 778 164 738 122 c 0,18,19
 696 82 696 82 614 82 c 256,20,21
 532 82 532 82 492 122 c 0,22,23
 450 164 450 164 450 246 c 2,24,25
 450 246 450 246 450 266 c 256,26,27
 450 286 450 286 450 286 c 1,28,29
 378 286 378 286 374 286 c 0,30,31
 368 286 368 286 328 286 c 1,32,33
 328 246 328 246 328 246 c 257,34,35
 328 246 328 246 328 204 c 0,36,37
 328 164 328 164 286 164 c 0,38,39
 246 164 246 164 246 204 c 0,40,41
 246 246 246 246 246 246 c 257,42,43
 246 246 246 246 246 368 c 0,44,45
 246 492 246 492 184 552 c 0,46,47
 122 614 122 614 0 614 c 0,48,49
 -40 614 -40 614 -40 656 c 0,50,51
 -40 696 -40 696 0 696 c 0,0,1
532 246 m 2,52,53
 532 204 532 204 552 184 c 0,54,55
 574 164 574 164 614 164 c 0,56,57
 656 164 656 164 676 184 c 256,58,59
 696 204 696 204 696 246 c 2,60,61
 696 246 696 246 696 266 c 256,62,63
 696 286 696 286 696 286 c 1,64,65
 656 286 656 286 614 286 c 0,66,67
 574 286 574 286 532 286 c 1,68,69
 532 286 532 286 532 266 c 256,70,71
 532 246 532 246 532 246 c 2,52,53
696 328 m 1,72,73
 716 328 716 328 778 328 c 1,74,75
 778 246 778 246 778 144 c 0,76,77
 778 40 778 40 778 0 c 256,78,79
 778 -40 778 -40 738 -40 c 0,80,81
 696 -40 696 -40 696 0 c 256,82,83
 696 40 696 40 696 144 c 0,84,85
 696 246 696 246 696 328 c 1,72,73
EndSplineSet
Validated: 5
EndChar

StartChar: u.fina
Encoding: 65589 -1 34
Width: 654
GlyphClass: 2
Flags: W
LayerCount: 2
Fore
SplineSet
0 368 m 1,0,1
 0 532 0 532 82 614 c 256,2,3
 164 696 164 696 328 696 c 256,4,5
 492 696 492 696 574 614 c 256,6,7
 656 532 656 532 656 368 c 0,8,9
 656 328 656 328 614 328 c 0,10,11
 574 328 574 328 574 368 c 0,12,13
 574 492 574 492 510 552 c 0,14,15
 446 614 446 614 328 614 c 0,16,17
 204 616 204 616 144 554 c 0,18,19
 82 492 82 492 82 368 c 1,20,21
 164 368 164 368 266 368 c 256,22,23
 368 368 368 368 450 368 c 1,24,25
 450 268 450 268 450 258 c 0,26,27
 450 246 450 246 450 246 c 2,28,29
 450 122 450 122 390 62 c 0,30,31
 328 0 328 0 246 0 c 0,32,33
 122 0 122 0 62 62 c 0,34,35
 0 122 0 122 0 246 c 1,36,37
 2 246 2 246 2 308 c 0,38,39
 2 368 2 368 0 368 c 1,0,1
82 246 m 2,40,41
 82 164 82 164 122 122 c 0,42,43
 164 82 164 82 246 82 c 0,44,45
 286 82 286 82 328 122 c 0,46,47
 368 164 368 164 368 246 c 2,48,49
 368 246 368 246 368 266 c 256,50,51
 368 286 368 286 368 286 c 1,52,53
 274 286 274 286 82 286 c 1,54,55
 82 286 82 286 82 266 c 256,56,57
 82 246 82 246 82 246 c 2,40,41
372 836 m 0,58,59
 362 828 362 828 352 824 c 0,60,61
 340 818 340 818 328 818 c 256,62,63
 316 818 316 818 304 824 c 0,64,65
 292 828 292 828 284 836 c 0,66,67
 276 846 276 846 270 858 c 0,68,69
 266 868 266 868 266 880 c 256,70,71
 266 892 266 892 270 904 c 0,72,73
 276 916 276 916 284 924 c 256,74,75
 292 932 292 932 304 938 c 0,76,77
 316 942 316 942 328 942 c 256,78,79
 340 942 340 942 352 938 c 0,80,81
 362 932 362 932 372 924 c 0,82,83
 380 916 380 916 384 904 c 0,84,85
 390 892 390 892 390 880 c 256,86,87
 390 868 390 868 384 858 c 0,88,89
 380 846 380 846 372 836 c 0,58,59
EndSplineSet
Validated: 33
Substitution2: "Single Substitution lookup 8 subtable" u3.fina
Substitution2: "Single Substitution lookup 7 subtable" u2.fina
Substitution2: "Single Substitution lookup 6 subtable" u1.fina
Substitution2: "Single Substitution lookup 4 subtable" u2.fina
EndChar

StartChar: u3.fina
Encoding: 65590 -1 35
Width: 654
GlyphClass: 2
Flags: W
LayerCount: 2
Fore
SplineSet
0 368 m 0,0,1
 0 532 0 532 82 614 c 256,2,3
 164 696 164 696 328 696 c 256,4,5
 492 696 492 696 574 614 c 256,6,7
 656 532 656 532 656 368 c 0,8,9
 656 328 656 328 614 328 c 0,10,11
 574 328 574 328 574 368 c 0,12,13
 574 492 574 492 510 552 c 0,14,15
 446 614 446 614 328 614 c 0,16,17
 204 616 204 616 144 554 c 0,18,19
 82 492 82 492 82 368 c 1,20,21
 164 368 164 368 266 368 c 256,22,23
 368 368 368 368 450 368 c 1,24,25
 450 268 450 268 450 258 c 0,26,27
 450 246 450 246 450 246 c 2,28,29
 450 122 450 122 390 62 c 0,30,31
 328 0 328 0 246 0 c 0,32,33
 122 0 122 0 62 62 c 0,34,35
 0 122 0 122 0 246 c 1,36,37
 2 246 2 246 0 292 c 0,38,39
 0 338 0 338 0 368 c 0,0,1
82 246 m 2,40,41
 82 164 82 164 122 122 c 0,42,43
 164 82 164 82 246 82 c 0,44,45
 286 82 286 82 328 122 c 0,46,47
 368 164 368 164 368 246 c 2,48,49
 368 246 368 246 368 266 c 256,50,51
 368 286 368 286 368 286 c 1,52,53
 274 286 274 286 82 286 c 1,54,55
 82 286 82 286 82 266 c 256,56,57
 82 246 82 246 82 246 c 2,40,41
EndSplineSet
Validated: 33
EndChar

StartChar: u2.fina
Encoding: 65591 -1 36
Width: 328
GlyphClass: 2
Flags: W
LayerCount: 2
Fore
SplineSet
0 368 m 1,0,1
 82 368 82 368 144 368 c 0,2,3
 204 368 204 368 328 368 c 1,4,5
 328 324 328 324 328 286 c 0,6,7
 328 272 328 272 328 264 c 0,8,9
 328 246 328 246 328 246 c 2,10,11
 328 164 328 164 286 122 c 0,12,13
 246 82 246 82 164 82 c 256,14,15
 82 82 82 82 40 122 c 0,16,17
 0 164 0 164 0 246 c 1,18,19
 2 246 2 246 0 292 c 0,20,21
 0 336 0 336 0 368 c 1,0,1
82 246 m 2,22,23
 82 204 82 204 102 184 c 256,24,25
 122 164 122 164 164 164 c 0,26,27
 204 164 204 164 226 184 c 0,28,29
 246 204 246 204 246 246 c 2,30,31
 246 246 246 246 246 266 c 256,32,33
 246 286 246 286 246 286 c 1,34,35
 192 286 192 286 82 286 c 1,36,37
 82 286 82 286 82 266 c 256,38,39
 82 246 82 246 82 246 c 2,22,23
208 592 m 0,40,41
 200 582 200 582 188 578 c 256,42,43
 176 574 176 574 164 574 c 256,44,45
 152 574 152 574 140 578 c 256,46,47
 128 582 128 582 120 592 c 0,48,49
 112 600 112 600 108 612 c 0,50,51
 102 622 102 622 102 634 c 256,52,53
 102 646 102 646 108 658 c 0,54,55
 112 670 112 670 120 678 c 256,56,57
 128 686 128 686 140 692 c 0,58,59
 152 696 152 696 164 696 c 256,60,61
 176 696 176 696 188 692 c 0,62,63
 200 686 200 686 208 678 c 256,64,65
 216 670 216 670 220 658 c 0,66,67
 226 646 226 646 226 634 c 256,68,69
 226 622 226 622 220 612 c 0,70,71
 216 600 216 600 208 592 c 0,40,41
EndSplineSet
Validated: 1
Substitution2: "Single Substitution lookup 27 subtable" glyph283
Substitution2: "Single Substitution lookup 6 subtable" u1.fina
EndChar

StartChar: u1.fina
Encoding: 65592 -1 37
Width: 328
GlyphClass: 2
Flags: W
LayerCount: 2
Fore
SplineSet
0 368 m 1,0,1
 82 368 82 368 144 368 c 0,2,3
 204 368 204 368 328 368 c 1,4,5
 328 346 328 346 328 338 c 0,6,7
 328 328 328 328 328 286 c 2,8,9
 328 286 328 286 328 266 c 256,10,11
 328 246 328 246 328 246 c 2,12,13
 328 164 328 164 286 122 c 0,14,15
 246 82 246 82 164 82 c 256,16,17
 82 82 82 82 40 122 c 0,18,19
 0 164 0 164 0 246 c 1,20,21
 2 246 2 246 0 292 c 0,22,23
 0 336 0 336 0 368 c 1,0,1
82 246 m 2,24,25
 82 204 82 204 102 184 c 256,26,27
 122 164 122 164 164 164 c 0,28,29
 204 164 204 164 226 184 c 0,30,31
 246 204 246 204 246 246 c 2,32,33
 246 246 246 246 246 266 c 256,34,35
 246 286 246 286 246 286 c 1,36,37
 192 286 192 286 82 286 c 1,38,39
 82 286 82 286 82 266 c 256,40,41
 82 246 82 246 82 246 c 2,24,25
EndSplineSet
Validated: 1
Substitution2: "Single Substitution lookup 27 subtable" glyph281
EndChar

StartChar: v.fina
Encoding: 65593 -1 38
Width: 656
GlyphClass: 2
Flags: W
LayerCount: 2
Fore
SplineSet
0 368 m 1,0,1
 82 368 82 368 144 368 c 0,2,3
 204 368 204 368 328 368 c 0,4,5
 492 368 492 368 574 286 c 256,6,7
 656 204 656 204 656 40 c 0,8,9
 656 0 656 0 614 0 c 0,10,11
 574 0 574 0 574 40 c 0,12,13
 574 164 574 164 512 226 c 0,14,15
 450 286 450 286 328 286 c 1,16,17
 328 266 328 266 328 256 c 256,18,19
 328 246 328 246 328 246 c 2,20,21
 328 164 328 164 286 122 c 0,22,23
 246 82 246 82 164 82 c 256,24,25
 82 82 82 82 40 122 c 0,26,27
 0 164 0 164 0 246 c 2,28,29
 0 246 0 246 0 266 c 256,30,31
 0 286 0 286 0 286 c 2,32,33
 0 328 0 328 0 328 c 257,34,35
 0 328 0 328 0 368 c 1,0,1
82 246 m 2,36,37
 82 204 82 204 102 184 c 256,38,39
 122 164 122 164 164 164 c 0,40,41
 204 164 204 164 226 184 c 0,42,43
 246 204 246 204 246 246 c 2,44,45
 246 246 246 246 246 266 c 256,46,47
 246 286 246 286 246 286 c 1,48,49
 204 286 204 286 164 286 c 0,50,51
 122 286 122 286 82 286 c 1,52,53
 82 286 82 286 82 266 c 256,54,55
 82 246 82 246 82 246 c 2,36,37
EndSplineSet
Validated: 1
Substitution2: "Single Substitution lookup 27 subtable" glyph285
EndChar

StartChar: u.medi
Encoding: 65594 -1 39
Width: 450
GlyphClass: 2
Flags: W
LayerCount: 2
Fore
SplineSet
0 368 m 1,0,1
 82 368 82 368 204 368 c 0,2,3
 328 368 328 368 450 368 c 1,4,5
 450 332 450 332 450 310 c 0,6,7
 450 286 450 286 450 286 c 1,8,9
 426 286 426 286 398 286 c 0,10,11
 368 286 368 286 328 286 c 1,12,13
 328 286 328 286 328 286 c 257,14,15
 328 286 328 286 328 286 c 257,16,17
 328 286 328 286 328 266 c 256,18,19
 328 246 328 246 328 246 c 2,20,21
 328 164 328 164 286 122 c 0,22,23
 246 82 246 82 164 82 c 256,24,25
 82 82 82 82 40 122 c 0,26,27
 0 164 0 164 0 246 c 1,28,29
 2 246 2 246 0 292 c 0,30,31
 0 336 0 336 0 368 c 1,0,1
82 246 m 2,32,33
 82 204 82 204 102 184 c 256,34,35
 122 164 122 164 164 164 c 0,36,37
 204 164 204 164 226 184 c 0,38,39
 246 204 246 204 246 246 c 2,40,41
 246 246 246 246 246 266 c 256,42,43
 246 286 246 286 246 286 c 1,44,45
 192 286 192 286 82 286 c 1,46,47
 82 286 82 286 82 266 c 256,48,49
 82 246 82 246 82 246 c 2,32,33
208 592 m 0,50,51
 200 582 200 582 188 578 c 256,52,53
 176 574 176 574 164 574 c 256,54,55
 152 574 152 574 140 578 c 256,56,57
 128 582 128 582 120 592 c 0,58,59
 112 600 112 600 108 612 c 0,60,61
 102 622 102 622 102 634 c 256,62,63
 102 646 102 646 108 658 c 0,64,65
 112 670 112 670 120 678 c 256,66,67
 128 686 128 686 140 692 c 0,68,69
 152 696 152 696 164 696 c 256,70,71
 176 696 176 696 188 692 c 0,72,73
 200 686 200 686 208 678 c 256,74,75
 216 670 216 670 220 658 c 0,76,77
 226 646 226 646 226 634 c 256,78,79
 226 622 226 622 220 612 c 0,80,81
 216 600 216 600 208 592 c 0,50,51
EndSplineSet
Validated: 5
Substitution2: "Single Substitution lookup 27 subtable" glyph282
Substitution2: "Single Substitution lookup 6 subtable" u1.medi
EndChar

StartChar: u1.medi
Encoding: 65595 -1 40
Width: 450
GlyphClass: 2
Flags: W
LayerCount: 2
Fore
SplineSet
0 368 m 1,0,1
 82 368 82 368 204 368 c 0,2,3
 328 368 328 368 450 368 c 1,4,5
 450 350 450 350 450 324 c 256,6,7
 450 298 450 298 450 286 c 1,8,9
 424 286 424 286 376 286 c 256,10,11
 328 286 328 286 328 286 c 257,12,13
 328 286 328 286 328 266 c 256,14,15
 328 246 328 246 328 246 c 2,16,17
 328 164 328 164 286 122 c 0,18,19
 246 82 246 82 164 82 c 256,20,21
 82 82 82 82 40 122 c 0,22,23
 0 164 0 164 0 246 c 1,24,25
 2 246 2 246 0 292 c 0,26,27
 0 336 0 336 0 368 c 1,0,1
82 246 m 2,28,29
 82 204 82 204 102 184 c 256,30,31
 122 164 122 164 164 164 c 0,32,33
 204 164 204 164 226 184 c 0,34,35
 246 204 246 204 246 246 c 2,36,37
 246 246 246 246 246 266 c 256,38,39
 246 286 246 286 246 286 c 1,40,41
 192 286 192 286 82 286 c 1,42,43
 82 286 82 286 82 266 c 256,44,45
 82 246 82 246 82 246 c 2,28,29
EndSplineSet
Validated: 1
Substitution2: "Single Substitution lookup 27 subtable" glyph280
EndChar

StartChar: v.medi
Encoding: 65596 -1 41
Width: 452
GlyphClass: 2
Flags: W
LayerCount: 2
Fore
SplineSet
0 368 m 1,0,1
 82 368 82 368 204 368 c 0,2,3
 328 368 328 368 450 368 c 1,4,5
 450 368 450 368 450 328 c 0,6,7
 450 286 450 286 450 286 c 1,8,9
 410 286 410 286 368 286 c 0,10,11
 328 286 328 286 328 286 c 1,12,13
 328 164 328 164 286 122 c 0,14,15
 246 82 246 82 164 82 c 256,16,17
 82 82 82 82 40 122 c 0,18,19
 0 164 0 164 0 246 c 2,20,21
 0 246 0 246 0 266 c 256,22,23
 0 286 0 286 0 286 c 257,24,25
 0 286 0 286 0 328 c 0,26,27
 0 368 0 368 0 368 c 1,0,1
82 246 m 2,28,29
 82 204 82 204 102 184 c 256,30,31
 122 164 122 164 164 164 c 0,32,33
 204 164 204 164 226 184 c 0,34,35
 246 204 246 204 246 246 c 2,36,37
 246 246 246 246 246 266 c 256,38,39
 246 286 246 286 246 286 c 1,40,41
 204 286 204 286 164 286 c 0,42,43
 122 286 122 286 82 286 c 1,44,45
 82 286 82 286 82 266 c 256,46,47
 82 246 82 246 82 246 c 2,28,29
246 328 m 1,48,49
 266 328 266 328 328 328 c 1,50,51
 328 246 328 246 328 144 c 0,52,53
 328 40 328 40 328 0 c 256,54,55
 328 -40 328 -40 286 -40 c 0,56,57
 246 -40 246 -40 246 0 c 256,58,59
 246 40 246 40 246 144 c 0,60,61
 246 246 246 246 246 328 c 1,48,49
EndSplineSet
Validated: 5
Substitution2: "Single Substitution lookup 27 subtable" glyph284
EndChar

StartChar: b.isol
Encoding: 6186 6186 42
Width: 574
GlyphClass: 2
Flags: W
LayerCount: 2
Fore
SplineSet
0 368 m 1,0,1
 0 532 0 532 82 614 c 256,2,3
 164 696 164 696 328 696 c 256,4,5
 492 696 492 696 574 614 c 256,6,7
 656 532 656 532 656 368 c 2,8,9
 656 368 656 368 656 348 c 256,10,11
 656 328 656 328 656 328 c 2,12,13
 656 286 656 286 614 286 c 0,14,15
 574 286 574 286 574 328 c 2,16,17
 574 328 574 328 574 338 c 256,18,19
 574 348 574 348 574 368 c 0,20,21
 574 492 574 492 510 552 c 0,22,23
 446 614 446 614 328 614 c 0,24,25
 204 616 204 616 144 554 c 0,26,27
 82 492 82 492 82 368 c 1,28,29
 164 368 164 368 266 368 c 256,30,31
 368 368 368 368 450 368 c 1,32,33
 450 268 450 268 450 258 c 0,34,35
 450 246 450 246 450 246 c 2,36,37
 450 122 450 122 390 62 c 0,38,39
 328 0 328 0 246 0 c 0,40,41
 122 0 122 0 62 62 c 0,42,43
 0 122 0 122 0 246 c 1,44,45
 2 246 2 246 2 308 c 0,46,47
 2 368 2 368 0 368 c 1,0,1
82 246 m 2,48,49
 82 164 82 164 122 122 c 0,50,51
 164 82 164 82 246 82 c 0,52,53
 286 82 286 82 328 122 c 0,54,55
 368 164 368 164 368 246 c 2,56,57
 368 246 368 246 368 266 c 256,58,59
 368 286 368 286 368 286 c 1,60,61
 274 286 274 286 82 286 c 1,62,63
 82 286 82 286 82 266 c 256,64,65
 82 246 82 246 82 246 c 2,48,49
EndSplineSet
Validated: 33
Substitution2: "Single Substitution lookup 25 subtable" glyph286
Substitution2: "'fina' Terminal Forms in Mongolian lookup 2 subtable" b.fina
Substitution2: "'medi' Medial Forms in Mongolian lookup 1 subtable" b.medi
Substitution2: "Required Feature in Latin lookup 0 subtable" b.init
EndChar

StartChar: b.fina
Encoding: 65597 -1 43
Width: 656
GlyphClass: 2
Flags: W
LayerCount: 2
Fore
SplineSet
0 368 m 1,0,1
 0 532 0 532 82 614 c 256,2,3
 164 696 164 696 328 696 c 256,4,5
 492 696 492 696 574 614 c 256,6,7
 656 532 656 532 656 368 c 2,8,9
 656 368 656 368 656 348 c 256,10,11
 656 328 656 328 656 328 c 2,12,13
 656 286 656 286 614 286 c 0,14,15
 574 286 574 286 574 328 c 2,16,17
 574 328 574 328 574 338 c 256,18,19
 574 348 574 348 574 368 c 0,20,21
 574 492 574 492 510 552 c 0,22,23
 446 614 446 614 328 614 c 0,24,25
 204 616 204 616 144 554 c 0,26,27
 82 492 82 492 82 368 c 1,28,29
 164 368 164 368 266 368 c 256,30,31
 368 368 368 368 450 368 c 1,32,33
 450 268 450 268 450 258 c 0,34,35
 450 246 450 246 450 246 c 2,36,37
 450 122 450 122 390 62 c 0,38,39
 328 0 328 0 246 0 c 0,40,41
 122 0 122 0 62 62 c 0,42,43
 0 122 0 122 0 246 c 1,44,45
 2 246 2 246 2 308 c 0,46,47
 2 368 2 368 0 368 c 1,0,1
82 246 m 2,48,49
 82 164 82 164 122 122 c 0,50,51
 164 82 164 82 246 82 c 0,52,53
 286 82 286 82 328 122 c 0,54,55
 368 164 368 164 368 246 c 2,56,57
 368 246 368 246 368 266 c 256,58,59
 368 286 368 286 368 286 c 1,60,61
 274 286 274 286 82 286 c 1,62,63
 82 286 82 286 82 266 c 256,64,65
 82 246 82 246 82 246 c 2,48,49
656 40 m 0,66,67
 656 -122 656 -122 594 -204 c 256,68,69
 532 -286 532 -286 368 -286 c 0,70,71
 328 -286 328 -286 328 -246 c 0,72,73
 328 -204 328 -204 368 -204 c 0,74,75
 492 -204 492 -204 532 -144 c 0,76,77
 574 -82 574 -82 574 40 c 0,78,79
 574 86 574 86 574 146 c 0,80,81
 574 204 574 204 574 328 c 0,82,83
 574 368 574 368 614 368 c 0,84,85
 656 368 656 368 656 328 c 0,86,87
 656 286 656 286 656 184 c 256,88,89
 656 82 656 82 656 40 c 0,66,67
EndSplineSet
Validated: 37
EndChar

StartChar: b.medi
Encoding: 65598 -1 44
Width: 574
GlyphClass: 2
Flags: W
LayerCount: 2
Fore
SplineSet
0 368 m 1,0,1
 0 532 0 532 82 614 c 256,2,3
 164 696 164 696 328 696 c 256,4,5
 492 696 492 696 574 614 c 256,6,7
 656 532 656 532 656 368 c 2,8,9
 656 368 656 368 656 348 c 256,10,11
 656 328 656 328 656 328 c 2,12,13
 656 286 656 286 614 286 c 0,14,15
 574 286 574 286 574 328 c 2,16,17
 574 328 574 328 574 338 c 256,18,19
 574 348 574 348 574 368 c 0,20,21
 574 492 574 492 510 552 c 0,22,23
 446 614 446 614 328 614 c 0,24,25
 204 616 204 616 144 554 c 0,26,27
 82 492 82 492 82 368 c 1,28,29
 164 368 164 368 266 368 c 256,30,31
 368 368 368 368 450 368 c 1,32,33
 450 268 450 268 450 258 c 0,34,35
 450 246 450 246 450 246 c 2,36,37
 450 122 450 122 390 62 c 0,38,39
 328 0 328 0 246 0 c 0,40,41
 122 0 122 0 62 62 c 0,42,43
 0 122 0 122 0 246 c 1,44,45
 2 246 2 246 2 308 c 0,46,47
 2 368 2 368 0 368 c 1,0,1
82 246 m 2,48,49
 82 164 82 164 122 122 c 0,50,51
 164 82 164 82 246 82 c 0,52,53
 286 82 286 82 328 122 c 0,54,55
 368 164 368 164 368 246 c 2,56,57
 368 246 368 246 368 266 c 256,58,59
 368 286 368 286 368 286 c 1,60,61
 274 286 274 286 82 286 c 1,62,63
 82 286 82 286 82 266 c 256,64,65
 82 246 82 246 82 246 c 2,48,49
EndSplineSet
Validated: 33
Substitution2: "Single Substitution lookup 28 subtable" glyph337
Substitution2: "Single Substitution lookup 25 subtable" glyph287
EndChar

StartChar: p.isol
Encoding: 6246 6246 45
Width: 574
GlyphClass: 2
Flags: W
LayerCount: 2
Fore
SplineSet
0 368 m 1,0,1
 0 532 0 532 82 614 c 256,2,3
 164 696 164 696 328 696 c 256,4,5
 492 696 492 696 574 614 c 256,6,7
 656 532 656 532 656 368 c 2,8,9
 656 368 656 368 656 348 c 256,10,11
 656 328 656 328 656 328 c 2,12,13
 656 286 656 286 614 286 c 0,14,15
 574 286 574 286 574 328 c 2,16,17
 574 328 574 328 574 338 c 256,18,19
 574 348 574 348 574 368 c 0,20,21
 574 492 574 492 510 552 c 0,22,23
 446 614 446 614 328 614 c 0,24,25
 204 616 204 616 144 554 c 0,26,27
 82 492 82 492 82 368 c 1,28,29
 164 368 164 368 266 368 c 256,30,31
 368 368 368 368 450 368 c 1,32,33
 450 268 450 268 450 258 c 0,34,35
 450 246 450 246 450 246 c 2,36,37
 450 122 450 122 390 62 c 0,38,39
 328 0 328 0 246 0 c 0,40,41
 122 0 122 0 62 62 c 0,42,43
 0 122 0 122 0 246 c 1,44,45
 2 246 2 246 2 308 c 0,46,47
 2 368 2 368 0 368 c 1,0,1
82 246 m 2,48,49
 82 164 82 164 122 122 c 0,50,51
 164 82 164 82 246 82 c 0,52,53
 286 82 286 82 328 122 c 0,54,55
 368 164 368 164 368 246 c 2,56,57
 368 246 368 246 368 266 c 256,58,59
 368 286 368 286 368 286 c 1,60,61
 274 286 274 286 82 286 c 1,62,63
 82 286 82 286 82 266 c 256,64,65
 82 246 82 246 82 246 c 2,48,49
286 656 m 1,66,67
 308 656 308 656 368 656 c 1,68,69
 368 624 368 624 368 532 c 0,70,71
 368 492 368 492 328 492 c 0,72,73
 286 492 286 492 286 532 c 0,74,75
 286 574 286 574 286 656 c 1,66,67
EndSplineSet
Validated: 37
Substitution2: "Single Substitution lookup 25 subtable" glyph288
Substitution2: "'fina' Terminal Forms in Mongolian lookup 2 subtable" p.fina
Substitution2: "'medi' Medial Forms in Mongolian lookup 1 subtable" p.medi
Substitution2: "Required Feature in Latin lookup 0 subtable" p.init
EndChar

StartChar: p.medi
Encoding: 65599 -1 46
Width: 574
GlyphClass: 2
Flags: W
LayerCount: 2
Fore
SplineSet
0 368 m 1,0,1
 0 532 0 532 82 614 c 256,2,3
 164 696 164 696 328 696 c 256,4,5
 492 696 492 696 574 614 c 256,6,7
 656 532 656 532 656 368 c 2,8,9
 656 368 656 368 656 348 c 256,10,11
 656 328 656 328 656 328 c 2,12,13
 656 286 656 286 614 286 c 0,14,15
 574 286 574 286 574 328 c 2,16,17
 574 328 574 328 574 338 c 256,18,19
 574 348 574 348 574 368 c 0,20,21
 574 492 574 492 510 552 c 0,22,23
 446 614 446 614 328 614 c 0,24,25
 204 616 204 616 144 554 c 0,26,27
 82 492 82 492 82 368 c 1,28,29
 164 368 164 368 266 368 c 256,30,31
 368 368 368 368 450 368 c 1,32,33
 450 268 450 268 450 258 c 0,34,35
 450 246 450 246 450 246 c 2,36,37
 450 122 450 122 390 62 c 0,38,39
 328 0 328 0 246 0 c 0,40,41
 122 0 122 0 62 62 c 0,42,43
 0 122 0 122 0 246 c 1,44,45
 2 246 2 246 2 308 c 0,46,47
 2 368 2 368 0 368 c 1,0,1
82 246 m 2,48,49
 82 164 82 164 122 122 c 0,50,51
 164 82 164 82 246 82 c 0,52,53
 286 82 286 82 328 122 c 0,54,55
 368 164 368 164 368 246 c 2,56,57
 368 246 368 246 368 266 c 256,58,59
 368 286 368 286 368 286 c 1,60,61
 274 286 274 286 82 286 c 1,62,63
 82 286 82 286 82 266 c 256,64,65
 82 246 82 246 82 246 c 2,48,49
286 656 m 1,66,67
 308 656 308 656 368 656 c 1,68,69
 368 624 368 624 368 532 c 0,70,71
 368 492 368 492 328 492 c 0,72,73
 286 492 286 492 286 532 c 0,74,75
 286 574 286 574 286 656 c 1,66,67
EndSplineSet
Validated: 37
Substitution2: "Single Substitution lookup 25 subtable" glyph289
EndChar

StartChar: m.isol
Encoding: 6190 6190 47
Width: 452
GlyphClass: 2
Flags: W
LayerCount: 2
Fore
SplineSet
0 696 m 0,0,1
 164 696 164 696 246 614 c 256,2,3
 328 532 328 532 328 368 c 1,4,5
 368 368 368 368 390 368 c 0,6,7
 410 368 410 368 450 368 c 1,8,9
 450 368 450 368 450 328 c 0,10,11
 450 286 450 286 450 286 c 1,12,13
 410 286 410 286 390 286 c 256,14,15
 370 286 370 286 328 286 c 1,16,17
 328 246 328 246 328 246 c 257,18,19
 328 246 328 246 328 204 c 0,20,21
 328 164 328 164 286 164 c 0,22,23
 246 164 246 164 246 204 c 0,24,25
 246 246 246 246 246 246 c 257,26,27
 246 246 246 246 246 368 c 0,28,29
 246 492 246 492 184 552 c 0,30,31
 122 614 122 614 0 614 c 0,32,33
 -40 614 -40 614 -40 656 c 0,34,35
 -40 696 -40 696 0 696 c 0,0,1
410 860 m 0,36,37
 368 860 368 860 348 840 c 256,38,39
 328 820 328 820 328 778 c 2,40,41
 328 778 328 778 328 562 c 256,42,43
 328 346 328 346 328 328 c 0,44,45
 328 286 328 286 286 286 c 0,46,47
 246 286 246 286 246 328 c 0,48,49
 246 366 246 366 246 552 c 256,50,51
 246 738 246 738 246 778 c 0,52,53
 246 860 246 860 286 902 c 0,54,55
 328 942 328 942 410 942 c 0,56,57
 450 942 450 942 450 902 c 0,58,59
 450 860 450 860 410 860 c 0,36,37
EndSplineSet
Validated: 5
Substitution2: "'fina' Terminal Forms in Mongolian lookup 2 subtable" m.fina
Substitution2: "'medi' Medial Forms in Mongolian lookup 1 subtable" m.medi
Substitution2: "Required Feature in Latin lookup 0 subtable" m.init
EndChar

StartChar: m.fina
Encoding: 65600 -1 48
Width: 492
GlyphClass: 2
Flags: W
LayerCount: 2
Fore
SplineSet
0 368 m 1,0,1
 122 368 122 368 108 368 c 0,2,3
 92 368 92 368 164 368 c 0,4,5
 286 368 286 368 348 430 c 256,6,7
 410 492 410 492 410 614 c 0,8,9
 410 738 410 738 348 798 c 0,10,11
 286 860 286 860 164 860 c 0,12,13
 122 860 122 860 122 902 c 0,14,15
 122 942 122 942 164 942 c 0,16,17
 328 942 328 942 410 860 c 256,18,19
 492 778 492 778 492 614 c 256,20,21
 492 450 492 450 410 368 c 256,22,23
 328 286 328 286 164 286 c 0,24,25
 92 286 92 286 108 286 c 0,26,27
 122 286 122 286 0 286 c 1,28,29
 0 328 0 328 0 348 c 256,30,31
 0 368 0 368 0 368 c 1,0,1
0 532 m 0,32,33
 0 614 0 614 40 656 c 0,34,35
 82 696 82 696 164 696 c 0,36,37
 204 696 204 696 204 656 c 0,38,39
 204 614 204 614 164 614 c 0,40,41
 122 614 122 614 102 594 c 256,42,43
 82 574 82 574 82 532 c 0,44,45
 82 410 82 410 82 450 c 0,46,47
 82 492 82 492 82 328 c 0,48,49
 82 286 82 286 40 286 c 0,50,51
 0 286 0 286 0 328 c 0,52,53
 0 410 0 410 0 390 c 0,54,55
 0 368 0 368 0 532 c 0,32,33
EndSplineSet
Validated: 37
EndChar

StartChar: m.medi
Encoding: 65601 -1 49
Width: 206
GlyphClass: 2
Flags: W
LayerCount: 2
Fore
SplineSet
0 368 m 1,0,1
 40 368 40 368 102 368 c 256,2,3
 164 368 164 368 204 368 c 1,4,5
 204 356 204 356 204 342 c 256,6,7
 204 328 204 328 204 286 c 1,8,9
 164 286 164 286 136 286 c 256,10,11
 108 286 108 286 82 286 c 1,12,13
 82 286 82 286 82 266 c 256,14,15
 82 246 82 246 82 204 c 0,16,17
 82 164 82 164 40 164 c 0,18,19
 0 164 0 164 0 204 c 0,20,21
 0 246 0 246 0 246 c 257,22,23
 0 246 0 246 0 286 c 0,24,25
 0 328 0 328 0 328 c 257,26,27
 0 328 0 328 0 368 c 1,0,1
0 778 m 0,28,29
 0 860 0 860 40 902 c 0,30,31
 82 942 82 942 164 942 c 0,32,33
 204 942 204 942 204 902 c 0,34,35
 204 860 204 860 164 860 c 0,36,37
 122 860 122 860 102 840 c 256,38,39
 82 820 82 820 82 778 c 0,40,41
 82 696 82 696 82 594 c 256,42,43
 82 492 82 492 82 286 c 1,44,45
 82 286 82 286 82 328 c 1,46,47
 82 368 82 368 82 328 c 1,48,49
 82 286 82 286 40 286 c 0,50,51
 0 286 0 286 0 328 c 0,52,53
 0 368 0 368 0 308 c 0,54,55
 0 246 0 246 0 286 c 2,56,57
 0 286 0 286 0 390 c 0,58,59
 0 492 0 492 0 778 c 0,28,29
EndSplineSet
Validated: 5
Substitution2: "Single Substitution lookup 26 subtable" glyph320
EndChar

StartChar: f.isol
Encoding: 6262 6262 50
Width: 328
GlyphClass: 2
Flags: W
LayerCount: 2
Fore
SplineSet
122 368 m 1,0,1
 164 368 164 368 226 368 c 0,2,3
 286 368 286 368 328 368 c 1,4,5
 328 328 328 328 328 328 c 257,6,7
 328 328 328 328 328 286 c 1,8,9
 286 286 286 286 256 286 c 256,10,11
 226 286 226 286 204 286 c 1,12,13
 204 246 204 246 204 102 c 0,14,15
 204 -40 204 -40 204 -122 c 0,16,17
 204 -164 204 -164 226 -184 c 0,18,19
 246 -204 246 -204 286 -204 c 0,20,21
 328 -204 328 -204 328 -204 c 257,22,23
 328 -204 328 -204 328 -204 c 1,24,25
 368 -204 368 -204 368 -246 c 0,26,27
 368 -286 368 -286 328 -286 c 0,28,29
 286 -286 286 -286 286 -286 c 257,30,31
 286 -286 286 -286 286 -286 c 1,32,33
 204 -286 204 -286 164 -246 c 0,34,35
 122 -204 122 -204 122 -122 c 0,36,37
 122 76 122 76 122 152 c 0,38,39
 122 226 122 226 122 368 c 1,0,1
0 696 m 2,40,41
 0 696 0 696 20 696 c 256,42,43
 40 696 40 696 40 696 c 2,44,45
 122 696 122 696 164 652 c 0,46,47
 204 608 204 608 204 532 c 2,48,49
 204 532 204 532 204 450 c 256,50,51
 204 368 204 368 204 328 c 0,52,53
 204 286 204 286 164 286 c 0,54,55
 122 286 122 286 122 328 c 0,56,57
 122 368 122 368 122 430 c 256,58,59
 122 492 122 492 122 532 c 0,60,61
 122 560 122 560 102 586 c 0,62,63
 82 614 82 614 40 614 c 2,64,65
 40 614 40 614 20 614 c 256,66,67
 0 614 0 614 0 614 c 2,68,69
 -40 614 -40 614 -40 656 c 0,70,71
 -40 696 -40 696 0 696 c 2,40,41
EndSplineSet
Validated: 5
Substitution2: "'fina' Terminal Forms in Mongolian lookup 2 subtable" f.fina
Substitution2: "'medi' Medial Forms in Mongolian lookup 1 subtable" f.medi
Substitution2: "Required Feature in Latin lookup 0 subtable" f.init
EndChar

StartChar: f1.init
Encoding: 65602 -1 51
Width: 206
GlyphClass: 2
Flags: W
LayerCount: 2
Fore
SplineSet
0 368 m 1,0,1
 40 368 40 368 102 368 c 256,2,3
 164 368 164 368 204 368 c 1,4,5
 204 328 204 328 204 328 c 257,6,7
 204 328 204 328 204 286 c 1,8,9
 164 286 164 286 134 286 c 0,10,11
 102 286 102 286 82 286 c 1,12,13
 82 246 82 246 82 102 c 0,14,15
 82 -40 82 -40 82 -122 c 0,16,17
 82 -164 82 -164 102 -184 c 256,18,19
 122 -204 122 -204 164 -204 c 0,20,21
 204 -204 204 -204 204 -204 c 257,22,23
 204 -204 204 -204 204 -204 c 1,24,25
 246 -204 246 -204 246 -246 c 0,26,27
 246 -286 246 -286 204 -286 c 0,28,29
 164 -286 164 -286 164 -286 c 257,30,31
 164 -286 164 -286 164 -286 c 1,32,33
 82 -286 82 -286 40 -246 c 0,34,35
 0 -204 0 -204 0 -122 c 0,36,37
 0 76 0 76 0 152 c 0,38,39
 0 226 0 226 0 368 c 1,0,1
EndSplineSet
Validated: 5
EndChar

StartChar: glyph183
Encoding: 65603 -1 52
Width: 206
GlyphClass: 2
Flags: W
LayerCount: 2
Fore
SplineSet
0 368 m 1,0,1
 40 368 40 368 102 368 c 256,2,3
 164 368 164 368 204 368 c 1,4,5
 204 328 204 328 204 328 c 257,6,7
 204 328 204 328 204 286 c 1,8,9
 164 286 164 286 134 286 c 0,10,11
 102 286 102 286 82 286 c 1,12,13
 82 246 82 246 82 102 c 0,14,15
 82 -40 82 -40 82 -122 c 0,16,17
 82 -164 82 -164 102 -184 c 256,18,19
 122 -204 122 -204 164 -204 c 0,20,21
 204 -204 204 -204 204 -204 c 257,22,23
 204 -204 204 -204 204 -204 c 1,24,25
 246 -204 246 -204 246 -246 c 0,26,27
 246 -286 246 -286 204 -286 c 0,28,29
 164 -286 164 -286 164 -286 c 257,30,31
 164 -286 164 -286 164 -286 c 1,32,33
 82 -286 82 -286 40 -246 c 0,34,35
 0 -204 0 -204 0 -122 c 0,36,37
 0 76 0 76 0 152 c 0,38,39
 0 226 0 226 0 368 c 1,0,1
0 656 m 1,40,41
 0 656 0 656 0 656 c 257,42,43
 0 656 0 656 0 656 c 1,44,45
 82 656 82 656 122 610 c 0,46,47
 164 566 164 566 164 492 c 2,48,49
 164 492 164 492 164 450 c 0,50,51
 164 410 164 410 164 368 c 0,52,53
 164 328 164 328 122 328 c 0,54,55
 82 328 82 328 82 368 c 0,56,57
 82 410 82 410 82 430 c 256,58,59
 82 450 82 450 82 492 c 0,60,61
 82 518 82 518 62 546 c 0,62,63
 40 574 40 574 0 574 c 1,64,65
 0 574 0 574 0 574 c 257,66,67
 0 574 0 574 0 574 c 1,68,69
 -40 574 -40 574 -40 614 c 0,70,71
 -40 656 -40 656 0 656 c 1,40,41
EndSplineSet
Validated: 5
Substitution2: "Single Substitution lookup 26 subtable" glyph334
EndChar

StartChar: f.medi
Encoding: 65604 -1 53
Width: 206
GlyphClass: 2
Flags: W
LayerCount: 2
Fore
SplineSet
0 368 m 1,0,1
 40 368 40 368 102 368 c 256,2,3
 164 368 164 368 204 368 c 1,4,5
 204 328 204 328 204 328 c 257,6,7
 204 328 204 328 204 286 c 1,8,9
 164 286 164 286 134 286 c 0,10,11
 102 286 102 286 82 286 c 1,12,13
 82 246 82 246 82 102 c 0,14,15
 82 -40 82 -40 82 -122 c 0,16,17
 82 -164 82 -164 102 -184 c 256,18,19
 122 -204 122 -204 164 -204 c 0,20,21
 204 -204 204 -204 204 -204 c 257,22,23
 204 -204 204 -204 204 -204 c 1,24,25
 246 -204 246 -204 246 -246 c 0,26,27
 246 -286 246 -286 204 -286 c 0,28,29
 164 -286 164 -286 164 -286 c 257,30,31
 164 -286 164 -286 164 -286 c 1,32,33
 82 -286 82 -286 40 -246 c 0,34,35
 0 -204 0 -204 0 -122 c 0,36,37
 0 76 0 76 0 152 c 0,38,39
 0 226 0 226 0 368 c 1,0,1
0 656 m 1,40,41
 0 656 0 656 0 656 c 257,42,43
 0 656 0 656 0 656 c 1,44,45
 82 656 82 656 122 610 c 0,46,47
 164 566 164 566 164 492 c 2,48,49
 164 492 164 492 164 450 c 0,50,51
 164 410 164 410 164 368 c 0,52,53
 164 328 164 328 122 328 c 0,54,55
 82 328 82 328 82 368 c 0,56,57
 82 410 82 410 82 430 c 256,58,59
 82 450 82 450 82 492 c 0,60,61
 82 518 82 518 62 546 c 0,62,63
 40 574 40 574 0 574 c 1,64,65
 0 574 0 574 0 574 c 257,66,67
 0 574 0 574 0 574 c 1,68,69
 -40 574 -40 574 -40 614 c 0,70,71
 -40 656 -40 656 0 656 c 1,40,41
EndSplineSet
Validated: 5
Substitution2: "Single Substitution lookup 6 subtable" f1.medi
EndChar

StartChar: f1.medi
Encoding: 65605 -1 54
Width: 206
GlyphClass: 2
Flags: W
LayerCount: 2
Fore
SplineSet
0 368 m 1,0,1
 40 368 40 368 102 368 c 256,2,3
 164 368 164 368 204 368 c 1,4,5
 204 328 204 328 204 328 c 257,6,7
 204 328 204 328 204 286 c 1,8,9
 164 286 164 286 134 286 c 0,10,11
 102 286 102 286 82 286 c 1,12,13
 82 246 82 246 82 102 c 0,14,15
 82 -40 82 -40 82 -122 c 0,16,17
 82 -164 82 -164 102 -184 c 256,18,19
 122 -204 122 -204 164 -204 c 0,20,21
 204 -204 204 -204 204 -204 c 257,22,23
 204 -204 204 -204 204 -204 c 1,24,25
 246 -204 246 -204 246 -246 c 0,26,27
 246 -286 246 -286 204 -286 c 0,28,29
 164 -286 164 -286 164 -286 c 257,30,31
 164 -286 164 -286 164 -286 c 1,32,33
 82 -286 82 -286 40 -246 c 0,34,35
 0 -204 0 -204 0 -122 c 0,36,37
 0 76 0 76 0 152 c 0,38,39
 0 226 0 226 0 368 c 1,0,1
EndSplineSet
Validated: 5
Substitution2: "Single Substitution lookup 26 subtable" glyph336
EndChar

StartChar: d.isol
Encoding: 6249 6249 55
Width: 614
GlyphClass: 2
Flags: W
LayerCount: 2
Fore
SplineSet
246 656 m 0,0,1
 358 656 358 656 424 594 c 0,2,3
 492 532 492 532 492 410 c 2,4,5
 492 410 492 410 492 390 c 0,6,7
 492 368 492 368 492 368 c 1,8,9
 614 368 614 368 578 368 c 256,10,11
 542 368 542 368 614 368 c 1,12,13
 614 368 614 368 614 348 c 256,14,15
 614 328 614 328 614 286 c 1,16,17
 542 286 542 286 578 286 c 256,18,19
 614 286 614 286 492 286 c 1,20,21
 492 246 492 246 492 246 c 257,22,23
 492 246 492 246 492 204 c 0,24,25
 492 164 492 164 450 164 c 0,26,27
 410 164 410 164 410 204 c 0,28,29
 410 246 410 246 410 226 c 0,30,31
 410 204 410 204 410 286 c 1,32,33
 328 286 328 286 266 286 c 256,34,35
 204 286 204 286 82 286 c 0,36,37
 40 286 40 286 20 308 c 0,38,39
 0 328 0 328 0 368 c 0,40,41
 0 390 0 390 0 400 c 256,42,43
 0 410 0 410 0 410 c 2,44,45
 0 532 0 532 62 594 c 0,46,47
 122 656 122 656 246 656 c 0,0,1
82 410 m 2,48,49
 82 410 82 410 82 390 c 0,50,51
 82 368 82 368 82 368 c 1,52,53
 122 368 122 368 242 368 c 0,54,55
 360 368 360 368 410 368 c 1,56,57
 410 410 410 410 410 410 c 257,58,59
 410 410 410 410 410 410 c 1,60,61
 410 492 410 492 364 532 c 0,62,63
 318 574 318 574 246 574 c 0,64,65
 164 574 164 574 122 532 c 0,66,67
 82 492 82 492 82 410 c 2,48,49
616 592 m 0,68,69
 608 582 608 582 596 578 c 0,70,71
 586 574 586 574 574 574 c 256,72,73
 562 574 562 574 550 578 c 256,74,75
 538 582 538 582 530 592 c 0,76,77
 522 600 522 600 516 612 c 0,78,79
 512 622 512 622 512 634 c 256,80,81
 512 646 512 646 516 658 c 0,82,83
 522 670 522 670 530 678 c 256,84,85
 538 686 538 686 550 692 c 0,86,87
 562 696 562 696 574 696 c 256,88,89
 586 696 586 696 596 692 c 0,90,91
 608 686 608 686 616 678 c 0,92,93
 626 670 626 670 630 658 c 0,94,95
 636 646 636 646 636 634 c 256,96,97
 636 622 636 622 630 612 c 0,98,99
 626 600 626 600 616 592 c 0,68,69
EndSplineSet
Validated: 37
Substitution2: "'fina' Terminal Forms in Mongolian lookup 2 subtable" d.fina
Substitution2: "'medi' Medial Forms in Mongolian lookup 1 subtable" d.medi
Substitution2: "Required Feature in Latin lookup 0 subtable" d.init
EndChar

StartChar: d1.init
Encoding: 65606 -1 56
Width: 656
GlyphClass: 2
Flags: W
LayerCount: 2
Fore
SplineSet
328 656 m 0,0,1
 410 656 410 656 472 594 c 0,2,3
 532 532 532 532 532 410 c 2,4,5
 532 410 532 410 532 390 c 0,6,7
 532 368 532 368 532 368 c 1,8,9
 656 368 656 368 620 368 c 256,10,11
 584 368 584 368 656 368 c 1,12,13
 656 368 656 368 656 348 c 256,14,15
 656 328 656 328 656 286 c 1,16,17
 584 286 584 286 620 286 c 256,18,19
 656 286 656 286 532 286 c 1,20,21
 532 246 532 246 532 246 c 257,22,23
 532 246 532 246 532 204 c 0,24,25
 532 164 532 164 492 164 c 0,26,27
 450 164 450 164 450 204 c 0,28,29
 450 246 450 246 450 226 c 0,30,31
 450 204 450 204 450 286 c 1,32,33
 368 286 368 286 246 286 c 0,34,35
 122 286 122 286 0 286 c 0,36,37
 -40 286 -40 286 -40 328 c 0,38,39
 -40 368 -40 368 0 368 c 2,40,41
 0 368 0 368 62 368 c 0,42,43
 122 368 122 368 122 368 c 1,44,45
 122 410 122 410 122 410 c 257,46,47
 122 410 122 410 122 410 c 1,48,49
 122 492 122 492 164 574 c 0,50,51
 204 656 204 656 328 656 c 0,0,1
204 410 m 2,52,53
 204 410 204 410 204 390 c 0,54,55
 204 368 204 368 204 368 c 1,56,57
 246 368 246 368 322 368 c 0,58,59
 400 368 400 368 450 368 c 1,60,61
 450 410 450 410 450 410 c 257,62,63
 450 410 450 410 450 410 c 1,64,65
 450 492 450 492 410 532 c 0,66,67
 368 574 368 574 328 574 c 0,68,69
 246 574 246 574 226 512 c 0,70,71
 204 450 204 450 204 410 c 2,52,53
658 592 m 0,72,73
 650 582 650 582 638 578 c 256,74,75
 626 574 626 574 614 574 c 256,76,77
 602 574 602 574 590 578 c 0,78,79
 580 582 580 582 570 592 c 0,80,81
 562 600 562 600 558 612 c 0,82,83
 552 622 552 622 552 634 c 256,84,85
 552 646 552 646 558 658 c 0,86,87
 562 670 562 670 570 678 c 0,88,89
 580 686 580 686 590 692 c 0,90,91
 602 696 602 696 614 696 c 256,92,93
 626 696 626 696 638 692 c 0,94,95
 650 686 650 686 658 678 c 256,96,97
 666 670 666 670 672 658 c 0,98,99
 676 646 676 646 676 634 c 256,100,101
 676 622 676 622 672 612 c 0,102,103
 666 600 666 600 658 592 c 0,72,73
EndSplineSet
Validated: 37
EndChar

StartChar: d.medi
Encoding: 65607 -1 57
Width: 246
GlyphClass: 2
Flags: W
LayerCount: 2
Fore
SplineSet
0 368 m 1,0,1
 40 368 40 368 122 368 c 256,2,3
 204 368 204 368 246 368 c 1,4,5
 246 328 246 328 246 328 c 257,6,7
 246 328 246 328 246 286 c 1,8,9
 204 286 204 286 154 286 c 0,10,11
 102 286 102 286 82 286 c 1,12,13
 82 276 82 276 82 118 c 256,14,15
 82 -40 82 -40 82 -82 c 1,16,17
 82 -82 82 -82 102 -82 c 256,18,19
 122 -82 122 -82 122 -82 c 2,20,21
 204 -82 204 -82 246 -122 c 0,22,23
 286 -164 286 -164 286 -246 c 256,24,25
 286 -328 286 -328 246 -368 c 0,26,27
 204 -410 204 -410 122 -410 c 0,28,29
 104 -410 104 -410 98 -410 c 256,30,31
 92 -410 92 -410 82 -410 c 0,32,33
 40 -410 40 -410 20 -390 c 0,34,35
 0 -368 0 -368 0 -328 c 0,36,37
 0 -164 0 -164 0 32 c 0,38,39
 0 226 0 226 0 368 c 1,0,1
82 -164 m 1,40,41
 82 -204 82 -204 82 -328 c 1,42,43
 92 -328 92 -328 122 -328 c 0,44,45
 162 -328 162 -328 184 -308 c 0,46,47
 204 -286 204 -286 204 -246 c 0,48,49
 204 -204 204 -204 184 -184 c 256,50,51
 164 -164 164 -164 122 -164 c 0,52,53
 110 -164 110 -164 82 -164 c 1,40,41
84 592 m 0,54,55
 76 582 76 582 64 578 c 256,56,57
 52 574 52 574 40 574 c 0,58,59
 30 574 30 574 18 578 c 256,60,61
 6 582 6 582 -2 592 c 0,62,63
 -10 600 -10 600 -16 612 c 0,64,65
 -20 622 -20 622 -20 634 c 256,66,67
 -20 646 -20 646 -16 658 c 0,68,69
 -10 670 -10 670 -2 678 c 256,70,71
 6 686 6 686 18 692 c 0,72,73
 30 696 30 696 40 696 c 0,74,75
 52 696 52 696 64 692 c 0,76,77
 76 686 76 686 84 678 c 256,78,79
 92 670 92 670 98 658 c 0,80,81
 102 646 102 646 102 634 c 256,82,83
 102 622 102 622 98 612 c 0,84,85
 92 600 92 600 84 592 c 0,54,55
EndSplineSet
Validated: 1
Substitution2: "Single Substitution lookup 26 subtable" glyph329
Substitution2: "Single Substitution lookup 6 subtable" d1.medi
EndChar

StartChar: d1.medi
Encoding: 65608 -1 58
Width: 246
GlyphClass: 2
Flags: W
LayerCount: 2
Fore
SplineSet
0 368 m 1,0,1
 40 368 40 368 122 368 c 256,2,3
 204 368 204 368 246 368 c 1,4,5
 246 328 246 328 246 328 c 257,6,7
 246 328 246 328 246 286 c 1,8,9
 204 286 204 286 154 286 c 0,10,11
 102 286 102 286 82 286 c 1,12,13
 82 276 82 276 82 220 c 256,14,15
 82 164 82 164 82 122 c 1,16,17
 82 122 82 122 102 122 c 256,18,19
 122 122 122 122 122 122 c 2,20,21
 204 122 204 122 246 82 c 0,22,23
 286 40 286 40 286 -40 c 0,24,25
 286 -122 286 -122 246 -164 c 0,26,27
 204 -204 204 -204 122 -204 c 0,28,29
 104 -204 104 -204 98 -204 c 256,30,31
 92 -204 92 -204 82 -204 c 1,32,33
 82 -228 82 -228 82 -278 c 256,34,35
 82 -328 82 -328 82 -328 c 2,36,37
 82 -368 82 -368 40 -368 c 0,38,39
 0 -368 0 -368 0 -328 c 0,40,41
 0 -164 0 -164 0 32 c 0,42,43
 0 226 0 226 0 368 c 1,0,1
82 40 m 1,44,45
 82 0 82 0 82 -122 c 1,46,47
 92 -122 92 -122 122 -122 c 0,48,49
 162 -122 162 -122 184 -102 c 0,50,51
 204 -82 204 -82 204 -40 c 0,52,53
 204 0 204 0 184 20 c 256,54,55
 164 40 164 40 122 40 c 0,56,57
 110 40 110 40 82 40 c 1,44,45
84 592 m 0,58,59
 76 582 76 582 64 578 c 256,60,61
 52 574 52 574 40 574 c 0,62,63
 30 574 30 574 18 578 c 256,64,65
 6 582 6 582 -2 592 c 0,66,67
 -10 600 -10 600 -16 612 c 0,68,69
 -20 622 -20 622 -20 634 c 256,70,71
 -20 646 -20 646 -16 658 c 0,72,73
 -10 670 -10 670 -2 678 c 256,74,75
 6 686 6 686 18 692 c 0,76,77
 30 696 30 696 40 696 c 0,78,79
 52 696 52 696 64 692 c 0,80,81
 76 686 76 686 84 678 c 256,82,83
 92 670 92 670 98 658 c 0,84,85
 102 646 102 646 102 634 c 256,86,87
 102 622 102 622 98 612 c 0,88,89
 92 600 92 600 84 592 c 0,58,59
EndSplineSet
Validated: 1
Substitution2: "Single Substitution lookup 26 subtable" glyph330
EndChar

StartChar: t.isol
Encoding: 6248 6248 59
Width: 614
GlyphClass: 2
Flags: W
LayerCount: 2
Fore
SplineSet
246 656 m 0,0,1
 358 656 358 656 424 594 c 0,2,3
 492 532 492 532 492 410 c 2,4,5
 492 410 492 410 492 390 c 0,6,7
 492 368 492 368 492 368 c 1,8,9
 614 368 614 368 578 368 c 256,10,11
 542 368 542 368 614 368 c 1,12,13
 614 368 614 368 614 348 c 256,14,15
 614 328 614 328 614 286 c 1,16,17
 542 286 542 286 578 286 c 256,18,19
 614 286 614 286 492 286 c 1,20,21
 492 246 492 246 492 246 c 257,22,23
 492 246 492 246 492 204 c 0,24,25
 492 164 492 164 450 164 c 0,26,27
 410 164 410 164 410 204 c 0,28,29
 410 246 410 246 410 226 c 0,30,31
 410 204 410 204 410 286 c 1,32,33
 328 286 328 286 266 286 c 256,34,35
 204 286 204 286 82 286 c 0,36,37
 40 286 40 286 20 308 c 0,38,39
 0 328 0 328 0 368 c 0,40,41
 0 390 0 390 0 400 c 256,42,43
 0 410 0 410 0 410 c 2,44,45
 0 532 0 532 62 594 c 0,46,47
 122 656 122 656 246 656 c 0,0,1
82 410 m 2,48,49
 82 410 82 410 82 390 c 0,50,51
 82 368 82 368 82 368 c 1,52,53
 122 368 122 368 242 368 c 0,54,55
 360 368 360 368 410 368 c 1,56,57
 410 410 410 410 410 410 c 257,58,59
 410 410 410 410 410 410 c 1,60,61
 410 492 410 492 364 532 c 0,62,63
 318 574 318 574 246 574 c 0,64,65
 164 574 164 574 122 532 c 0,66,67
 82 492 82 492 82 410 c 2,48,49
EndSplineSet
Validated: 37
Substitution2: "'fina' Terminal Forms in Mongolian lookup 2 subtable" t.fina
Substitution2: "'medi' Medial Forms in Mongolian lookup 1 subtable" t.medi
Substitution2: "Required Feature in Latin lookup 0 subtable" t.init
EndChar

StartChar: t1.init
Encoding: 65609 -1 60
Width: 656
GlyphClass: 2
Flags: W
LayerCount: 2
Fore
SplineSet
328 656 m 0,0,1
 410 656 410 656 472 594 c 0,2,3
 532 532 532 532 532 410 c 2,4,5
 532 410 532 410 532 390 c 0,6,7
 532 368 532 368 532 368 c 1,8,9
 656 368 656 368 620 368 c 256,10,11
 584 368 584 368 656 368 c 1,12,13
 656 368 656 368 656 348 c 256,14,15
 656 328 656 328 656 286 c 1,16,17
 584 286 584 286 620 286 c 256,18,19
 656 286 656 286 532 286 c 1,20,21
 532 246 532 246 532 246 c 257,22,23
 532 246 532 246 532 204 c 0,24,25
 532 164 532 164 492 164 c 0,26,27
 450 164 450 164 450 204 c 0,28,29
 450 246 450 246 450 226 c 0,30,31
 450 204 450 204 450 286 c 1,32,33
 368 286 368 286 246 286 c 0,34,35
 122 286 122 286 0 286 c 0,36,37
 -40 286 -40 286 -40 328 c 0,38,39
 -40 368 -40 368 0 368 c 2,40,41
 0 368 0 368 62 368 c 0,42,43
 122 368 122 368 122 368 c 1,44,45
 122 410 122 410 122 410 c 257,46,47
 122 410 122 410 122 410 c 1,48,49
 122 492 122 492 164 574 c 0,50,51
 204 656 204 656 328 656 c 0,0,1
204 410 m 2,52,53
 204 410 204 410 204 390 c 0,54,55
 204 368 204 368 204 368 c 1,56,57
 246 368 246 368 322 368 c 0,58,59
 400 368 400 368 450 368 c 1,60,61
 450 410 450 410 450 410 c 257,62,63
 450 410 450 410 450 410 c 1,64,65
 450 492 450 492 410 532 c 0,66,67
 368 574 368 574 328 574 c 0,68,69
 246 574 246 574 226 512 c 0,70,71
 204 450 204 450 204 410 c 2,52,53
EndSplineSet
Validated: 37
EndChar

StartChar: t.fina
Encoding: 65610 -1 61
Width: 778
GlyphClass: 2
Flags: W
LayerCount: 2
Fore
SplineSet
0 368 m 1,0,1
 82 368 82 368 204 368 c 0,2,3
 328 368 328 368 450 368 c 0,4,5
 492 368 492 368 492 328 c 0,6,7
 492 286 492 286 450 286 c 0,8,9
 424 286 424 286 376 286 c 256,10,11
 328 286 328 286 328 286 c 257,12,13
 328 286 328 286 328 266 c 256,14,15
 328 246 328 246 328 246 c 2,16,17
 328 164 328 164 286 122 c 0,18,19
 246 82 246 82 164 82 c 256,20,21
 82 82 82 82 40 122 c 0,22,23
 0 164 0 164 0 246 c 1,24,25
 2 246 2 246 0 292 c 0,26,27
 0 336 0 336 0 368 c 1,0,1
82 246 m 2,28,29
 82 204 82 204 102 184 c 256,30,31
 122 164 122 164 164 164 c 0,32,33
 204 164 204 164 226 184 c 0,34,35
 246 204 246 204 246 246 c 2,36,37
 246 246 246 246 246 266 c 256,38,39
 246 286 246 286 246 286 c 1,40,41
 192 286 192 286 82 286 c 1,42,43
 82 286 82 286 82 266 c 256,44,45
 82 246 82 246 82 246 c 2,28,29
450 368 m 0,46,47
 574 368 574 368 634 430 c 0,48,49
 696 492 696 492 696 614 c 0,50,51
 696 738 696 738 634 798 c 0,52,53
 574 860 574 860 450 860 c 0,54,55
 410 860 410 860 410 902 c 0,56,57
 410 942 410 942 450 942 c 0,58,59
 614 942 614 942 696 860 c 256,60,61
 778 778 778 778 778 614 c 256,62,63
 778 450 778 450 696 368 c 256,64,65
 614 286 614 286 450 286 c 0,66,67
 410 286 410 286 410 328 c 0,68,69
 410 368 410 368 450 368 c 0,46,47
EndSplineSet
Validated: 5
EndChar

StartChar: t2.medi
Encoding: 65611 -1 62
Width: 246
GlyphClass: 2
Flags: W
LayerCount: 2
Fore
SplineSet
0 368 m 1,0,1
 40 368 40 368 122 368 c 256,2,3
 204 368 204 368 246 368 c 1,4,5
 246 328 246 328 246 328 c 257,6,7
 246 328 246 328 246 286 c 1,8,9
 204 286 204 286 154 286 c 0,10,11
 102 286 102 286 82 286 c 1,12,13
 82 276 82 276 82 118 c 256,14,15
 82 -40 82 -40 82 -82 c 1,16,17
 82 -82 82 -82 102 -82 c 256,18,19
 122 -82 122 -82 122 -82 c 2,20,21
 204 -82 204 -82 246 -122 c 0,22,23
 286 -164 286 -164 286 -246 c 256,24,25
 286 -328 286 -328 246 -368 c 0,26,27
 204 -410 204 -410 122 -410 c 0,28,29
 104 -410 104 -410 98 -410 c 256,30,31
 92 -410 92 -410 82 -410 c 0,32,33
 40 -410 40 -410 20 -390 c 0,34,35
 0 -368 0 -368 0 -328 c 0,36,37
 0 -164 0 -164 0 32 c 0,38,39
 0 226 0 226 0 368 c 1,0,1
82 -164 m 1,40,41
 82 -204 82 -204 82 -328 c 1,42,43
 92 -328 92 -328 122 -328 c 0,44,45
 162 -328 162 -328 184 -308 c 0,46,47
 204 -286 204 -286 204 -246 c 0,48,49
 204 -204 204 -204 184 -184 c 256,50,51
 164 -164 164 -164 122 -164 c 0,52,53
 110 -164 110 -164 82 -164 c 1,40,41
EndSplineSet
Validated: 1
Substitution2: "Single Substitution lookup 26 subtable" glyph331
EndChar

StartChar: t1.medi
Encoding: 65612 -1 63
Width: 246
GlyphClass: 2
Flags: W
LayerCount: 2
Fore
SplineSet
0 368 m 1,0,1
 40 368 40 368 122 368 c 256,2,3
 204 368 204 368 246 368 c 1,4,5
 246 328 246 328 246 328 c 257,6,7
 246 328 246 328 246 286 c 1,8,9
 204 286 204 286 154 286 c 0,10,11
 102 286 102 286 82 286 c 1,12,13
 82 276 82 276 82 220 c 256,14,15
 82 164 82 164 82 122 c 1,16,17
 82 122 82 122 102 122 c 256,18,19
 122 122 122 122 122 122 c 2,20,21
 204 122 204 122 246 82 c 0,22,23
 286 40 286 40 286 -40 c 0,24,25
 286 -122 286 -122 246 -164 c 0,26,27
 204 -204 204 -204 122 -204 c 0,28,29
 104 -204 104 -204 98 -204 c 256,30,31
 92 -204 92 -204 82 -204 c 1,32,33
 82 -228 82 -228 82 -278 c 256,34,35
 82 -328 82 -328 82 -328 c 2,36,37
 82 -368 82 -368 40 -368 c 0,38,39
 0 -368 0 -368 0 -328 c 0,40,41
 0 -164 0 -164 0 32 c 0,42,43
 0 226 0 226 0 368 c 1,0,1
82 40 m 1,44,45
 82 0 82 0 82 -122 c 1,46,47
 92 -122 92 -122 122 -122 c 0,48,49
 162 -122 162 -122 184 -102 c 0,50,51
 204 -82 204 -82 204 -40 c 0,52,53
 204 0 204 0 184 20 c 256,54,55
 164 40 164 40 122 40 c 0,56,57
 110 40 110 40 82 40 c 1,44,45
EndSplineSet
Validated: 1
Substitution2: "Single Substitution lookup 26 subtable" glyph332
EndChar

StartChar: t.medi
Encoding: 65613 -1 64
Width: 656
GlyphClass: 2
Flags: W
LayerCount: 2
Fore
SplineSet
0 368 m 1,0,1
 82 368 82 368 204 368 c 0,2,3
 328 368 328 368 450 368 c 0,4,5
 492 368 492 368 492 328 c 0,6,7
 492 286 492 286 450 286 c 0,8,9
 424 286 424 286 376 286 c 256,10,11
 328 286 328 286 328 286 c 257,12,13
 328 286 328 286 328 266 c 256,14,15
 328 246 328 246 328 246 c 2,16,17
 328 164 328 164 286 122 c 0,18,19
 246 82 246 82 164 82 c 256,20,21
 82 82 82 82 40 122 c 0,22,23
 0 164 0 164 0 246 c 1,24,25
 2 246 2 246 0 292 c 0,26,27
 0 336 0 336 0 368 c 1,0,1
82 246 m 2,28,29
 82 204 82 204 102 184 c 256,30,31
 122 164 122 164 164 164 c 0,32,33
 204 164 204 164 226 184 c 0,34,35
 246 204 246 204 246 246 c 2,36,37
 246 246 246 246 246 266 c 256,38,39
 246 286 246 286 246 286 c 1,40,41
 192 286 192 286 82 286 c 1,42,43
 82 286 82 286 82 266 c 256,44,45
 82 246 82 246 82 246 c 2,28,29
450 368 m 1,46,47
 492 368 492 368 552 368 c 0,48,49
 614 368 614 368 656 368 c 1,50,51
 656 356 656 356 656 342 c 256,52,53
 656 328 656 328 656 286 c 1,54,55
 614 286 614 286 586 286 c 256,56,57
 558 286 558 286 532 286 c 1,58,59
 532 286 532 286 532 266 c 256,60,61
 532 246 532 246 532 204 c 0,62,63
 532 164 532 164 492 164 c 0,64,65
 450 164 450 164 450 204 c 0,66,67
 450 246 450 246 450 246 c 257,68,69
 450 246 450 246 450 286 c 0,70,71
 450 328 450 328 450 328 c 257,72,73
 450 328 450 328 450 368 c 1,46,47
EndSplineSet
Validated: 5
Substitution2: "Single Substitution lookup 7 subtable" t2.medi
Substitution2: "Single Substitution lookup 6 subtable" t1.medi
EndChar

StartChar: n.isol
Encoding: 6184 6184 65
Width: 448
GlyphClass: 2
Flags: W
LayerCount: 2
Fore
SplineSet
0 696 m 0,0,1
 164 696 164 696 246 614 c 256,2,3
 328 532 328 532 328 368 c 1,4,5
 368 368 368 368 390 368 c 0,6,7
 410 368 410 368 450 368 c 1,8,9
 450 328 450 328 450 328 c 257,10,11
 450 328 450 328 450 286 c 1,12,13
 410 286 410 286 390 286 c 0,14,15
 368 286 368 286 328 286 c 1,16,17
 328 246 328 246 328 246 c 257,18,19
 328 246 328 246 328 204 c 0,20,21
 328 164 328 164 286 164 c 0,22,23
 246 164 246 164 246 204 c 0,24,25
 246 246 246 246 246 246 c 257,26,27
 246 246 246 246 246 368 c 0,28,29
 246 492 246 492 184 552 c 0,30,31
 122 614 122 614 0 614 c 0,32,33
 -40 614 -40 614 -40 656 c 0,34,35
 -40 696 -40 696 0 696 c 0,0,1
330 -22 m 0,36,37
 322 -32 322 -32 310 -36 c 256,38,39
 298 -40 298 -40 286 -40 c 256,40,41
 274 -40 274 -40 264 -36 c 0,42,43
 252 -32 252 -32 244 -22 c 0,44,45
 234 -14 234 -14 230 -2 c 0,46,47
 226 8 226 8 226 20 c 256,48,49
 226 32 226 32 230 44 c 256,50,51
 234 56 234 56 244 64 c 0,52,53
 252 72 252 72 264 78 c 0,54,55
 274 82 274 82 286 82 c 256,56,57
 298 82 298 82 310 78 c 0,58,59
 322 72 322 72 330 64 c 256,60,61
 338 56 338 56 344 44 c 0,62,63
 348 32 348 32 348 20 c 256,64,65
 348 8 348 8 344 -2 c 0,66,67
 338 -14 338 -14 330 -22 c 0,36,37
EndSplineSet
Validated: 1
Substitution2: "'fina' Terminal Forms in Mongolian lookup 2 subtable" n.fina
Substitution2: "'medi' Medial Forms in Mongolian lookup 1 subtable" n.medi
Substitution2: "Required Feature in Latin lookup 0 subtable" n.init
EndChar

StartChar: n.fina
Encoding: 65614 -1 66
Width: 614
GlyphClass: 2
Flags: W
LayerCount: 2
Fore
SplineSet
0 368 m 1,0,1
 122 368 122 368 168 368 c 0,2,3
 216 368 216 368 286 368 c 0,4,5
 410 368 410 368 472 430 c 0,6,7
 532 492 532 492 532 614 c 0,8,9
 532 738 532 738 472 798 c 0,10,11
 410 860 410 860 286 860 c 0,12,13
 246 860 246 860 246 902 c 0,14,15
 246 942 246 942 286 942 c 0,16,17
 450 942 450 942 532 860 c 256,18,19
 614 778 614 778 614 614 c 256,20,21
 614 450 614 450 532 368 c 256,22,23
 450 286 450 286 286 286 c 0,24,25
 216 286 216 286 168 286 c 0,26,27
 122 286 122 286 0 286 c 1,28,29
 0 328 0 328 0 348 c 256,30,31
 0 368 0 368 0 368 c 1,0,1
EndSplineSet
Validated: 1
Substitution2: "Single Substitution lookup 6 subtable" n1.fina
EndChar

StartChar: n1.fina
Encoding: 65615 -1 67
Width: 614
GlyphClass: 2
Flags: W
LayerCount: 2
Fore
SplineSet
0 368 m 1,0,1
 122 368 122 368 168 368 c 0,2,3
 216 368 216 368 286 368 c 0,4,5
 410 368 410 368 472 430 c 0,6,7
 532 492 532 492 532 614 c 0,8,9
 532 738 532 738 472 798 c 0,10,11
 410 860 410 860 286 860 c 0,12,13
 246 860 246 860 246 902 c 0,14,15
 246 942 246 942 286 942 c 0,16,17
 450 942 450 942 532 860 c 256,18,19
 614 778 614 778 614 614 c 256,20,21
 614 450 614 450 532 368 c 256,22,23
 450 286 450 286 286 286 c 0,24,25
 216 286 216 286 168 286 c 0,26,27
 122 286 122 286 0 286 c 1,28,29
 0 328 0 328 0 348 c 256,30,31
 0 368 0 368 0 368 c 1,0,1
330 -64 m 256,32,33
 322 -72 322 -72 310 -78 c 0,34,35
 298 -82 298 -82 286 -82 c 256,36,37
 274 -82 274 -82 264 -78 c 0,38,39
 252 -72 252 -72 244 -64 c 0,40,41
 234 -56 234 -56 230 -44 c 256,42,43
 226 -32 226 -32 226 -20 c 256,44,45
 226 -8 226 -8 230 2 c 0,46,47
 234 14 234 14 244 22 c 0,48,49
 252 32 252 32 264 36 c 0,50,51
 274 40 274 40 286 40 c 256,52,53
 298 40 298 40 310 36 c 256,54,55
 322 32 322 32 330 22 c 0,56,57
 338 14 338 14 344 2 c 0,58,59
 348 -8 348 -8 348 -20 c 256,60,61
 348 -32 348 -32 344 -44 c 0,62,63
 338 -56 338 -56 330 -64 c 256,32,33
EndSplineSet
Validated: 1
EndChar

StartChar: n1.medi
Encoding: 65616 -1 68
Width: 204
GlyphClass: 2
Flags: W
LayerCount: 2
Fore
SplineSet
0 368 m 1,0,1
 0 368 0 368 20 368 c 256,2,3
 40 368 40 368 0 368 c 1,4,5
 40 368 40 368 102 368 c 256,6,7
 164 368 164 368 204 368 c 1,8,9
 204 328 204 328 204 328 c 257,10,11
 204 328 204 328 204 286 c 1,12,13
 164 286 164 286 144 286 c 0,14,15
 122 286 122 286 82 286 c 1,16,17
 82 286 82 286 82 266 c 256,18,19
 82 246 82 246 82 204 c 0,20,21
 82 164 82 164 40 164 c 0,22,23
 0 164 0 164 0 204 c 0,24,25
 0 246 0 246 0 270 c 0,26,27
 0 292 0 292 0 368 c 1,0,1
84 -64 m 256,28,29
 76 -72 76 -72 64 -78 c 0,30,31
 52 -82 52 -82 40 -82 c 0,32,33
 30 -82 30 -82 18 -78 c 0,34,35
 6 -72 6 -72 -2 -64 c 256,36,37
 -10 -56 -10 -56 -16 -44 c 0,38,39
 -20 -32 -20 -32 -20 -20 c 256,40,41
 -20 -8 -20 -8 -16 2 c 0,42,43
 -10 14 -10 14 -2 22 c 0,44,45
 6 32 6 32 18 36 c 256,46,47
 30 40 30 40 40 40 c 0,48,49
 52 40 52 40 64 36 c 256,50,51
 76 32 76 32 84 22 c 0,52,53
 92 14 92 14 98 2 c 0,54,55
 102 -8 102 -8 102 -20 c 256,56,57
 102 -32 102 -32 98 -44 c 0,58,59
 92 -56 92 -56 84 -64 c 256,28,29
EndSplineSet
Validated: 5
Substitution2: "Single Substitution lookup 26 subtable" glyph322
EndChar

StartChar: n.medi
Encoding: 65617 -1 69
Width: 206
GlyphClass: 2
Flags: W
LayerCount: 2
Fore
SplineSet
0 368 m 1,0,1
 40 368 40 368 102 368 c 256,2,3
 164 368 164 368 204 368 c 1,4,5
 204 356 204 356 204 342 c 256,6,7
 204 328 204 328 204 286 c 1,8,9
 164 286 164 286 136 286 c 256,10,11
 108 286 108 286 82 286 c 1,12,13
 82 286 82 286 82 266 c 256,14,15
 82 246 82 246 82 204 c 0,16,17
 82 164 82 164 40 164 c 0,18,19
 0 164 0 164 0 204 c 0,20,21
 0 246 0 246 0 246 c 257,22,23
 0 246 0 246 0 286 c 0,24,25
 0 328 0 328 0 328 c 257,26,27
 0 328 0 328 0 368 c 1,0,1
EndSplineSet
Validated: 1
Substitution2: "Single Substitution lookup 26 subtable" glyph277
Substitution2: "Single Substitution lookup 6 subtable" n1.medi
EndChar

StartChar: l.isol
Encoding: 6191 6191 70
Width: 452
GlyphClass: 2
Flags: W
LayerCount: 2
Fore
SplineSet
0 696 m 0,0,1
 164 696 164 696 246 614 c 256,2,3
 328 532 328 532 328 368 c 1,4,5
 368 368 368 368 390 368 c 0,6,7
 410 368 410 368 450 368 c 1,8,9
 450 368 450 368 450 328 c 0,10,11
 450 286 450 286 450 286 c 1,12,13
 410 286 410 286 390 286 c 256,14,15
 370 286 370 286 328 286 c 1,16,17
 328 246 328 246 328 246 c 257,18,19
 328 246 328 246 328 204 c 0,20,21
 328 164 328 164 286 164 c 0,22,23
 246 164 246 164 246 204 c 0,24,25
 246 246 246 246 246 246 c 257,26,27
 246 246 246 246 246 368 c 0,28,29
 246 492 246 492 184 552 c 0,30,31
 122 614 122 614 0 614 c 0,32,33
 -40 614 -40 614 -40 656 c 0,34,35
 -40 696 -40 696 0 696 c 0,0,1
122 942 m 2,36,37
 122 942 122 942 144 942 c 0,38,39
 164 942 164 942 164 942 c 2,40,41
 246 942 246 942 286 898 c 0,42,43
 328 852 328 852 328 778 c 2,44,45
 328 778 328 778 328 562 c 256,46,47
 328 346 328 346 328 328 c 0,48,49
 328 286 328 286 286 286 c 0,50,51
 246 286 246 286 246 328 c 0,52,53
 246 366 246 366 246 552 c 256,54,55
 246 738 246 738 246 778 c 0,56,57
 246 806 246 806 226 832 c 0,58,59
 204 860 204 860 164 860 c 2,60,61
 164 860 164 860 144 860 c 0,62,63
 122 860 122 860 122 860 c 2,64,65
 82 860 82 860 82 902 c 0,66,67
 82 942 82 942 122 942 c 2,36,37
EndSplineSet
Validated: 5
Substitution2: "'fina' Terminal Forms in Mongolian lookup 2 subtable" l.fina
Substitution2: "'medi' Medial Forms in Mongolian lookup 1 subtable" l.medi
Substitution2: "Required Feature in Latin lookup 0 subtable" l.init
EndChar

StartChar: l.fina
Encoding: 65618 -1 71
Width: 614
GlyphClass: 2
Flags: W
LayerCount: 2
Fore
SplineSet
0 368 m 1,0,1
 122 368 122 368 168 368 c 0,2,3
 216 368 216 368 286 368 c 0,4,5
 410 368 410 368 472 430 c 0,6,7
 532 492 532 492 532 614 c 0,8,9
 532 738 532 738 472 798 c 0,10,11
 410 860 410 860 286 860 c 0,12,13
 246 860 246 860 246 902 c 0,14,15
 246 942 246 942 286 942 c 0,16,17
 450 942 450 942 532 860 c 256,18,19
 614 778 614 778 614 614 c 256,20,21
 614 450 614 450 532 368 c 256,22,23
 450 286 450 286 286 286 c 0,24,25
 216 286 216 286 168 286 c 0,26,27
 122 286 122 286 0 286 c 1,28,29
 0 328 0 328 0 348 c 256,30,31
 0 368 0 368 0 368 c 1,0,1
EndSplineSet
Validated: 1
EndChar

StartChar: l.medi
Encoding: 65619 -1 72
Width: 206
GlyphClass: 2
Flags: W
LayerCount: 2
Fore
SplineSet
0 368 m 1,0,1
 40 368 40 368 102 368 c 256,2,3
 164 368 164 368 204 368 c 1,4,5
 204 356 204 356 204 342 c 256,6,7
 204 328 204 328 204 286 c 1,8,9
 164 286 164 286 136 286 c 256,10,11
 108 286 108 286 82 286 c 1,12,13
 82 286 82 286 82 266 c 256,14,15
 82 246 82 246 82 204 c 0,16,17
 82 164 82 164 40 164 c 0,18,19
 0 164 0 164 0 204 c 0,20,21
 0 246 0 246 0 286 c 0,22,23
 0 328 0 328 0 368 c 1,0,1
0 778 m 0,24,25
 0 820 0 820 -20 840 c 256,26,27
 -40 860 -40 860 -82 858 c 0,28,29
 -122 860 -122 860 -122 902 c 0,30,31
 -122 942 -122 942 -80 942 c 0,32,33
 0 942 0 942 40 902 c 0,34,35
 82 860 82 860 82 778 c 256,36,37
 82 696 82 696 82 614 c 256,38,39
 82 532 82 532 82 328 c 0,40,41
 82 286 82 286 40 286 c 0,42,43
 0 286 0 286 0 328 c 2,44,45
 0 328 0 328 0 512 c 256,46,47
 0 696 0 696 0 778 c 0,24,25
EndSplineSet
Validated: 37
Substitution2: "Single Substitution lookup 26 subtable" glyph321
EndChar

StartChar: k.isol
Encoding: 6260 6260 73
Width: 778
GlyphClass: 2
Flags: W
LayerCount: 2
Fore
SplineSet
328 696 m 256,0,1
 492 696 492 696 574 614 c 256,2,3
 656 532 656 532 656 368 c 1,4,5
 656 368 656 368 716 368 c 0,6,7
 778 368 778 368 778 368 c 1,8,9
 778 328 778 328 778 328 c 257,10,11
 778 328 778 328 778 286 c 1,12,13
 738 286 738 286 696 286 c 0,14,15
 656 286 656 286 656 286 c 1,16,17
 656 246 656 246 656 246 c 257,18,19
 656 246 656 246 656 204 c 0,20,21
 656 164 656 164 614 164 c 0,22,23
 574 164 574 164 574 204 c 0,24,25
 574 286 574 286 574 308 c 0,26,27
 574 328 574 328 574 368 c 0,28,29
 574 492 574 492 512 552 c 0,30,31
 450 614 450 614 328 614 c 0,32,33
 204 614 204 614 144 552 c 0,34,35
 82 492 82 492 82 368 c 0,36,37
 82 328 82 328 40 328 c 0,38,39
 0 328 0 328 0 368 c 0,40,41
 0 532 0 532 82 614 c 256,42,43
 164 696 164 696 328 696 c 256,0,1
0 368 m 0,44,45
 164 368 164 368 246 286 c 256,46,47
 328 204 328 204 328 40 c 0,48,49
 328 0 328 0 286 0 c 0,50,51
 246 0 246 0 246 40 c 0,52,53
 246 164 246 164 184 226 c 0,54,55
 122 286 122 286 0 286 c 0,56,57
 -40 286 -40 286 -40 328 c 0,58,59
 -40 368 -40 368 0 368 c 0,44,45
EndSplineSet
Validated: 5
Substitution2: "'fina' Terminal Forms in Mongolian lookup 2 subtable" k.fina
Substitution2: "'medi' Medial Forms in Mongolian lookup 1 subtable" k.medi
Substitution2: "Required Feature in Latin lookup 0 subtable" k.init
EndChar

StartChar: ks.fina
Encoding: 65620 -1 74
Width: 696
GlyphClass: 2
Flags: W
LayerCount: 2
Fore
SplineSet
368 368 m 0,0,1
 492 368 492 368 552 430 c 0,2,3
 614 492 614 492 614 614 c 0,4,5
 614 738 614 738 552 798 c 0,6,7
 492 860 492 860 368 860 c 0,8,9
 328 860 328 860 328 902 c 0,10,11
 328 942 328 942 368 942 c 0,12,13
 532 942 532 942 614 860 c 256,14,15
 696 778 696 778 696 614 c 256,16,17
 696 450 696 450 614 368 c 256,18,19
 532 286 532 286 368 286 c 0,20,21
 130 286 130 286 86 286 c 0,22,23
 40 286 40 286 0 286 c 1,24,25
 0 328 0 328 0 286 c 1,26,27
 0 246 0 246 0 368 c 1,28,29
 122 368 122 368 156 368 c 256,30,31
 190 368 190 368 368 368 c 0,0,1
84 -24 m 0,32,33
 76 -32 76 -32 64 -36 c 0,34,35
 52 -42 52 -42 40 -42 c 0,36,37
 30 -42 30 -42 18 -36 c 0,38,39
 6 -32 6 -32 -2 -24 c 0,40,41
 -10 -14 -10 -14 -16 -4 c 0,42,43
 -20 8 -20 8 -20 20 c 256,44,45
 -20 32 -20 32 -16 44 c 0,46,47
 -10 56 -10 56 -2 64 c 256,48,49
 6 72 6 72 18 78 c 0,50,51
 30 82 30 82 40 82 c 0,52,53
 52 82 52 82 64 78 c 0,54,55
 76 72 76 72 84 64 c 256,56,57
 92 56 92 56 98 44 c 0,58,59
 102 32 102 32 102 20 c 256,60,61
 102 8 102 8 98 -4 c 0,62,63
 92 -14 92 -14 84 -24 c 0,32,33
290 -22 m 0,64,65
 280 -32 280 -32 270 -36 c 0,66,67
 258 -40 258 -40 246 -40 c 256,68,69
 234 -40 234 -40 222 -36 c 256,70,71
 210 -32 210 -32 202 -22 c 0,72,73
 194 -14 194 -14 190 -2 c 0,74,75
 184 8 184 8 184 20 c 256,76,77
 184 32 184 32 190 44 c 0,78,79
 194 56 194 56 202 64 c 256,80,81
 210 72 210 72 222 78 c 0,82,83
 234 82 234 82 246 82 c 256,84,85
 258 82 258 82 270 78 c 0,86,87
 280 72 280 72 290 64 c 0,88,89
 298 56 298 56 302 44 c 0,90,91
 308 32 308 32 308 20 c 256,92,93
 308 8 308 8 302 -2 c 0,94,95
 298 -14 298 -14 290 -22 c 0,64,65
EndSplineSet
Validated: 37
EndChar

StartChar: k.fina
Encoding: 65621 -1 75
Width: 696
GlyphClass: 2
Flags: W
LayerCount: 2
Fore
SplineSet
368 368 m 0,0,1
 492 368 492 368 552 430 c 0,2,3
 614 492 614 492 614 614 c 0,4,5
 614 738 614 738 552 798 c 0,6,7
 492 860 492 860 368 860 c 0,8,9
 328 860 328 860 328 902 c 0,10,11
 328 942 328 942 368 942 c 0,12,13
 532 942 532 942 614 860 c 256,14,15
 696 778 696 778 696 614 c 256,16,17
 696 450 696 450 614 368 c 256,18,19
 532 286 532 286 368 286 c 0,20,21
 296 286 296 286 250 286 c 256,22,23
 204 286 204 286 82 286 c 1,24,25
 82 246 82 246 82 246 c 257,26,27
 82 246 82 246 82 204 c 0,28,29
 82 164 82 164 40 164 c 0,30,31
 0 164 0 164 0 204 c 0,32,33
 0 246 0 246 0 246 c 257,34,35
 0 246 0 246 0 368 c 1,36,37
 122 368 122 368 156 368 c 256,38,39
 190 368 190 368 368 368 c 0,0,1
84 -24 m 0,40,41
 76 -32 76 -32 64 -36 c 0,42,43
 52 -42 52 -42 40 -42 c 0,44,45
 30 -42 30 -42 18 -36 c 0,46,47
 6 -32 6 -32 -2 -24 c 0,48,49
 -10 -14 -10 -14 -16 -4 c 0,50,51
 -20 8 -20 8 -20 20 c 256,52,53
 -20 32 -20 32 -16 44 c 0,54,55
 -10 56 -10 56 -2 64 c 256,56,57
 6 72 6 72 18 78 c 0,58,59
 30 82 30 82 40 82 c 0,60,61
 52 82 52 82 64 78 c 0,62,63
 76 72 76 72 84 64 c 256,64,65
 92 56 92 56 98 44 c 0,66,67
 102 32 102 32 102 20 c 256,68,69
 102 8 102 8 98 -4 c 0,70,71
 92 -14 92 -14 84 -24 c 0,40,41
290 -22 m 0,72,73
 280 -32 280 -32 270 -36 c 0,74,75
 258 -40 258 -40 246 -40 c 256,76,77
 234 -40 234 -40 222 -36 c 256,78,79
 210 -32 210 -32 202 -22 c 0,80,81
 194 -14 194 -14 190 -2 c 0,82,83
 184 8 184 8 184 20 c 256,84,85
 184 32 184 32 190 44 c 0,86,87
 194 56 194 56 202 64 c 256,88,89
 210 72 210 72 222 78 c 0,90,91
 234 82 234 82 246 82 c 256,92,93
 258 82 258 82 270 78 c 0,94,95
 280 72 280 72 290 64 c 0,96,97
 298 56 298 56 302 44 c 0,98,99
 308 32 308 32 308 20 c 256,100,101
 308 8 308 8 302 -2 c 0,102,103
 298 -14 298 -14 290 -22 c 0,72,73
EndSplineSet
Validated: 1
Substitution2: "Single Substitution lookup 12 subtable" k1.fina
Substitution2: "Single Substitution lookup 11 subtable" k1.fina
Substitution2: "Single Substitution lookup 10 subtable" k1.fina
Substitution2: "Single Substitution lookup 9 subtable" k1.fina
Substitution2: "Single Substitution lookup 8 subtable" k.fina
EndChar

StartChar: k2.medi
Encoding: 65622 -1 76
Width: 410
GlyphClass: 2
Flags: W
LayerCount: 2
Fore
SplineSet
0 368 m 1,0,1
 0 368 0 368 20 368 c 256,2,3
 40 368 40 368 0 368 c 1,4,5
 40 368 40 368 102 368 c 256,6,7
 164 368 164 368 204 368 c 2,8,9
 204 368 204 368 286 368 c 256,10,11
 368 368 368 368 410 368 c 1,12,13
 410 368 410 368 410 348 c 256,14,15
 410 328 410 328 410 286 c 1,16,17
 368 286 368 286 348 286 c 256,18,19
 328 286 328 286 286 286 c 1,20,21
 286 286 286 286 286 266 c 256,22,23
 286 246 286 246 286 204 c 0,24,25
 286 164 286 164 246 164 c 0,26,27
 204 164 204 164 204 204 c 0,28,29
 204 246 204 246 204 246 c 257,30,31
 204 246 204 246 204 286 c 1,32,33
 164 286 164 286 144 286 c 0,34,35
 122 286 122 286 82 286 c 1,36,37
 82 286 82 286 82 266 c 256,38,39
 82 246 82 246 82 204 c 0,40,41
 82 164 82 164 40 164 c 0,42,43
 0 164 0 164 0 204 c 0,44,45
 0 246 0 246 0 270 c 0,46,47
 0 292 0 292 0 368 c 1,0,1
EndSplineSet
Validated: 5
Substitution2: "Single Substitution lookup 26 subtable" glyph290
EndChar

StartChar: ks.medi
Encoding: 65623 -1 77
Width: 410
GlyphClass: 2
Flags: W
LayerCount: 2
Fore
SplineSet
0 368 m 1,0,1
 0 368 0 368 20 368 c 256,2,3
 40 368 40 368 0 368 c 1,4,5
 40 368 40 368 102 368 c 256,6,7
 164 368 164 368 204 368 c 2,8,9
 204 368 204 368 286 368 c 256,10,11
 368 368 368 368 410 368 c 1,12,13
 410 368 410 368 410 348 c 256,14,15
 410 328 410 328 410 286 c 1,16,17
 380 286 380 286 352 286 c 0,18,19
 326 286 326 286 82 286 c 1,20,21
 82 286 82 286 82 266 c 256,22,23
 82 246 82 246 82 204 c 0,24,25
 82 164 82 164 40 164 c 0,26,27
 0 164 0 164 0 204 c 0,28,29
 0 246 0 246 0 270 c 0,30,31
 0 292 0 292 0 368 c 1,0,1
84 -24 m 256,32,33
 76 -32 76 -32 64 -36 c 0,34,35
 52 -42 52 -42 40 -42 c 0,36,37
 30 -42 30 -42 18 -36 c 0,38,39
 6 -32 6 -32 -2 -24 c 256,40,41
 -10 -16 -10 -16 -16 -4 c 0,42,43
 -20 8 -20 8 -20 20 c 256,44,45
 -20 32 -20 32 -16 44 c 0,46,47
 -10 56 -10 56 -2 64 c 256,48,49
 6 72 6 72 18 76 c 0,50,51
 30 82 30 82 40 82 c 0,52,53
 52 82 52 82 64 76 c 0,54,55
 76 72 76 72 84 64 c 256,56,57
 92 56 92 56 98 44 c 0,58,59
 102 32 102 32 102 20 c 256,60,61
 102 8 102 8 98 -4 c 0,62,63
 92 -16 92 -16 84 -24 c 256,32,33
290 -24 m 0,64,65
 280 -32 280 -32 270 -36 c 0,66,67
 258 -42 258 -42 246 -42 c 256,68,69
 234 -42 234 -42 222 -36 c 0,70,71
 210 -32 210 -32 202 -24 c 0,72,73
 194 -14 194 -14 190 -4 c 0,74,75
 184 8 184 8 184 20 c 256,76,77
 184 32 184 32 190 44 c 0,78,79
 194 56 194 56 202 64 c 256,80,81
 210 72 210 72 222 78 c 0,82,83
 234 82 234 82 246 82 c 256,84,85
 258 82 258 82 270 78 c 0,86,87
 280 72 280 72 290 64 c 0,88,89
 298 56 298 56 302 44 c 0,90,91
 308 32 308 32 308 20 c 256,92,93
 308 8 308 8 302 -4 c 0,94,95
 298 -14 298 -14 290 -24 c 0,64,65
EndSplineSet
Validated: 5
Substitution2: "Single Substitution lookup 26 subtable" glyph291
Substitution2: "Single Substitution lookup 7 subtable" ks2.medi
Substitution2: "Single Substitution lookup 6 subtable" ks1.medi
EndChar

StartChar: k.medi
Encoding: 65624 -1 78
Width: 410
GlyphClass: 2
Flags: W
LayerCount: 2
Fore
SplineSet
0 368 m 1,0,1
 0 368 0 368 20 368 c 256,2,3
 40 368 40 368 0 368 c 1,4,5
 40 368 40 368 102 368 c 256,6,7
 164 368 164 368 204 368 c 2,8,9
 204 368 204 368 286 368 c 256,10,11
 368 368 368 368 410 368 c 1,12,13
 410 368 410 368 410 348 c 256,14,15
 410 328 410 328 410 286 c 1,16,17
 368 286 368 286 348 286 c 256,18,19
 328 286 328 286 286 286 c 1,20,21
 286 286 286 286 286 266 c 256,22,23
 286 246 286 246 286 204 c 0,24,25
 286 164 286 164 246 164 c 0,26,27
 204 164 204 164 204 204 c 0,28,29
 204 246 204 246 204 246 c 257,30,31
 204 246 204 246 204 286 c 1,32,33
 164 286 164 286 144 286 c 0,34,35
 122 286 122 286 82 286 c 1,36,37
 82 286 82 286 82 266 c 256,38,39
 82 246 82 246 82 204 c 0,40,41
 82 164 82 164 40 164 c 0,42,43
 0 164 0 164 0 204 c 0,44,45
 0 246 0 246 0 270 c 0,46,47
 0 292 0 292 0 368 c 1,0,1
84 -24 m 256,48,49
 76 -32 76 -32 64 -36 c 0,50,51
 52 -42 52 -42 40 -42 c 0,52,53
 30 -42 30 -42 18 -36 c 0,54,55
 6 -32 6 -32 -2 -24 c 256,56,57
 -10 -16 -10 -16 -16 -4 c 0,58,59
 -20 8 -20 8 -20 20 c 256,60,61
 -20 32 -20 32 -16 44 c 0,62,63
 -10 56 -10 56 -2 64 c 256,64,65
 6 72 6 72 18 76 c 0,66,67
 30 82 30 82 40 82 c 0,68,69
 52 82 52 82 64 76 c 0,70,71
 76 72 76 72 84 64 c 256,72,73
 92 56 92 56 98 44 c 0,74,75
 102 32 102 32 102 20 c 256,76,77
 102 8 102 8 98 -4 c 0,78,79
 92 -16 92 -16 84 -24 c 256,48,49
290 -24 m 0,80,81
 280 -32 280 -32 270 -36 c 0,82,83
 258 -42 258 -42 246 -42 c 256,84,85
 234 -42 234 -42 222 -36 c 0,86,87
 210 -32 210 -32 202 -24 c 0,88,89
 194 -14 194 -14 190 -4 c 0,90,91
 184 8 184 8 184 20 c 256,92,93
 184 32 184 32 190 44 c 0,94,95
 194 56 194 56 202 64 c 256,96,97
 210 72 210 72 222 78 c 0,98,99
 234 82 234 82 246 82 c 256,100,101
 258 82 258 82 270 78 c 0,102,103
 280 72 280 72 290 64 c 0,104,105
 298 56 298 56 302 44 c 0,106,107
 308 32 308 32 308 20 c 256,108,109
 308 8 308 8 302 -4 c 0,110,111
 298 -14 298 -14 290 -24 c 0,80,81
EndSplineSet
Validated: 5
Substitution2: "Single Substitution lookup 26 subtable" glyph292
Substitution2: "Single Substitution lookup 12 subtable" k1.medi
Substitution2: "Single Substitution lookup 11 subtable" k1.medi
Substitution2: "Single Substitution lookup 10 subtable" k1.medi
Substitution2: "Single Substitution lookup 9 subtable" k1.medi
Substitution2: "Single Substitution lookup 8 subtable" k.medi
Substitution2: "Single Substitution lookup 7 subtable" k2.medi
Substitution2: "Single Substitution lookup 6 subtable" k1.medi
EndChar

StartChar: g.isol
Encoding: 6244 6244 79
Width: 778
GlyphClass: 2
Flags: W
LayerCount: 2
Fore
SplineSet
0 368 m 0,0,1
 0 532 0 532 82 614 c 256,2,3
 164 696 164 696 328 696 c 256,4,5
 492 696 492 696 574 614 c 256,6,7
 656 532 656 532 656 368 c 1,8,9
 656 368 656 368 716 368 c 0,10,11
 778 368 778 368 778 368 c 1,12,13
 778 328 778 328 778 328 c 257,14,15
 778 328 778 328 778 286 c 1,16,17
 738 286 738 286 696 286 c 0,18,19
 656 286 656 286 656 286 c 1,20,21
 656 246 656 246 656 246 c 257,22,23
 656 246 656 246 656 204 c 0,24,25
 656 164 656 164 614 164 c 0,26,27
 574 164 574 164 574 204 c 0,28,29
 574 286 574 286 574 308 c 0,30,31
 574 328 574 328 574 368 c 0,32,33
 574 492 574 492 512 552 c 0,34,35
 450 614 450 614 328 614 c 0,36,37
 204 614 204 614 144 552 c 0,38,39
 82 492 82 492 82 368 c 0,40,41
 82 328 82 328 40 328 c 0,42,43
 0 328 0 328 0 368 c 0,0,1
0 368 m 0,44,45
 164 368 164 368 246 286 c 256,46,47
 328 204 328 204 328 40 c 0,48,49
 328 0 328 0 286 0 c 0,50,51
 246 0 246 0 246 40 c 0,52,53
 246 164 246 164 184 226 c 0,54,55
 122 286 122 286 0 286 c 0,56,57
 -40 286 -40 286 -40 328 c 0,58,59
 -40 368 -40 368 0 368 c 0,44,45
780 592 m 0,60,61
 772 582 772 582 760 578 c 0,62,63
 750 574 750 574 738 574 c 256,64,65
 726 574 726 574 714 578 c 256,66,67
 702 582 702 582 694 592 c 0,68,69
 686 600 686 600 680 612 c 0,70,71
 676 622 676 622 676 634 c 256,72,73
 676 646 676 646 680 658 c 0,74,75
 686 670 686 670 694 678 c 256,76,77
 702 686 702 686 714 692 c 0,78,79
 726 696 726 696 738 696 c 256,80,81
 750 696 750 696 760 692 c 0,82,83
 772 686 772 686 780 678 c 0,84,85
 790 670 790 670 794 658 c 256,86,87
 798 646 798 646 798 634 c 256,88,89
 798 622 798 622 794 612 c 0,90,91
 790 600 790 600 780 592 c 0,60,61
EndSplineSet
Validated: 5
Substitution2: "'fina' Terminal Forms in Mongolian lookup 2 subtable" g.fina
Substitution2: "'medi' Medial Forms in Mongolian lookup 1 subtable" g.medi
Substitution2: "Required Feature in Latin lookup 0 subtable" g.init
EndChar

StartChar: g.medi
Encoding: 65625 -1 80
Width: 410
GlyphClass: 2
Flags: W
LayerCount: 2
Fore
SplineSet
0 368 m 1,0,1
 0 368 0 368 20 368 c 256,2,3
 40 368 40 368 0 368 c 1,4,5
 40 368 40 368 102 368 c 256,6,7
 164 368 164 368 204 368 c 2,8,9
 204 368 204 368 286 368 c 256,10,11
 368 368 368 368 410 368 c 1,12,13
 410 368 410 368 410 348 c 256,14,15
 410 328 410 328 410 286 c 1,16,17
 368 286 368 286 348 286 c 256,18,19
 328 286 328 286 286 286 c 1,20,21
 286 286 286 286 286 266 c 256,22,23
 286 246 286 246 286 204 c 0,24,25
 286 164 286 164 246 164 c 0,26,27
 204 164 204 164 204 204 c 0,28,29
 204 246 204 246 204 246 c 257,30,31
 204 246 204 246 204 286 c 1,32,33
 164 286 164 286 144 286 c 0,34,35
 122 286 122 286 82 286 c 1,36,37
 82 286 82 286 82 266 c 256,38,39
 82 246 82 246 82 204 c 0,40,41
 82 164 82 164 40 164 c 0,42,43
 0 164 0 164 0 204 c 0,44,45
 0 246 0 246 0 270 c 0,46,47
 0 292 0 292 0 368 c 1,0,1
290 592 m 0,48,49
 280 582 280 582 270 578 c 0,50,51
 258 574 258 574 246 574 c 256,52,53
 234 574 234 574 222 578 c 256,54,55
 210 582 210 582 202 592 c 0,56,57
 194 600 194 600 190 612 c 0,58,59
 184 622 184 622 184 634 c 256,60,61
 184 646 184 646 190 658 c 0,62,63
 194 670 194 670 202 678 c 256,64,65
 210 686 210 686 222 692 c 0,66,67
 234 696 234 696 246 696 c 256,68,69
 258 696 258 696 270 692 c 0,70,71
 280 686 280 686 290 678 c 0,72,73
 298 670 298 670 302 658 c 0,74,75
 308 646 308 646 308 634 c 256,76,77
 308 622 308 622 302 612 c 0,78,79
 298 600 298 600 290 592 c 0,48,49
EndSplineSet
Validated: 5
Substitution2: "Single Substitution lookup 26 subtable" glyph293
Substitution2: "Single Substitution lookup 6 subtable" g1.medi
EndChar

StartChar: h.isol
Encoding: 6245 6245 81
Width: 778
GlyphClass: 2
Flags: W
LayerCount: 2
Fore
SplineSet
0 368 m 0,0,1
 0 532 0 532 82 614 c 256,2,3
 164 696 164 696 328 696 c 256,4,5
 492 696 492 696 574 614 c 256,6,7
 656 532 656 532 656 368 c 1,8,9
 656 368 656 368 716 368 c 0,10,11
 778 368 778 368 778 368 c 1,12,13
 778 328 778 328 778 328 c 257,14,15
 778 328 778 328 778 286 c 1,16,17
 738 286 738 286 696 286 c 0,18,19
 656 286 656 286 656 286 c 1,20,21
 656 246 656 246 656 246 c 257,22,23
 656 246 656 246 656 204 c 0,24,25
 656 164 656 164 614 164 c 0,26,27
 574 164 574 164 574 204 c 0,28,29
 574 286 574 286 574 308 c 0,30,31
 574 328 574 328 574 368 c 0,32,33
 574 492 574 492 512 552 c 0,34,35
 450 614 450 614 328 614 c 0,36,37
 204 614 204 614 144 552 c 0,38,39
 82 492 82 492 82 368 c 0,40,41
 82 328 82 328 40 328 c 0,42,43
 0 328 0 328 0 368 c 0,0,1
866 528 m 0,44,45
 848 510 848 510 826 500 c 0,46,47
 802 492 802 492 778 492 c 256,48,49
 754 492 754 492 732 500 c 0,50,51
 708 510 708 510 692 528 c 0,52,53
 674 544 674 544 664 568 c 0,54,55
 656 590 656 590 656 614 c 256,56,57
 656 638 656 638 664 662 c 0,58,59
 674 684 674 684 692 702 c 0,60,61
 708 718 708 718 732 728 c 0,62,63
 754 738 754 738 778 738 c 256,64,65
 802 738 802 738 826 728 c 0,66,67
 848 718 848 718 866 702 c 0,68,69
 882 684 882 684 892 662 c 0,70,71
 902 638 902 638 902 614 c 256,72,73
 902 590 902 590 892 568 c 0,74,75
 882 544 882 544 866 528 c 0,44,45
820 614 m 256,76,77
 820 622 820 622 816 630 c 256,78,79
 812 638 812 638 808 644 c 0,80,81
 802 648 802 648 794 652 c 256,82,83
 786 656 786 656 778 656 c 256,84,85
 770 656 770 656 762 652 c 256,86,87
 754 648 754 648 750 644 c 0,88,89
 744 638 744 638 740 630 c 0,90,91
 738 622 738 622 738 614 c 256,92,93
 738 606 738 606 740 598 c 0,94,95
 744 590 744 590 750 586 c 0,96,97
 754 580 754 580 762 576 c 0,98,99
 770 574 770 574 778 574 c 256,100,101
 786 574 786 574 794 576 c 0,102,103
 802 580 802 580 808 586 c 0,104,105
 812 590 812 590 816 598 c 256,106,107
 820 606 820 606 820 614 c 256,76,77
0 368 m 0,108,109
 164 368 164 368 246 286 c 256,110,111
 328 204 328 204 328 40 c 0,112,113
 328 0 328 0 286 0 c 0,114,115
 246 0 246 0 246 40 c 0,116,117
 246 164 246 164 184 226 c 0,118,119
 122 286 122 286 0 286 c 0,120,121
 -40 286 -40 286 -40 328 c 0,122,123
 -40 368 -40 368 0 368 c 0,108,109
EndSplineSet
Validated: 5
Substitution2: "'fina' Terminal Forms in Mongolian lookup 2 subtable" h.fina
Substitution2: "'medi' Medial Forms in Mongolian lookup 1 subtable" h.medi
Substitution2: "Required Feature in Latin lookup 0 subtable" h.init
EndChar

StartChar: h.medi
Encoding: 65626 -1 82
Width: 410
GlyphClass: 2
Flags: W
LayerCount: 2
Fore
SplineSet
0 368 m 1,0,1
 0 368 0 368 20 368 c 256,2,3
 40 368 40 368 0 368 c 1,4,5
 40 368 40 368 102 368 c 256,6,7
 164 368 164 368 204 368 c 2,8,9
 204 368 204 368 286 368 c 256,10,11
 368 368 368 368 410 368 c 1,12,13
 410 368 410 368 410 348 c 256,14,15
 410 328 410 328 410 286 c 1,16,17
 368 286 368 286 348 286 c 256,18,19
 328 286 328 286 286 286 c 1,20,21
 286 286 286 286 286 266 c 256,22,23
 286 246 286 246 286 204 c 0,24,25
 286 164 286 164 246 164 c 0,26,27
 204 164 204 164 204 204 c 0,28,29
 204 246 204 246 204 246 c 257,30,31
 204 246 204 246 204 286 c 1,32,33
 164 286 164 286 144 286 c 0,34,35
 122 286 122 286 82 286 c 1,36,37
 82 286 82 286 82 266 c 256,38,39
 82 246 82 246 82 204 c 0,40,41
 82 164 82 164 40 164 c 0,42,43
 0 164 0 164 0 204 c 0,44,45
 0 246 0 246 0 270 c 0,46,47
 0 292 0 292 0 368 c 1,0,1
332 528 m 0,48,49
 316 510 316 510 292 502 c 0,50,51
 270 492 270 492 246 492 c 256,52,53
 222 492 222 492 198 502 c 0,54,55
 176 510 176 510 158 528 c 0,56,57
 142 544 142 544 132 568 c 256,58,59
 122 592 122 592 122 614 c 0,60,61
 122 638 122 638 132 662 c 256,62,63
 142 686 142 686 158 702 c 0,64,65
 176 718 176 718 198 728 c 0,66,67
 222 738 222 738 246 738 c 256,68,69
 270 738 270 738 292 728 c 0,70,71
 316 718 316 718 332 702 c 0,72,73
 350 686 350 686 360 662 c 0,74,75
 368 638 368 638 368 614 c 0,76,77
 368 592 368 592 360 568 c 0,78,79
 350 544 350 544 332 528 c 0,48,49
286 614 m 256,80,81
 286 622 286 622 284 630 c 0,82,83
 280 638 280 638 274 644 c 0,84,85
 270 650 270 650 262 652 c 0,86,87
 254 656 254 656 246 656 c 256,88,89
 238 656 238 656 230 652 c 0,90,91
 222 650 222 650 216 644 c 0,92,93
 212 638 212 638 208 630 c 256,94,95
 204 622 204 622 204 614 c 256,96,97
 204 606 204 606 208 598 c 0,98,99
 212 592 212 592 216 586 c 0,100,101
 222 580 222 580 230 576 c 0,102,103
 238 574 238 574 246 574 c 256,104,105
 254 574 254 574 262 576 c 0,106,107
 270 580 270 580 274 586 c 0,108,109
 280 592 280 592 284 598 c 0,110,111
 286 606 286 606 286 614 c 256,80,81
EndSplineSet
Validated: 5
Substitution2: "Single Substitution lookup 26 subtable" glyph294
Substitution2: "Single Substitution lookup 6 subtable" h1.medi
EndChar

StartChar: kh.isol
Encoding: 6202 6202 83
Width: 574
GlyphClass: 2
Flags: W
LayerCount: 2
Fore
SplineSet
0 368 m 0,0,1
 0 532 0 532 82 614 c 256,2,3
 164 696 164 696 328 696 c 256,4,5
 492 696 492 696 574 614 c 256,6,7
 656 532 656 532 656 368 c 0,8,9
 656 328 656 328 656 328 c 257,10,11
 656 328 656 328 656 328 c 1,12,13
 656 286 656 286 614 286 c 0,14,15
 574 286 574 286 574 328 c 1,16,17
 574 328 574 328 574 328 c 257,18,19
 574 328 574 328 574 368 c 0,20,21
 574 492 574 492 512 552 c 0,22,23
 450 614 450 614 328 614 c 0,24,25
 204 614 204 614 144 552 c 0,26,27
 82 492 82 492 82 368 c 0,28,29
 82 328 82 328 82 204 c 0,30,31
 82 82 82 82 82 0 c 0,32,33
 82 -40 82 -40 40 -40 c 0,34,35
 0 -40 0 -40 0 0 c 256,36,37
 0 40 0 40 0 184 c 256,38,39
 0 328 0 328 0 368 c 0,0,1
82 246 m 0,40,41
 204 246 204 246 266 184 c 256,42,43
 328 122 328 122 328 0 c 0,44,45
 328 -40 328 -40 286 -40 c 0,46,47
 246 -40 246 -40 246 0 c 0,48,49
 246 82 246 82 204 122 c 0,50,51
 164 164 164 164 82 164 c 0,52,53
 40 164 40 164 40 204 c 0,54,55
 40 246 40 246 82 246 c 0,40,41
EndSplineSet
Validated: 5
Substitution2: "Single Substitution lookup 25 subtable" glyph295
Substitution2: "'fina' Terminal Forms in Mongolian lookup 2 subtable" kh.fina
Substitution2: "'medi' Medial Forms in Mongolian lookup 1 subtable" kh.medi
Substitution2: "Required Feature in Latin lookup 0 subtable" kh.init
EndChar

StartChar: k1.init
Encoding: 65627 -1 84
Width: 574
GlyphClass: 2
Flags: W
LayerCount: 2
Fore
SplineSet
0 368 m 0,0,1
 0 532 0 532 82 614 c 256,2,3
 164 696 164 696 328 696 c 256,4,5
 492 696 492 696 574 614 c 256,6,7
 656 532 656 532 656 368 c 0,8,9
 656 328 656 328 656 328 c 257,10,11
 656 328 656 328 656 328 c 1,12,13
 656 286 656 286 614 286 c 0,14,15
 574 286 574 286 574 328 c 1,16,17
 574 328 574 328 574 328 c 257,18,19
 574 328 574 328 574 368 c 0,20,21
 574 492 574 492 512 552 c 0,22,23
 450 614 450 614 328 614 c 0,24,25
 204 614 204 614 144 552 c 0,26,27
 82 492 82 492 82 368 c 0,28,29
 82 328 82 328 82 204 c 0,30,31
 82 82 82 82 82 0 c 0,32,33
 82 -40 82 -40 40 -40 c 0,34,35
 0 -40 0 -40 0 0 c 256,36,37
 0 40 0 40 0 184 c 256,38,39
 0 328 0 328 0 368 c 0,0,1
EndSplineSet
Validated: 5
Substitution2: "Single Substitution lookup 25 subtable" glyph296
EndChar

StartChar: k1.fina
Encoding: 65628 -1 85
Width: 656
GlyphClass: 2
Flags: W
LayerCount: 2
Fore
SplineSet
0 368 m 0,0,1
 0 532 0 532 82 614 c 256,2,3
 164 696 164 696 328 696 c 256,4,5
 492 696 492 696 574 614 c 256,6,7
 656 532 656 532 656 368 c 0,8,9
 656 328 656 328 656 328 c 257,10,11
 656 328 656 328 656 328 c 1,12,13
 656 286 656 286 614 286 c 0,14,15
 574 286 574 286 574 328 c 1,16,17
 574 328 574 328 574 328 c 257,18,19
 574 328 574 328 574 368 c 0,20,21
 574 492 574 492 512 552 c 0,22,23
 450 614 450 614 328 614 c 0,24,25
 204 614 204 614 144 552 c 0,26,27
 82 492 82 492 82 368 c 0,28,29
 82 328 82 328 82 204 c 0,30,31
 82 82 82 82 82 0 c 0,32,33
 82 -40 82 -40 40 -40 c 0,34,35
 0 -40 0 -40 0 0 c 256,36,37
 0 40 0 40 0 184 c 256,38,39
 0 328 0 328 0 368 c 0,0,1
656 40 m 0,40,41
 656 -122 656 -122 594 -204 c 256,42,43
 532 -286 532 -286 368 -286 c 0,44,45
 328 -286 328 -286 328 -246 c 0,46,47
 328 -204 328 -204 368 -204 c 0,48,49
 492 -204 492 -204 532 -144 c 0,50,51
 574 -82 574 -82 574 40 c 0,52,53
 574 86 574 86 574 146 c 0,54,55
 574 204 574 204 574 328 c 0,56,57
 574 368 574 368 614 368 c 0,58,59
 656 368 656 368 656 328 c 0,60,61
 656 286 656 286 656 184 c 256,62,63
 656 82 656 82 656 40 c 0,40,41
EndSplineSet
Validated: 5
EndChar

StartChar: kh.medi
Encoding: 65629 -1 86
Width: 574
GlyphClass: 2
Flags: W
LayerCount: 2
Fore
SplineSet
0 368 m 0,0,1
 0 532 0 532 82 614 c 256,2,3
 164 696 164 696 328 696 c 256,4,5
 492 696 492 696 574 614 c 256,6,7
 656 532 656 532 656 368 c 0,8,9
 656 328 656 328 656 328 c 257,10,11
 656 328 656 328 656 328 c 1,12,13
 656 286 656 286 614 286 c 0,14,15
 574 286 574 286 574 328 c 1,16,17
 574 328 574 328 574 328 c 257,18,19
 574 328 574 328 574 368 c 0,20,21
 574 492 574 492 512 552 c 0,22,23
 450 614 450 614 328 614 c 0,24,25
 204 614 204 614 144 552 c 0,26,27
 82 492 82 492 82 368 c 0,28,29
 82 328 82 328 82 204 c 0,30,31
 82 82 82 82 82 0 c 0,32,33
 82 -40 82 -40 40 -40 c 0,34,35
 0 -40 0 -40 0 0 c 256,36,37
 0 40 0 40 0 184 c 256,38,39
 0 328 0 328 0 368 c 0,0,1
82 246 m 0,40,41
 204 246 204 246 266 184 c 256,42,43
 328 122 328 122 328 0 c 0,44,45
 328 -40 328 -40 286 -40 c 0,46,47
 246 -40 246 -40 246 0 c 0,48,49
 246 82 246 82 204 122 c 0,50,51
 164 164 164 164 82 164 c 0,52,53
 40 164 40 164 40 204 c 0,54,55
 40 246 40 246 82 246 c 0,40,41
EndSplineSet
Validated: 5
Substitution2: "Single Substitution lookup 26 subtable" glyph307
Substitution2: "Single Substitution lookup 25 subtable" glyph301
EndChar

StartChar: k1.medi
Encoding: 65630 -1 87
Width: 574
GlyphClass: 2
Flags: W
LayerCount: 2
Fore
SplineSet
0 368 m 0,0,1
 0 532 0 532 82 614 c 256,2,3
 164 696 164 696 328 696 c 256,4,5
 492 696 492 696 574 614 c 256,6,7
 656 532 656 532 656 368 c 0,8,9
 656 328 656 328 656 328 c 257,10,11
 656 328 656 328 656 328 c 1,12,13
 656 286 656 286 614 286 c 0,14,15
 574 286 574 286 574 328 c 1,16,17
 574 328 574 328 574 328 c 257,18,19
 574 328 574 328 574 368 c 0,20,21
 574 492 574 492 512 552 c 0,22,23
 450 614 450 614 328 614 c 0,24,25
 204 614 204 614 144 552 c 0,26,27
 82 492 82 492 82 368 c 0,28,29
 82 328 82 328 82 204 c 0,30,31
 82 82 82 82 82 0 c 0,32,33
 82 -40 82 -40 40 -40 c 0,34,35
 0 -40 0 -40 0 0 c 256,36,37
 0 40 0 40 0 184 c 256,38,39
 0 328 0 328 0 368 c 0,0,1
EndSplineSet
Validated: 5
Substitution2: "Single Substitution lookup 28 subtable" glyph338
Substitution2: "Single Substitution lookup 26 subtable" glyph308
Substitution2: "Single Substitution lookup 25 subtable" glyph302
EndChar

StartChar: gh.isol
Encoding: 6252 6252 88
Width: 574
GlyphClass: 2
Flags: W
LayerCount: 2
Fore
SplineSet
0 368 m 0,0,1
 0 532 0 532 82 614 c 256,2,3
 164 696 164 696 328 696 c 256,4,5
 492 696 492 696 574 614 c 256,6,7
 656 532 656 532 656 368 c 0,8,9
 656 328 656 328 656 328 c 257,10,11
 656 328 656 328 656 328 c 1,12,13
 656 286 656 286 614 286 c 0,14,15
 574 286 574 286 574 328 c 1,16,17
 574 328 574 328 574 328 c 257,18,19
 574 328 574 328 574 368 c 0,20,21
 574 492 574 492 512 552 c 0,22,23
 450 614 450 614 328 614 c 0,24,25
 204 614 204 614 144 552 c 0,26,27
 82 492 82 492 82 368 c 0,28,29
 82 328 82 328 82 204 c 0,30,31
 82 82 82 82 82 0 c 0,32,33
 82 -40 82 -40 40 -40 c 0,34,35
 0 -40 0 -40 0 0 c 256,36,37
 0 40 0 40 0 184 c 256,38,39
 0 328 0 328 0 368 c 0,0,1
372 836 m 0,40,41
 362 828 362 828 352 824 c 0,42,43
 340 818 340 818 328 818 c 256,44,45
 316 818 316 818 304 824 c 0,46,47
 292 828 292 828 284 836 c 0,48,49
 276 846 276 846 270 858 c 0,50,51
 266 868 266 868 266 880 c 256,52,53
 266 892 266 892 270 904 c 0,54,55
 276 916 276 916 284 924 c 256,56,57
 292 932 292 932 304 938 c 0,58,59
 316 942 316 942 328 942 c 256,60,61
 340 942 340 942 352 938 c 0,62,63
 362 932 362 932 372 924 c 0,64,65
 380 916 380 916 384 904 c 0,66,67
 390 892 390 892 390 880 c 256,68,69
 390 868 390 868 384 858 c 0,70,71
 380 846 380 846 372 836 c 0,40,41
EndSplineSet
Validated: 5
Substitution2: "Single Substitution lookup 25 subtable" glyph297
Substitution2: "'fina' Terminal Forms in Mongolian lookup 2 subtable" gh.fina
Substitution2: "'medi' Medial Forms in Mongolian lookup 1 subtable" gh.medi
Substitution2: "Required Feature in Latin lookup 0 subtable" gh.init
EndChar

StartChar: g1.init
Encoding: 65639 -1 89
Width: 574
GlyphClass: 2
Flags: W
LayerCount: 2
Fore
SplineSet
0 368 m 0,0,1
 0 532 0 532 82 614 c 256,2,3
 164 696 164 696 328 696 c 256,4,5
 492 696 492 696 574 614 c 256,6,7
 656 532 656 532 656 368 c 0,8,9
 656 328 656 328 656 328 c 257,10,11
 656 328 656 328 656 328 c 1,12,13
 656 286 656 286 614 286 c 0,14,15
 574 286 574 286 574 328 c 1,16,17
 574 328 574 328 574 328 c 257,18,19
 574 328 574 328 574 368 c 0,20,21
 574 492 574 492 512 552 c 0,22,23
 450 614 450 614 328 614 c 0,24,25
 204 614 204 614 144 552 c 0,26,27
 82 492 82 492 82 368 c 0,28,29
 82 328 82 328 82 204 c 0,30,31
 82 82 82 82 82 0 c 0,32,33
 82 -40 82 -40 40 -40 c 0,34,35
 0 -40 0 -40 0 0 c 256,36,37
 0 40 0 40 0 184 c 256,38,39
 0 328 0 328 0 368 c 0,0,1
372 836 m 0,40,41
 362 828 362 828 352 824 c 0,42,43
 340 818 340 818 328 818 c 256,44,45
 316 818 316 818 304 824 c 0,46,47
 292 828 292 828 284 836 c 0,48,49
 276 846 276 846 270 858 c 0,50,51
 266 868 266 868 266 880 c 256,52,53
 266 892 266 892 270 904 c 0,54,55
 276 916 276 916 284 924 c 256,56,57
 292 932 292 932 304 938 c 0,58,59
 316 942 316 942 328 942 c 256,60,61
 340 942 340 942 352 938 c 0,62,63
 362 932 362 932 372 924 c 0,64,65
 380 916 380 916 384 904 c 0,66,67
 390 892 390 892 390 880 c 256,68,69
 390 868 390 868 384 858 c 0,70,71
 380 846 380 846 372 836 c 0,40,41
EndSplineSet
Validated: 5
Substitution2: "Single Substitution lookup 25 subtable" glyph298
EndChar

StartChar: gh.medi
Encoding: 65640 -1 90
Width: 574
GlyphClass: 2
Flags: W
LayerCount: 2
Fore
SplineSet
0 368 m 0,0,1
 0 532 0 532 82 614 c 256,2,3
 164 696 164 696 328 696 c 256,4,5
 492 696 492 696 574 614 c 256,6,7
 656 532 656 532 656 368 c 0,8,9
 656 328 656 328 656 328 c 257,10,11
 656 328 656 328 656 328 c 1,12,13
 656 286 656 286 614 286 c 0,14,15
 574 286 574 286 574 328 c 1,16,17
 574 328 574 328 574 328 c 257,18,19
 574 328 574 328 574 368 c 0,20,21
 574 492 574 492 512 552 c 0,22,23
 450 614 450 614 328 614 c 0,24,25
 204 614 204 614 144 552 c 0,26,27
 82 492 82 492 82 368 c 0,28,29
 82 328 82 328 82 204 c 0,30,31
 82 82 82 82 82 0 c 0,32,33
 82 -40 82 -40 40 -40 c 0,34,35
 0 -40 0 -40 0 0 c 256,36,37
 0 40 0 40 0 184 c 256,38,39
 0 328 0 328 0 368 c 0,0,1
372 836 m 0,40,41
 362 828 362 828 352 824 c 0,42,43
 340 818 340 818 328 818 c 256,44,45
 316 818 316 818 304 824 c 0,46,47
 292 828 292 828 284 836 c 0,48,49
 276 846 276 846 270 858 c 0,50,51
 266 868 266 868 266 880 c 256,52,53
 266 892 266 892 270 904 c 0,54,55
 276 916 276 916 284 924 c 256,56,57
 292 932 292 932 304 938 c 0,58,59
 316 942 316 942 328 942 c 256,60,61
 340 942 340 942 352 938 c 0,62,63
 362 932 362 932 372 924 c 0,64,65
 380 916 380 916 384 904 c 0,66,67
 390 892 390 892 390 880 c 256,68,69
 390 868 390 868 384 858 c 0,70,71
 380 846 380 846 372 836 c 0,40,41
82 246 m 0,72,73
 204 246 204 246 266 184 c 256,74,75
 328 122 328 122 328 0 c 0,76,77
 328 -40 328 -40 286 -40 c 0,78,79
 246 -40 246 -40 246 0 c 0,80,81
 246 82 246 82 204 122 c 0,82,83
 164 164 164 164 82 164 c 0,84,85
 40 164 40 164 40 204 c 0,86,87
 40 246 40 246 82 246 c 0,72,73
EndSplineSet
Validated: 5
Substitution2: "Single Substitution lookup 26 subtable" glyph309
Substitution2: "Single Substitution lookup 25 subtable" glyph303
EndChar

StartChar: g1.medi
Encoding: 65641 -1 91
Width: 574
GlyphClass: 2
Flags: W
LayerCount: 2
Fore
SplineSet
0 368 m 0,0,1
 0 532 0 532 82 614 c 256,2,3
 164 696 164 696 328 696 c 256,4,5
 492 696 492 696 574 614 c 256,6,7
 656 532 656 532 656 368 c 0,8,9
 656 328 656 328 656 328 c 257,10,11
 656 328 656 328 656 328 c 1,12,13
 656 286 656 286 614 286 c 0,14,15
 574 286 574 286 574 328 c 1,16,17
 574 328 574 328 574 328 c 257,18,19
 574 328 574 328 574 368 c 0,20,21
 574 492 574 492 512 552 c 0,22,23
 450 614 450 614 328 614 c 0,24,25
 204 614 204 614 144 552 c 0,26,27
 82 492 82 492 82 368 c 0,28,29
 82 328 82 328 82 204 c 0,30,31
 82 82 82 82 82 0 c 0,32,33
 82 -40 82 -40 40 -40 c 0,34,35
 0 -40 0 -40 0 0 c 256,36,37
 0 40 0 40 0 184 c 256,38,39
 0 328 0 328 0 368 c 0,0,1
372 836 m 0,40,41
 362 828 362 828 352 824 c 0,42,43
 340 818 340 818 328 818 c 256,44,45
 316 818 316 818 304 824 c 0,46,47
 292 828 292 828 284 836 c 0,48,49
 276 846 276 846 270 858 c 0,50,51
 266 868 266 868 266 880 c 256,52,53
 266 892 266 892 270 904 c 0,54,55
 276 916 276 916 284 924 c 256,56,57
 292 932 292 932 304 938 c 0,58,59
 316 942 316 942 328 942 c 256,60,61
 340 942 340 942 352 938 c 0,62,63
 362 932 362 932 372 924 c 0,64,65
 380 916 380 916 384 904 c 0,66,67
 390 892 390 892 390 880 c 256,68,69
 390 868 390 868 384 858 c 0,70,71
 380 846 380 846 372 836 c 0,40,41
EndSplineSet
Validated: 5
Substitution2: "Single Substitution lookup 26 subtable" glyph310
Substitution2: "Single Substitution lookup 25 subtable" glyph304
EndChar

StartChar: hh.isol
Encoding: 6253 6253 92
Width: 574
GlyphClass: 2
Flags: W
LayerCount: 2
Fore
SplineSet
0 368 m 0,0,1
 0 532 0 532 82 614 c 256,2,3
 164 696 164 696 328 696 c 256,4,5
 492 696 492 696 574 614 c 256,6,7
 656 532 656 532 656 368 c 0,8,9
 656 328 656 328 656 328 c 257,10,11
 656 328 656 328 656 328 c 1,12,13
 656 286 656 286 614 286 c 0,14,15
 574 286 574 286 574 328 c 1,16,17
 574 328 574 328 574 328 c 257,18,19
 574 328 574 328 574 368 c 0,20,21
 574 492 574 492 512 552 c 0,22,23
 450 614 450 614 328 614 c 0,24,25
 204 614 204 614 144 552 c 0,26,27
 82 492 82 492 82 368 c 0,28,29
 82 328 82 328 82 204 c 0,30,31
 82 82 82 82 82 0 c 0,32,33
 82 -40 82 -40 40 -40 c 0,34,35
 0 -40 0 -40 0 0 c 256,36,37
 0 40 0 40 0 184 c 256,38,39
 0 328 0 328 0 368 c 0,0,1
82 246 m 0,40,41
 204 246 204 246 266 184 c 256,42,43
 328 122 328 122 328 0 c 0,44,45
 328 -40 328 -40 286 -40 c 0,46,47
 246 -40 246 -40 246 0 c 0,48,49
 246 82 246 82 204 122 c 0,50,51
 164 164 164 164 82 164 c 0,52,53
 40 164 40 164 40 204 c 0,54,55
 40 246 40 246 82 246 c 0,40,41
414 772 m 0,56,57
 398 756 398 756 374 746 c 0,58,59
 352 736 352 736 328 736 c 256,60,61
 304 736 304 736 280 746 c 0,62,63
 258 756 258 756 240 772 c 0,64,65
 224 790 224 790 214 812 c 0,66,67
 204 836 204 836 204 860 c 256,68,69
 204 884 204 884 214 906 c 0,70,71
 224 930 224 930 240 946 c 0,72,73
 258 964 258 964 280 974 c 0,74,75
 304 984 304 984 328 984 c 256,76,77
 352 984 352 984 374 974 c 0,78,79
 398 964 398 964 414 946 c 0,80,81
 432 930 432 930 442 906 c 0,82,83
 450 884 450 884 450 860 c 256,84,85
 450 836 450 836 442 812 c 0,86,87
 432 790 432 790 414 772 c 0,56,57
368 860 m 256,88,89
 368 868 368 868 366 876 c 0,90,91
 362 884 362 884 356 888 c 0,92,93
 352 894 352 894 344 898 c 0,94,95
 336 900 336 900 328 900 c 256,96,97
 320 900 320 900 312 898 c 0,98,99
 304 894 304 894 298 888 c 0,100,101
 294 884 294 884 290 876 c 256,102,103
 286 868 286 868 286 860 c 256,104,105
 286 852 286 852 290 844 c 256,106,107
 294 836 294 836 298 830 c 0,108,109
 304 826 304 826 312 822 c 256,110,111
 320 818 320 818 328 818 c 256,112,113
 336 818 336 818 344 822 c 256,114,115
 352 826 352 826 356 830 c 0,116,117
 362 836 362 836 366 844 c 0,118,119
 368 852 368 852 368 860 c 256,88,89
EndSplineSet
Validated: 5
Substitution2: "Single Substitution lookup 25 subtable" glyph299
Substitution2: "'fina' Terminal Forms in Mongolian lookup 2 subtable" hh.fina
Substitution2: "'medi' Medial Forms in Mongolian lookup 1 subtable" hh.medi
Substitution2: "Required Feature in Latin lookup 0 subtable" hh.init
EndChar

StartChar: h1.init
Encoding: 65642 -1 93
Width: 574
GlyphClass: 2
Flags: W
LayerCount: 2
Fore
SplineSet
0 368 m 0,0,1
 0 532 0 532 82 614 c 256,2,3
 164 696 164 696 328 696 c 256,4,5
 492 696 492 696 574 614 c 256,6,7
 656 532 656 532 656 368 c 0,8,9
 656 328 656 328 656 328 c 257,10,11
 656 328 656 328 656 328 c 1,12,13
 656 286 656 286 614 286 c 0,14,15
 574 286 574 286 574 328 c 1,16,17
 574 328 574 328 574 328 c 257,18,19
 574 328 574 328 574 368 c 0,20,21
 574 492 574 492 512 552 c 0,22,23
 450 614 450 614 328 614 c 0,24,25
 204 614 204 614 144 552 c 0,26,27
 82 492 82 492 82 368 c 0,28,29
 82 328 82 328 82 204 c 0,30,31
 82 82 82 82 82 0 c 0,32,33
 82 -40 82 -40 40 -40 c 0,34,35
 0 -40 0 -40 0 0 c 256,36,37
 0 40 0 40 0 184 c 256,38,39
 0 328 0 328 0 368 c 0,0,1
414 772 m 0,40,41
 398 756 398 756 374 746 c 0,42,43
 352 736 352 736 328 736 c 256,44,45
 304 736 304 736 280 746 c 0,46,47
 258 756 258 756 240 772 c 0,48,49
 224 790 224 790 214 812 c 0,50,51
 204 836 204 836 204 860 c 256,52,53
 204 884 204 884 214 906 c 0,54,55
 224 930 224 930 240 946 c 0,56,57
 258 964 258 964 280 974 c 0,58,59
 304 984 304 984 328 984 c 256,60,61
 352 984 352 984 374 974 c 0,62,63
 398 964 398 964 414 946 c 0,64,65
 432 930 432 930 442 906 c 0,66,67
 450 884 450 884 450 860 c 256,68,69
 450 836 450 836 442 812 c 0,70,71
 432 790 432 790 414 772 c 0,40,41
368 860 m 256,72,73
 368 868 368 868 366 876 c 0,74,75
 362 884 362 884 356 888 c 0,76,77
 352 894 352 894 344 898 c 0,78,79
 336 900 336 900 328 900 c 256,80,81
 320 900 320 900 312 898 c 0,82,83
 304 894 304 894 298 888 c 0,84,85
 294 884 294 884 290 876 c 256,86,87
 286 868 286 868 286 860 c 256,88,89
 286 852 286 852 290 844 c 256,90,91
 294 836 294 836 298 830 c 0,92,93
 304 826 304 826 312 822 c 256,94,95
 320 818 320 818 328 818 c 256,96,97
 336 818 336 818 344 822 c 256,98,99
 352 826 352 826 356 830 c 0,100,101
 362 836 362 836 366 844 c 0,102,103
 368 852 368 852 368 860 c 256,72,73
EndSplineSet
Validated: 5
Substitution2: "Single Substitution lookup 25 subtable" glyph300
EndChar

StartChar: hh.medi
Encoding: 65643 -1 94
Width: 328
GlyphClass: 2
Flags: W
LayerCount: 2
Fore
SplineSet
0 368 m 0,0,1
 0 532 0 532 82 614 c 256,2,3
 164 696 164 696 328 696 c 256,4,5
 492 696 492 696 574 614 c 256,6,7
 656 532 656 532 656 368 c 0,8,9
 656 328 656 328 656 328 c 257,10,11
 656 328 656 328 656 328 c 1,12,13
 656 286 656 286 614 286 c 0,14,15
 574 286 574 286 574 328 c 1,16,17
 574 328 574 328 574 328 c 257,18,19
 574 328 574 328 574 368 c 0,20,21
 574 492 574 492 512 552 c 0,22,23
 450 614 450 614 328 614 c 0,24,25
 204 614 204 614 144 552 c 0,26,27
 82 492 82 492 82 368 c 0,28,29
 82 328 82 328 82 204 c 0,30,31
 82 82 82 82 82 0 c 0,32,33
 82 -40 82 -40 40 -40 c 0,34,35
 0 -40 0 -40 0 0 c 256,36,37
 0 40 0 40 0 184 c 256,38,39
 0 328 0 328 0 368 c 0,0,1
82 246 m 0,40,41
 204 246 204 246 266 184 c 256,42,43
 328 122 328 122 328 0 c 0,44,45
 328 -40 328 -40 286 -40 c 0,46,47
 246 -40 246 -40 246 0 c 0,48,49
 246 82 246 82 204 122 c 0,50,51
 164 164 164 164 82 164 c 0,52,53
 40 164 40 164 40 204 c 0,54,55
 40 246 40 246 82 246 c 0,40,41
414 772 m 0,56,57
 398 756 398 756 374 746 c 0,58,59
 352 736 352 736 328 736 c 256,60,61
 304 736 304 736 280 746 c 0,62,63
 258 756 258 756 240 772 c 0,64,65
 224 790 224 790 214 812 c 0,66,67
 204 836 204 836 204 860 c 256,68,69
 204 884 204 884 214 906 c 0,70,71
 224 930 224 930 240 946 c 0,72,73
 258 964 258 964 280 974 c 0,74,75
 304 984 304 984 328 984 c 256,76,77
 352 984 352 984 374 974 c 0,78,79
 398 964 398 964 414 946 c 0,80,81
 432 930 432 930 442 906 c 0,82,83
 450 884 450 884 450 860 c 256,84,85
 450 836 450 836 442 812 c 0,86,87
 432 790 432 790 414 772 c 0,56,57
368 860 m 256,88,89
 368 868 368 868 366 876 c 0,90,91
 362 884 362 884 356 888 c 0,92,93
 352 894 352 894 344 898 c 0,94,95
 336 900 336 900 328 900 c 256,96,97
 320 900 320 900 312 898 c 0,98,99
 304 894 304 894 298 888 c 0,100,101
 294 884 294 884 290 876 c 256,102,103
 286 868 286 868 286 860 c 256,104,105
 286 852 286 852 290 844 c 256,106,107
 294 836 294 836 298 830 c 0,108,109
 304 826 304 826 312 822 c 256,110,111
 320 818 320 818 328 818 c 256,112,113
 336 818 336 818 344 822 c 256,114,115
 352 826 352 826 356 830 c 0,116,117
 362 836 362 836 366 844 c 0,118,119
 368 852 368 852 368 860 c 256,88,89
EndSplineSet
Validated: 5
Substitution2: "Single Substitution lookup 26 subtable" glyph311
Substitution2: "Single Substitution lookup 25 subtable" glyph305
EndChar

StartChar: h1.medi
Encoding: 65644 -1 95
Width: 574
GlyphClass: 2
Flags: W
LayerCount: 2
Fore
SplineSet
0 368 m 0,0,1
 0 532 0 532 82 614 c 256,2,3
 164 696 164 696 328 696 c 256,4,5
 492 696 492 696 574 614 c 256,6,7
 656 532 656 532 656 368 c 0,8,9
 656 328 656 328 656 328 c 257,10,11
 656 328 656 328 656 328 c 1,12,13
 656 286 656 286 614 286 c 0,14,15
 574 286 574 286 574 328 c 1,16,17
 574 328 574 328 574 328 c 257,18,19
 574 328 574 328 574 368 c 0,20,21
 574 492 574 492 512 552 c 0,22,23
 450 614 450 614 328 614 c 0,24,25
 204 614 204 614 144 552 c 0,26,27
 82 492 82 492 82 368 c 0,28,29
 82 328 82 328 82 204 c 0,30,31
 82 82 82 82 82 0 c 0,32,33
 82 -40 82 -40 40 -40 c 0,34,35
 0 -40 0 -40 0 0 c 256,36,37
 0 40 0 40 0 184 c 256,38,39
 0 328 0 328 0 368 c 0,0,1
414 772 m 0,40,41
 398 756 398 756 374 746 c 0,42,43
 352 736 352 736 328 736 c 256,44,45
 304 736 304 736 280 746 c 0,46,47
 258 756 258 756 240 772 c 0,48,49
 224 790 224 790 214 812 c 0,50,51
 204 836 204 836 204 860 c 256,52,53
 204 884 204 884 214 906 c 0,54,55
 224 930 224 930 240 946 c 0,56,57
 258 964 258 964 280 974 c 0,58,59
 304 984 304 984 328 984 c 256,60,61
 352 984 352 984 374 974 c 0,62,63
 398 964 398 964 414 946 c 0,64,65
 432 930 432 930 442 906 c 0,66,67
 450 884 450 884 450 860 c 256,68,69
 450 836 450 836 442 812 c 0,70,71
 432 790 432 790 414 772 c 0,40,41
368 860 m 256,72,73
 368 868 368 868 366 876 c 0,74,75
 362 884 362 884 356 888 c 0,76,77
 352 894 352 894 344 898 c 0,78,79
 336 900 336 900 328 900 c 256,80,81
 320 900 320 900 312 898 c 0,82,83
 304 894 304 894 298 888 c 0,84,85
 294 884 294 884 290 876 c 256,86,87
 286 868 286 868 286 860 c 256,88,89
 286 852 286 852 290 844 c 256,90,91
 294 836 294 836 298 830 c 0,92,93
 304 826 304 826 312 822 c 256,94,95
 320 818 320 818 328 818 c 256,96,97
 336 818 336 818 344 822 c 256,98,99
 352 826 352 826 356 830 c 0,100,101
 362 836 362 836 366 844 c 0,102,103
 368 852 368 852 368 860 c 256,72,73
EndSplineSet
Validated: 5
Substitution2: "Single Substitution lookup 26 subtable" glyph312
Substitution2: "Single Substitution lookup 25 subtable" glyph306
EndChar

StartChar: dz.isol
Encoding: 6255 6255 96
Width: 1148
GlyphClass: 2
Flags: W
LayerCount: 2
Fore
SplineSet
0 656 m 1,0,1
 0 656 0 656 90 648 c 0,2,3
 180 638 180 638 220 674 c 1,4,5
 314 578 314 578 404 488 c 256,6,7
 494 398 494 398 522 368 c 1,8,9
 564 368 564 368 610 368 c 256,10,11
 656 368 656 368 696 368 c 1,12,13
 696 342 696 342 696 286 c 1,14,15
 654 286 654 286 614 286 c 256,16,17
 574 286 574 286 574 286 c 257,18,19
 574 286 574 286 574 256 c 0,20,21
 574 224 574 224 574 204 c 0,22,23
 574 164 574 164 532 164 c 0,24,25
 492 164 492 164 492 204 c 0,26,27
 492 246 492 246 492 256 c 256,28,29
 492 266 492 266 492 286 c 1,30,31
 424 354 424 354 314 464 c 256,32,33
 204 574 204 574 164 614 c 0,34,35
 156 624 156 624 120 622 c 0,36,37
 82 620 82 620 82 614 c 0,38,39
 82 526 82 526 82 446 c 256,40,41
 82 366 82 366 82 328 c 0,42,43
 82 286 82 286 40 286 c 0,44,45
 0 286 0 286 0 328 c 0,46,47
 0 436 0 436 0 656 c 1,0,1
0 696 m 0,48,49
 82 696 82 696 164 696 c 256,50,51
 246 696 246 696 328 696 c 0,52,53
 368 696 368 696 368 656 c 0,54,55
 368 614 368 614 328 614 c 0,56,57
 218 614 218 614 0 614 c 0,58,59
 -40 614 -40 614 -40 656 c 0,60,61
 -40 696 -40 696 0 696 c 0,48,49
EndSplineSet
Validated: 37
Substitution2: "Single Substitution lookup 30 subtable" dz1.init
Substitution2: "'fina' Terminal Forms in Mongolian lookup 2 subtable" dz.fina
Substitution2: "'medi' Medial Forms in Mongolian lookup 1 subtable" dz.medi
Substitution2: "Required Feature in Latin lookup 0 subtable" dz.init
EndChar

StartChar: dz1.init
Encoding: 65645 -1 97
Width: 534
GlyphClass: 2
Flags: W
LayerCount: 2
Fore
SplineSet
0 656 m 1,0,1
 0 656 0 656 90 648 c 0,2,3
 180 638 180 638 220 674 c 1,4,5
 314 578 314 578 404 488 c 256,6,7
 494 398 494 398 522 368 c 0,8,9
 574 328 574 328 574 328 c 257,10,11
 574 328 574 328 532 286 c 1,12,13
 532 286 532 286 512 286 c 256,14,15
 492 286 492 286 492 286 c 1,16,17
 424 354 424 354 314 464 c 256,18,19
 204 574 204 574 164 614 c 0,20,21
 156 624 156 624 120 622 c 0,22,23
 82 620 82 620 82 614 c 0,24,25
 82 526 82 526 82 446 c 256,26,27
 82 366 82 366 82 328 c 0,28,29
 82 286 82 286 40 286 c 0,30,31
 0 286 0 286 0 328 c 0,32,33
 0 436 0 436 0 656 c 1,0,1
0 696 m 0,34,35
 82 696 82 696 164 696 c 256,36,37
 246 696 246 696 328 696 c 0,38,39
 368 696 368 696 368 656 c 0,40,41
 368 614 368 614 328 614 c 0,42,43
 218 614 218 614 0 614 c 0,44,45
 -40 614 -40 614 -40 656 c 0,46,47
 -40 696 -40 696 0 696 c 0,34,35
EndSplineSet
Validated: 37
EndChar

StartChar: dz.fina
Encoding: 65646 -1 98
Width: 574
GlyphClass: 2
Flags: W
LayerCount: 2
Fore
SplineSet
226 654 m 1,0,1
 266 610 266 610 300 568 c 0,2,3
 336 528 336 528 368 492 c 0,4,5
 394 462 394 462 416 438 c 0,6,7
 438 412 438 412 454 394 c 0,8,9
 472 376 472 376 482 382 c 0,10,11
 494 386 494 386 492 400 c 0,12,13
 492 458 492 458 492 494 c 0,14,15
 492 532 492 532 492 614 c 0,16,17
 492 656 492 656 532 656 c 0,18,19
 574 656 574 656 574 614 c 0,20,21
 574 368 574 368 574 338 c 0,22,23
 574 306 574 306 574 306 c 2,24,25
 572 262 572 262 534 252 c 256,26,27
 496 242 496 242 474 268 c 0,28,29
 452 288 452 288 424 318 c 256,30,31
 396 348 396 348 362 386 c 0,32,33
 286 470 286 470 202 564 c 0,34,35
 116 660 116 660 88 688 c 1,36,37
 164 696 164 696 194 676 c 0,38,39
 226 654 226 654 226 654 c 1,0,1
0 656 m 1,40,41
 26 656 26 656 54 656 c 0,42,43
 82 654 82 654 82 614 c 0,44,45
 82 526 82 526 82 384 c 0,46,47
 82 244 82 244 82 204 c 256,48,49
 82 164 82 164 40 164 c 0,50,51
 0 164 0 164 0 204 c 0,52,53
 0 354 0 354 0 656 c 1,40,41
0 696 m 0,54,55
 82 696 82 696 164 696 c 256,56,57
 246 696 246 696 328 696 c 0,58,59
 368 696 368 696 368 656 c 0,60,61
 368 614 368 614 328 614 c 0,62,63
 218 614 218 614 0 614 c 0,64,65
 -40 614 -40 614 -40 656 c 0,66,67
 -40 696 -40 696 0 696 c 0,54,55
EndSplineSet
Validated: 37
EndChar

StartChar: dz.medi
Encoding: 65647 -1 99
Width: 696
GlyphClass: 2
Flags: W
LayerCount: 2
Fore
SplineSet
0 656 m 1,0,1
 0 656 0 656 90 648 c 0,2,3
 180 638 180 638 220 674 c 1,4,5
 314 578 314 578 404 488 c 256,6,7
 494 398 494 398 522 368 c 1,8,9
 564 368 564 368 610 368 c 256,10,11
 656 368 656 368 696 368 c 1,12,13
 696 342 696 342 696 286 c 1,14,15
 654 286 654 286 614 286 c 256,16,17
 574 286 574 286 574 286 c 257,18,19
 574 286 574 286 574 256 c 0,20,21
 574 224 574 224 574 204 c 0,22,23
 574 164 574 164 532 164 c 0,24,25
 492 164 492 164 492 204 c 0,26,27
 492 246 492 246 492 256 c 256,28,29
 492 266 492 266 492 286 c 1,30,31
 424 354 424 354 314 464 c 256,32,33
 204 574 204 574 164 614 c 0,34,35
 156 624 156 624 120 622 c 0,36,37
 82 620 82 620 82 614 c 0,38,39
 82 526 82 526 82 384 c 0,40,41
 82 244 82 244 82 204 c 256,42,43
 82 164 82 164 40 164 c 0,44,45
 0 164 0 164 0 204 c 0,46,47
 0 354 0 354 0 656 c 1,0,1
0 696 m 0,48,49
 82 696 82 696 168 696 c 0,50,51
 256 696 256 696 328 696 c 0,52,53
 368 696 368 696 368 656 c 0,54,55
 368 614 368 614 328 614 c 0,56,57
 218 614 218 614 0 614 c 0,58,59
 -40 614 -40 614 -40 656 c 0,60,61
 -40 696 -40 696 0 696 c 0,48,49
EndSplineSet
Validated: 37
Substitution2: "Single Substitution lookup 30 subtable" dz1.medi
Substitution2: "Single Substitution lookup 26 subtable" glyph324
Substitution2: "Single Substitution lookup 6 subtable" dz1.medi
EndChar

StartChar: dz1.medi
Encoding: 65648 -1 100
Width: 534
GlyphClass: 2
Flags: W
LayerCount: 2
Fore
SplineSet
0 656 m 1,0,1
 0 656 0 656 90 648 c 0,2,3
 180 638 180 638 220 674 c 1,4,5
 314 578 314 578 404 488 c 256,6,7
 494 398 494 398 522 368 c 0,8,9
 574 328 574 328 574 328 c 257,10,11
 574 328 574 328 532 286 c 1,12,13
 532 286 532 286 512 286 c 256,14,15
 492 286 492 286 492 286 c 1,16,17
 424 354 424 354 314 464 c 256,18,19
 204 574 204 574 164 614 c 0,20,21
 156 624 156 624 120 622 c 0,22,23
 82 620 82 620 82 614 c 0,24,25
 82 526 82 526 82 384 c 0,26,27
 82 244 82 244 82 204 c 256,28,29
 82 164 82 164 40 164 c 0,30,31
 0 164 0 164 0 204 c 0,32,33
 0 354 0 354 0 656 c 1,0,1
0 696 m 0,34,35
 82 696 82 696 164 696 c 256,36,37
 246 696 246 696 328 696 c 0,38,39
 368 696 368 696 368 656 c 0,40,41
 368 614 368 614 328 614 c 0,42,43
 218 614 218 614 0 614 c 0,44,45
 -40 614 -40 614 -40 656 c 0,46,47
 -40 696 -40 696 0 696 c 0,34,35
EndSplineSet
Validated: 37
Substitution2: "Single Substitution lookup 26 subtable" glyph325
EndChar

StartChar: ts.isol
Encoding: 6254 6254 101
Width: 696
GlyphClass: 2
Flags: W
LayerCount: 2
Fore
SplineSet
0 656 m 1,0,1
 0 656 0 656 90 648 c 0,2,3
 180 638 180 638 220 674 c 1,4,5
 314 578 314 578 404 488 c 256,6,7
 494 398 494 398 522 368 c 1,8,9
 564 368 564 368 610 368 c 256,10,11
 656 368 656 368 696 368 c 1,12,13
 696 342 696 342 696 286 c 1,14,15
 654 286 654 286 614 286 c 256,16,17
 574 286 574 286 574 286 c 257,18,19
 574 286 574 286 574 256 c 0,20,21
 574 224 574 224 574 204 c 0,22,23
 574 164 574 164 532 164 c 0,24,25
 492 164 492 164 492 204 c 0,26,27
 492 246 492 246 492 256 c 256,28,29
 492 266 492 266 492 286 c 1,30,31
 424 354 424 354 314 464 c 256,32,33
 204 574 204 574 164 614 c 0,34,35
 156 624 156 624 120 622 c 0,36,37
 82 620 82 620 82 614 c 0,38,39
 82 526 82 526 82 446 c 256,40,41
 82 366 82 366 82 328 c 0,42,43
 82 286 82 286 40 286 c 0,44,45
 0 286 0 286 0 328 c 0,46,47
 0 436 0 436 0 656 c 1,0,1
0 696 m 0,48,49
 82 696 82 696 328 696 c 0,50,51
 368 696 368 696 368 656 c 0,52,53
 368 614 368 614 328 614 c 0,54,55
 218 614 218 614 0 614 c 0,56,57
 -40 614 -40 614 -40 656 c 0,58,59
 -40 696 -40 696 0 696 c 0,48,49
82 778 m 0,60,61
 82 820 82 820 122 820 c 0,62,63
 164 820 164 820 164 778 c 0,64,65
 164 738 164 738 164 656 c 1,66,67
 144 656 144 656 82 656 c 1,68,69
 82 686 82 686 82 778 c 0,60,61
EndSplineSet
Validated: 37
Substitution2: "'fina' Terminal Forms in Mongolian lookup 2 subtable" ts.fina
Substitution2: "'medi' Medial Forms in Mongolian lookup 1 subtable" ts.medi
Substitution2: "Required Feature in Latin lookup 0 subtable" ts.init
EndChar

StartChar: ts.medi
Encoding: 65649 -1 102
Width: 696
GlyphClass: 2
Flags: W
LayerCount: 2
Fore
SplineSet
0 656 m 1,0,1
 0 656 0 656 90 648 c 0,2,3
 180 638 180 638 220 674 c 1,4,5
 314 578 314 578 404 488 c 256,6,7
 494 398 494 398 522 368 c 1,8,9
 564 368 564 368 610 368 c 256,10,11
 656 368 656 368 696 368 c 1,12,13
 696 342 696 342 696 286 c 1,14,15
 654 286 654 286 614 286 c 256,16,17
 574 286 574 286 574 286 c 257,18,19
 574 286 574 286 574 256 c 0,20,21
 574 224 574 224 574 204 c 0,22,23
 574 164 574 164 532 164 c 0,24,25
 492 164 492 164 492 204 c 0,26,27
 492 246 492 246 492 256 c 256,28,29
 492 266 492 266 492 286 c 1,30,31
 424 354 424 354 314 464 c 256,32,33
 204 574 204 574 164 614 c 0,34,35
 156 624 156 624 120 622 c 0,36,37
 82 620 82 620 82 614 c 0,38,39
 82 526 82 526 82 384 c 0,40,41
 82 244 82 244 82 204 c 256,42,43
 82 164 82 164 40 164 c 0,44,45
 0 164 0 164 0 204 c 0,46,47
 0 354 0 354 0 656 c 1,0,1
0 696 m 0,48,49
 82 696 82 696 328 696 c 0,50,51
 368 696 368 696 368 656 c 0,52,53
 368 614 368 614 328 614 c 0,54,55
 218 614 218 614 0 614 c 0,56,57
 -40 614 -40 614 -40 656 c 0,58,59
 -40 696 -40 696 0 696 c 0,48,49
82 778 m 0,60,61
 82 820 82 820 122 820 c 0,62,63
 164 820 164 820 164 778 c 0,64,65
 164 738 164 738 164 656 c 1,66,67
 144 656 144 656 82 656 c 1,68,69
 82 686 82 686 82 778 c 0,60,61
EndSplineSet
Validated: 37
Substitution2: "Single Substitution lookup 26 subtable" glyph326
EndChar

StartChar: s.isol
Encoding: 6192 6192 103
Width: 738
GlyphClass: 2
Flags: W
LayerCount: 2
Fore
SplineSet
0 778 m 0,0,1
 0 780 0 780 0 780 c 2,2,3
 0 838 0 838 48 856 c 0,4,5
 68 862 68 862 86 862 c 0,6,7
 110 862 110 862 128 846 c 0,8,9
 222 750 222 750 378 574 c 256,10,11
 534 398 534 398 564 368 c 1,12,13
 604 368 604 368 650 368 c 256,14,15
 696 368 696 368 738 368 c 1,16,17
 738 342 738 342 738 286 c 1,18,19
 694 286 694 286 654 286 c 256,20,21
 614 286 614 286 614 286 c 257,22,23
 614 286 614 286 614 256 c 0,24,25
 614 224 614 224 614 204 c 0,26,27
 614 164 614 164 574 164 c 0,28,29
 532 164 532 164 532 204 c 0,30,31
 532 246 532 246 532 256 c 256,32,33
 532 266 532 266 532 286 c 1,34,35
 464 354 464 354 318 522 c 0,36,37
 170 688 170 688 130 728 c 0,38,39
 118 742 118 742 100 738 c 256,40,41
 82 734 82 734 82 720 c 0,42,43
 82 632 82 632 82 498 c 0,44,45
 82 366 82 366 82 328 c 0,46,47
 82 286 82 286 40 286 c 0,48,49
 0 286 0 286 0 328 c 0,50,51
 0 478 0 478 0 778 c 0,0,1
EndSplineSet
Validated: 1
Substitution2: "'fina' Terminal Forms in Mongolian lookup 2 subtable" s.fina
Substitution2: "'medi' Medial Forms in Mongolian lookup 1 subtable" s.medi
Substitution2: "Required Feature in Latin lookup 0 subtable" s.init
EndChar

StartChar: s.fina
Encoding: 65650 -1 104
Width: 616
GlyphClass: 2
Flags: W
LayerCount: 2
Fore
SplineSet
0 778 m 0,0,1
 0 780 0 780 0 780 c 2,2,3
 0 838 0 838 48 856 c 0,4,5
 68 862 68 862 86 862 c 0,6,7
 110 862 110 862 128 846 c 0,8,9
 204 768 204 768 322 634 c 0,10,11
 438 500 438 500 496 434 c 0,12,13
 512 418 512 418 524 422 c 0,14,15
 534 426 534 426 534 442 c 0,16,17
 534 498 534 498 532 536 c 0,18,19
 532 574 532 574 532 656 c 0,20,21
 532 696 532 696 574 696 c 0,22,23
 614 696 614 696 614 656 c 0,24,25
 614 410 614 410 614 378 c 0,26,27
 614 348 614 348 614 348 c 2,28,29
 614 304 614 304 576 292 c 0,30,31
 538 282 538 282 514 308 c 0,32,33
 446 376 446 376 308 532 c 256,34,35
 170 688 170 688 130 728 c 0,36,37
 118 742 118 742 100 738 c 256,38,39
 82 734 82 734 82 720 c 0,40,41
 82 632 82 632 82 438 c 256,42,43
 82 244 82 244 82 204 c 256,44,45
 82 164 82 164 40 164 c 0,46,47
 0 164 0 164 0 204 c 0,48,49
 0 396 0 396 0 778 c 0,0,1
EndSplineSet
Validated: 33
EndChar

StartChar: s.medi
Encoding: 65651 -1 105
Width: 738
GlyphClass: 2
Flags: W
LayerCount: 2
Fore
SplineSet
0 778 m 0,0,1
 0 780 0 780 0 780 c 2,2,3
 0 838 0 838 48 856 c 0,4,5
 68 862 68 862 86 862 c 0,6,7
 110 862 110 862 128 846 c 0,8,9
 222 750 222 750 378 574 c 256,10,11
 534 398 534 398 564 368 c 1,12,13
 604 368 604 368 650 368 c 256,14,15
 696 368 696 368 738 368 c 1,16,17
 738 342 738 342 738 286 c 1,18,19
 694 286 694 286 654 286 c 256,20,21
 614 286 614 286 614 286 c 257,22,23
 614 286 614 286 614 256 c 0,24,25
 614 224 614 224 614 204 c 0,26,27
 614 164 614 164 574 164 c 0,28,29
 532 164 532 164 532 204 c 0,30,31
 532 246 532 246 532 256 c 256,32,33
 532 266 532 266 532 286 c 1,34,35
 464 354 464 354 318 522 c 0,36,37
 170 688 170 688 130 728 c 0,38,39
 118 742 118 742 100 738 c 256,40,41
 82 734 82 734 82 720 c 0,42,43
 82 632 82 632 82 438 c 256,44,45
 82 244 82 244 82 204 c 256,46,47
 82 164 82 164 40 164 c 0,48,49
 0 164 0 164 0 204 c 0,50,51
 0 396 0 396 0 778 c 0,0,1
EndSplineSet
Validated: 1
Substitution2: "Single Substitution lookup 26 subtable" glyph327
EndChar

StartChar: j.isol
Encoding: 6197 6197 106
Width: 206
GlyphClass: 2
Flags: W
LayerCount: 2
Fore
SplineSet
0 368 m 1,0,1
 40 368 40 368 102 368 c 256,2,3
 164 368 164 368 204 368 c 1,4,5
 204 328 204 328 204 328 c 257,6,7
 204 328 204 328 204 286 c 1,8,9
 164 286 164 286 134 286 c 0,10,11
 102 286 102 286 82 286 c 1,12,13
 82 246 82 246 82 132 c 256,14,15
 82 18 82 18 82 0 c 0,16,17
 82 -40 82 -40 40 -40 c 0,18,19
 0 -40 0 -40 0 0 c 0,20,21
 0 88 0 88 0 166 c 0,22,23
 0 246 0 246 0 286 c 0,24,25
 0 328 0 328 0 328 c 257,26,27
 0 328 0 328 0 368 c 1,0,1
EndSplineSet
Validated: 1
Substitution2: "'fina' Terminal Forms in Mongolian lookup 2 subtable" j.fina
Substitution2: "'medi' Medial Forms in Mongolian lookup 1 subtable" j.medi
Substitution2: "Required Feature in Latin lookup 0 subtable" j.init
EndChar

StartChar: j.medi
Encoding: 65652 -1 107
Width: 326
GlyphClass: 2
Flags: W
LayerCount: 2
Fore
SplineSet
328 368 m 1,0,1
 328 368 328 368 328 348 c 256,2,3
 328 328 328 328 328 286 c 1,4,5
 174 286 174 286 108 286 c 0,6,7
 40 286 40 286 0 286 c 1,8,9
 0 328 0 328 0 328 c 257,10,11
 0 328 0 328 0 368 c 1,12,13
 40 368 40 368 108 368 c 0,14,15
 174 368 174 368 328 368 c 1,0,1
-122 40 m 0,16,17
 0 40 0 40 62 102 c 0,18,19
 122 164 122 164 122 286 c 0,20,21
 122 368 122 368 122 334 c 256,22,23
 122 300 122 300 122 328 c 1,24,25
 150 328 150 328 204 328 c 1,26,27
 204 318 204 318 204 286 c 0,28,29
 204 122 204 122 122 40 c 0,30,31
 40 -40 40 -40 -122 -40 c 0,32,33
 -164 -40 -164 -40 -164 0 c 256,34,35
 -164 40 -164 40 -122 40 c 0,16,17
EndSplineSet
Validated: 5
EndChar

StartChar: c.isol
Encoding: 6196 6196 108
Width: 492
GlyphClass: 2
Flags: W
LayerCount: 2
Fore
SplineSet
492 368 m 128,-1,1
 492 368 492 368 492 322 c 4,2,3
 492 288 492 288 492 286 c 4,4,5
 338 286 338 286 190 286 c 0,6,7
 40 286 40 286 0 286 c 256,8,9
 -40 286 -40 286 -40 328 c 128,-1,10
 -40 370 -40 370 0 368 c 256,11,12
 190 366 190 366 190 368 c 0,13,14
 492 368 492 368 492 368 c 128,-1,1
204 40 m 0,15,16
 246 40 246 40 266 62 c 0,17,18
 286 82 286 82 286 122 c 0,19,20
 286 204 286 204 286 252 c 256,21,22
 286 300 286 300 286 328 c 1,23,24
 314 328 314 328 368 328 c 1,25,26
 368 276 368 276 368 122 c 0,27,28
 368 40 368 40 328 0 c 0,29,30
 286 -40 286 -40 204 -40 c 0,31,32
 136 -40 136 -40 0 -40 c 0,33,34
 -40 -40 -40 -40 -40 0 c 256,35,36
 -40 40 -40 40 0 40 c 0,37,38
 62 40 62 40 112 40 c 0,39,40
 164 40 164 40 204 40 c 0,15,16
EndSplineSet
Validated: 37
Substitution2: "'fina' Terminal Forms in Mongolian lookup 2 subtable" c.fina
Substitution2: "'medi' Medial Forms in Mongolian lookup 1 subtable" c.medi
Substitution2: "Required Feature in Latin lookup 0 subtable" c.init
EndChar

StartChar: c.medi
Encoding: 65653 -1 109
Width: 492
GlyphClass: 2
Flags: W
LayerCount: 2
Fore
SplineSet
492 368 m 0,0,1
 492 328 492 328 492 328 c 0,2,3
 492 286 492 286 492 286 c 0,4,5
 338 286 338 286 190 286 c 0,6,7
 40 286 40 286 0 286 c 256,8,9
 -40 286 -40 286 -40 328 c 0,10,11
 -40 368 -40 368 0 368 c 256,12,13
 40 368 40 368 190 368 c 0,14,15
 492 368 492 368 492 368 c 0,0,1
204 40 m 0,16,17
 246 40 246 40 266 62 c 0,18,19
 286 82 286 82 286 122 c 0,20,21
 286 204 286 204 286 252 c 256,22,23
 286 300 286 300 286 328 c 1,24,25
 314 328 314 328 368 328 c 1,26,27
 368 276 368 276 368 122 c 0,28,29
 368 40 368 40 328 0 c 0,30,31
 286 -40 286 -40 204 -40 c 0,32,33
 136 -40 136 -40 0 -40 c 0,34,35
 -40 -40 -40 -40 -40 0 c 256,36,37
 -40 40 -40 40 0 40 c 0,38,39
 62 40 62 40 112 40 c 0,40,41
 164 40 164 40 204 40 c 0,16,17
EndSplineSet
Validated: 5
EndChar

StartChar: x.isol
Encoding: 6247 6247 110
Width: 778
GlyphClass: 2
Flags: W
LayerCount: 2
Fore
SplineSet
0 794 m 0,0,1
 0 796 0 796 0 798 c 0,2,3
 -2 854 -2 854 48 872 c 0,4,5
 68 880 68 880 84 880 c 0,6,7
 110 880 110 880 128 862 c 0,8,9
 222 766 222 766 398 582 c 0,10,11
 576 398 576 398 604 368 c 1,12,13
 644 368 644 368 692 368 c 0,14,15
 738 368 738 368 778 368 c 1,16,17
 778 342 778 342 778 286 c 1,18,19
 738 286 738 286 696 286 c 0,20,21
 656 286 656 286 656 286 c 257,22,23
 656 286 656 286 656 256 c 0,24,25
 656 224 656 224 656 204 c 0,26,27
 656 164 656 164 614 164 c 0,28,29
 574 164 574 164 574 204 c 0,30,31
 574 246 574 246 574 256 c 256,32,33
 574 266 574 266 574 286 c 1,34,35
 506 354 506 354 338 530 c 0,36,37
 170 704 170 704 128 744 c 0,38,39
 116 760 116 760 100 756 c 0,40,41
 82 752 82 752 82 738 c 0,42,43
 82 648 82 648 82 528 c 0,44,45
 82 406 82 406 82 368 c 0,46,47
 82 328 82 328 62 328 c 0,48,49
 40 328 40 328 0 286 c 1,50,51
 0 456 0 456 0 794 c 0,0,1
0 368 m 1,52,53
 164 368 164 368 246 286 c 256,54,55
 328 204 328 204 328 40 c 0,56,57
 328 0 328 0 286 0 c 0,58,59
 246 0 246 0 246 40 c 0,60,61
 246 164 246 164 184 226 c 0,62,63
 122 286 122 286 0 286 c 1,64,65
 0 328 0 328 0 328 c 257,66,67
 0 328 0 328 0 368 c 1,52,53
EndSplineSet
Validated: 37
Substitution2: "'fina' Terminal Forms in Mongolian lookup 2 subtable" x.fina
Substitution2: "'medi' Medial Forms in Mongolian lookup 1 subtable" x.medi
Substitution2: "Required Feature in Latin lookup 0 subtable" x.init
EndChar

StartChar: x.fina
Encoding: 65654 -1 111
Width: 616
GlyphClass: 2
Flags: W
LayerCount: 2
Fore
SplineSet
0 778 m 0,0,1
 0 780 0 780 0 780 c 2,2,3
 0 838 0 838 48 856 c 0,4,5
 68 862 68 862 86 862 c 0,6,7
 110 862 110 862 128 846 c 0,8,9
 204 768 204 768 322 634 c 0,10,11
 438 500 438 500 496 434 c 0,12,13
 512 418 512 418 524 422 c 0,14,15
 534 426 534 426 534 442 c 0,16,17
 534 498 534 498 532 536 c 0,18,19
 532 574 532 574 532 656 c 0,20,21
 532 696 532 696 574 696 c 0,22,23
 614 696 614 696 614 656 c 0,24,25
 614 410 614 410 614 378 c 0,26,27
 614 348 614 348 614 348 c 2,28,29
 614 304 614 304 576 292 c 0,30,31
 538 282 538 282 514 308 c 0,32,33
 446 376 446 376 308 532 c 256,34,35
 170 688 170 688 130 728 c 0,36,37
 118 742 118 742 100 738 c 256,38,39
 82 734 82 734 82 720 c 0,40,41
 82 632 82 632 82 438 c 256,42,43
 82 244 82 244 82 204 c 256,44,45
 82 164 82 164 40 164 c 0,46,47
 0 164 0 164 0 204 c 0,48,49
 0 396 0 396 0 778 c 0,0,1
0 368 m 1,50,51
 164 368 164 368 246 286 c 256,52,53
 328 204 328 204 328 40 c 0,54,55
 328 0 328 0 286 0 c 0,56,57
 246 0 246 0 246 40 c 0,58,59
 246 164 246 164 184 226 c 0,60,61
 122 286 122 286 0 286 c 1,62,63
 0 328 0 328 0 328 c 257,64,65
 0 328 0 328 0 368 c 1,50,51
EndSplineSet
Validated: 37
EndChar

StartChar: x.medi
Encoding: 65655 -1 112
Width: 778
GlyphClass: 2
Flags: W
LayerCount: 2
Fore
SplineSet
0 794 m 0,0,1
 0 796 0 796 0 798 c 0,2,3
 -2 854 -2 854 48 872 c 0,4,5
 68 880 68 880 84 880 c 0,6,7
 110 880 110 880 128 862 c 0,8,9
 222 766 222 766 398 582 c 0,10,11
 576 398 576 398 604 368 c 1,12,13
 644 368 644 368 692 368 c 0,14,15
 738 368 738 368 778 368 c 1,16,17
 778 342 778 342 778 286 c 1,18,19
 738 286 738 286 696 286 c 0,20,21
 656 286 656 286 656 286 c 257,22,23
 656 286 656 286 656 256 c 0,24,25
 656 224 656 224 656 204 c 0,26,27
 656 164 656 164 614 164 c 0,28,29
 574 164 574 164 574 204 c 0,30,31
 574 246 574 246 574 256 c 256,32,33
 574 266 574 266 574 286 c 1,34,35
 506 354 506 354 338 530 c 0,36,37
 170 704 170 704 128 744 c 0,38,39
 116 760 116 760 100 756 c 0,40,41
 82 752 82 752 82 738 c 0,42,43
 82 368 82 368 82 328 c 0,44,45
 82 286 82 286 82 204 c 0,46,47
 82 164 82 164 40 164 c 0,48,49
 0 164 0 164 0 204 c 0,50,51
 0 402 0 402 0 794 c 0,0,1
0 368 m 1,52,53
 164 368 164 368 246 286 c 256,54,55
 328 204 328 204 328 40 c 0,56,57
 328 0 328 0 286 0 c 0,58,59
 246 0 246 0 246 40 c 0,60,61
 246 164 246 164 184 226 c 0,62,63
 122 286 122 286 0 286 c 1,64,65
 0 328 0 328 0 328 c 257,66,67
 0 328 0 328 0 368 c 1,52,53
EndSplineSet
Validated: 37
Substitution2: "Single Substitution lookup 26 subtable" glyph328
EndChar

StartChar: rh.isol
Encoding: 6256 6256 113
Width: 206
GlyphClass: 2
Flags: W
LayerCount: 2
Fore
SplineSet
0 0 m 0,0,1
 0 -40 0 -40 40 -40 c 0,2,3
 82 -40 82 -40 82 0 c 0,4,5
 82 218 82 218 82 656 c 0,6,7
 82 696 82 696 40 696 c 0,8,9
 0 696 0 696 0 656 c 0,10,11
 0 436 0 436 0 0 c 0,0,1
40 286 m 1,12,13
 82 286 82 286 204 286 c 1,14,15
 204 308 204 308 204 368 c 1,16,17
 164 368 164 368 40 368 c 1,18,19
 40 348 40 348 40 286 c 1,12,13
EndSplineSet
Validated: 5
Substitution2: "'fina' Terminal Forms in Mongolian lookup 2 subtable" rh.fina
Substitution2: "'medi' Medial Forms in Mongolian lookup 1 subtable" rh.medi
Substitution2: "Required Feature in Latin lookup 0 subtable" rh.init
EndChar

StartChar: rh.medi
Encoding: 65656 -1 114
Width: 206
GlyphClass: 2
Flags: W
LayerCount: 2
Fore
SplineSet
0 0 m 0,0,1
 0 -40 0 -40 40 -40 c 0,2,3
 82 -40 82 -40 82 0 c 0,4,5
 82 218 82 218 82 656 c 0,6,7
 82 696 82 696 40 696 c 0,8,9
 0 696 0 696 0 656 c 0,10,11
 0 436 0 436 0 0 c 0,0,1
40 286 m 1,12,13
 82 286 82 286 204 286 c 1,14,15
 204 308 204 308 204 368 c 1,16,17
 164 368 164 368 40 368 c 1,18,19
 40 348 40 348 40 286 c 1,12,13
EndSplineSet
Validated: 5
EndChar

StartChar: r.isol
Encoding: 6261 6261 115
Width: 328
GlyphClass: 2
Flags: W
LayerCount: 2
Fore
SplineSet
0 368 m 1,0,1
 40 368 40 368 164 368 c 0,2,3
 286 368 286 368 328 368 c 1,4,5
 328 328 328 328 328 328 c 257,6,7
 328 328 328 328 328 286 c 1,8,9
 286 286 286 286 194 286 c 256,10,11
 102 286 102 286 82 286 c 1,12,13
 82 246 82 246 82 132 c 256,14,15
 82 18 82 18 82 0 c 0,16,17
 82 -40 82 -40 40 -40 c 0,18,19
 0 -40 0 -40 0 0 c 0,20,21
 0 88 0 88 0 166 c 0,22,23
 0 246 0 246 0 286 c 0,24,25
 0 328 0 328 0 328 c 257,26,27
 0 328 0 328 0 368 c 1,0,1
82 164 m 0,28,29
 204 164 204 164 266 102 c 256,30,31
 328 40 328 40 328 -82 c 0,32,33
 328 -122 328 -122 286 -122 c 0,34,35
 246 -122 246 -122 246 -82 c 0,36,37
 246 0 246 0 204 40 c 0,38,39
 164 82 164 82 82 82 c 0,40,41
 40 82 40 82 40 122 c 0,42,43
 40 164 40 164 82 164 c 0,28,29
EndSplineSet
Validated: 5
Substitution2: "'fina' Terminal Forms in Mongolian lookup 2 subtable" r.fina
Substitution2: "'medi' Medial Forms in Mongolian lookup 1 subtable" r.medi
Substitution2: "Required Feature in Latin lookup 0 subtable" r.init
EndChar

StartChar: rs.fina
Encoding: 65657 -1 116
Width: 656
GlyphClass: 2
Flags: W
LayerCount: 2
Fore
SplineSet
0 368 m 0,0,1
 0 532 0 532 82 614 c 256,2,3
 164 696 164 696 328 696 c 256,4,5
 492 696 492 696 574 614 c 256,6,7
 656 532 656 532 656 368 c 0,8,9
 656 328 656 328 656 328 c 257,10,11
 656 328 656 328 656 328 c 1,12,13
 656 286 656 286 614 286 c 0,14,15
 574 286 574 286 574 328 c 1,16,17
 574 328 574 328 574 328 c 257,18,19
 574 328 574 328 574 368 c 0,20,21
 574 492 574 492 512 552 c 0,22,23
 450 614 450 614 328 614 c 0,24,25
 204 614 204 614 144 552 c 0,26,27
 82 492 82 492 82 368 c 0,28,29
 82 328 82 328 82 204 c 0,30,31
 82 82 82 82 82 0 c 0,32,33
 82 -40 82 -40 40 -40 c 0,34,35
 0 -40 0 -40 0 0 c 256,36,37
 0 40 0 40 0 184 c 256,38,39
 0 328 0 328 0 368 c 0,0,1
82 204 m 0,40,41
 204 204 204 204 266 144 c 0,42,43
 328 82 328 82 328 -40 c 0,44,45
 328 -82 328 -82 286 -82 c 0,46,47
 246 -82 246 -82 246 -40 c 0,48,49
 246 40 246 40 204 82 c 0,50,51
 164 122 164 122 82 122 c 0,52,53
 40 122 40 122 40 164 c 0,54,55
 40 204 40 204 82 204 c 0,40,41
EndSplineSet
Validated: 5
EndChar

StartChar: r.fina
Encoding: 65658 -1 117
Width: 534
GlyphClass: 2
Flags: W
LayerCount: 2
Fore
SplineSet
0 368 m 1,0,1
 40 368 40 368 164 368 c 0,2,3
 286 368 286 368 328 368 c 1,4,5
 328 328 328 328 328 328 c 257,6,7
 328 328 328 328 328 286 c 1,8,9
 286 286 286 286 194 286 c 256,10,11
 102 286 102 286 82 286 c 1,12,13
 82 246 82 246 82 132 c 256,14,15
 82 18 82 18 82 0 c 0,16,17
 82 -40 82 -40 40 -40 c 0,18,19
 0 -40 0 -40 0 0 c 0,20,21
 0 88 0 88 0 166 c 0,22,23
 0 246 0 246 0 286 c 0,24,25
 0 328 0 328 0 328 c 257,26,27
 0 328 0 328 0 368 c 1,0,1
82 164 m 0,28,29
 204 164 204 164 266 102 c 256,30,31
 328 40 328 40 328 -82 c 0,32,33
 328 -122 328 -122 286 -122 c 0,34,35
 246 -122 246 -122 246 -82 c 0,36,37
 246 0 246 0 204 40 c 0,38,39
 164 82 164 82 82 82 c 0,40,41
 40 82 40 82 40 122 c 0,42,43
 40 164 40 164 82 164 c 0,28,29
328 368 m 0,44,45
 492 368 492 368 574 286 c 256,46,47
 656 204 656 204 656 40 c 0,48,49
 656 0 656 0 614 0 c 0,50,51
 574 0 574 0 574 40 c 0,52,53
 574 164 574 164 512 226 c 0,54,55
 450 286 450 286 328 286 c 0,56,57
 286 286 286 286 286 328 c 0,58,59
 286 368 286 368 328 368 c 0,44,45
EndSplineSet
Validated: 5
EndChar

StartChar: r.medi
Encoding: 65659 -1 118
Width: 328
GlyphClass: 2
Flags: W
LayerCount: 2
Fore
SplineSet
0 368 m 1,0,1
 40 368 40 368 164 368 c 0,2,3
 286 368 286 368 328 368 c 1,4,5
 328 328 328 328 328 328 c 257,6,7
 328 328 328 328 328 286 c 1,8,9
 286 286 286 286 194 286 c 256,10,11
 102 286 102 286 82 286 c 1,12,13
 82 246 82 246 82 132 c 256,14,15
 82 18 82 18 82 0 c 0,16,17
 82 -40 82 -40 40 -40 c 0,18,19
 0 -40 0 -40 0 0 c 0,20,21
 0 88 0 88 0 166 c 0,22,23
 0 246 0 246 0 286 c 0,24,25
 0 328 0 328 0 328 c 257,26,27
 0 328 0 328 0 368 c 1,0,1
82 164 m 0,28,29
 204 164 204 164 266 102 c 256,30,31
 328 40 328 40 328 -82 c 0,32,33
 328 -122 328 -122 286 -122 c 0,34,35
 246 -122 246 -122 246 -82 c 0,36,37
 246 0 246 0 204 40 c 0,38,39
 164 82 164 82 82 82 c 0,40,41
 40 82 40 82 40 122 c 0,42,43
 40 164 40 164 82 164 c 0,28,29
EndSplineSet
Validated: 5
Substitution2: "Single Substitution lookup 26 subtable" glyph333
EndChar

StartChar: y.isol
Encoding: 6198 6198 119
Width: 370
GlyphClass: 2
Flags: W
LayerCount: 2
Fore
SplineSet
164 368 m 1,0,1
 204 368 204 368 266 368 c 256,2,3
 328 368 328 368 368 368 c 1,4,5
 368 328 368 328 368 328 c 257,6,7
 368 328 368 328 368 286 c 1,8,9
 328 286 328 286 298 286 c 0,10,11
 266 286 266 286 246 286 c 1,12,13
 246 246 246 246 246 102 c 0,14,15
 246 -40 246 -40 246 -122 c 256,16,17
 246 -204 246 -204 204 -246 c 0,18,19
 164 -286 164 -286 82 -286 c 0,20,21
 40 -286 40 -286 42 -286 c 1,22,23
 42 -286 42 -286 0 -286 c 0,24,25
 -40 -286 -40 -286 -40 -246 c 0,26,27
 -40 -204 -40 -204 0 -204 c 256,28,29
 40 -204 40 -204 40 -204 c 257,30,31
 40 -204 40 -204 82 -204 c 0,32,33
 122 -204 122 -204 144 -184 c 0,34,35
 164 -164 164 -164 164 -122 c 0,36,37
 164 76 164 76 164 152 c 0,38,39
 164 226 164 226 164 368 c 1,0,1
EndSplineSet
Validated: 1
Substitution2: "'fina' Terminal Forms in Mongolian lookup 2 subtable" y.fina
Substitution2: "'medi' Medial Forms in Mongolian lookup 1 subtable" y.medi
Substitution2: "Required Feature in Latin lookup 0 subtable" y.init
EndChar

StartChar: y.medi
Encoding: 65660 -1 120
Width: 206
GlyphClass: 2
Flags: W
LayerCount: 2
Fore
SplineSet
0 368 m 1,0,1
 40 368 40 368 102 368 c 256,2,3
 164 368 164 368 204 368 c 1,4,5
 204 328 204 328 204 328 c 257,6,7
 204 328 204 328 204 286 c 1,8,9
 164 286 164 286 134 286 c 0,10,11
 102 286 102 286 82 286 c 1,12,13
 82 246 82 246 82 102 c 0,14,15
 82 -40 82 -40 82 -122 c 256,16,17
 82 -204 82 -204 40 -246 c 0,18,19
 0 -286 0 -286 -82 -286 c 0,20,21
 -122 -286 -122 -286 -122 -286 c 257,22,23
 -122 -286 -122 -286 -164 -286 c 0,24,25
 -204 -286 -204 -286 -204 -246 c 0,26,27
 -204 -204 -204 -204 -164 -204 c 0,28,29
 -122 -204 -122 -204 -122 -204 c 257,30,31
 -122 -204 -122 -204 -82 -204 c 0,32,33
 -40 -204 -40 -204 -20 -184 c 256,34,35
 0 -164 0 -164 0 -122 c 0,36,37
 0 76 0 76 0 152 c 0,38,39
 0 226 0 226 0 368 c 1,0,1
EndSplineSet
Validated: 1
Substitution2: "Single Substitution lookup 26 subtable" glyph335
EndChar

StartChar: w.isol
Encoding: 6200 6200 121
Width: 206
GlyphClass: 2
Flags: W
LayerCount: 2
Fore
SplineSet
0 368 m 1,0,1
 40 368 40 368 102 368 c 256,2,3
 164 368 164 368 204 368 c 1,4,5
 204 328 204 328 204 328 c 257,6,7
 204 328 204 328 204 286 c 1,8,9
 164 286 164 286 134 286 c 0,10,11
 102 286 102 286 82 286 c 1,12,13
 82 246 82 246 82 102 c 0,14,15
 82 -40 82 -40 82 -122 c 0,16,17
 82 -164 82 -164 102 -184 c 256,18,19
 122 -204 122 -204 164 -204 c 0,20,21
 204 -204 204 -204 204 -204 c 257,22,23
 204 -204 204 -204 204 -204 c 1,24,25
 246 -204 246 -204 246 -246 c 0,26,27
 246 -286 246 -286 204 -286 c 0,28,29
 164 -286 164 -286 164 -286 c 257,30,31
 164 -286 164 -286 164 -286 c 1,32,33
 82 -286 82 -286 40 -246 c 0,34,35
 0 -204 0 -204 0 -122 c 0,36,37
 0 76 0 76 0 152 c 0,38,39
 0 226 0 226 0 368 c 1,0,1
EndSplineSet
Validated: 5
Substitution2: "'fina' Terminal Forms in Mongolian lookup 2 subtable" w.fina
Substitution2: "'medi' Medial Forms in Mongolian lookup 1 subtable" w.medi
Substitution2: "Required Feature in Latin lookup 0 subtable" w.init
EndChar

StartChar: w.medi
Encoding: 65661 -1 122
Width: 206
GlyphClass: 2
Flags: W
LayerCount: 2
Fore
SplineSet
0 368 m 1,0,1
 40 368 40 368 102 368 c 256,2,3
 164 368 164 368 204 368 c 1,4,5
 204 328 204 328 204 328 c 257,6,7
 204 328 204 328 204 286 c 1,8,9
 164 286 164 286 134 286 c 0,10,11
 102 286 102 286 82 286 c 1,12,13
 82 246 82 246 82 102 c 0,14,15
 82 -40 82 -40 82 -122 c 0,16,17
 82 -164 82 -164 102 -184 c 256,18,19
 122 -204 122 -204 164 -204 c 0,20,21
 204 -204 204 -204 204 -204 c 257,22,23
 204 -204 204 -204 204 -204 c 1,24,25
 246 -204 246 -204 246 -246 c 0,26,27
 246 -286 246 -286 204 -286 c 0,28,29
 164 -286 164 -286 164 -286 c 257,30,31
 164 -286 164 -286 164 -286 c 1,32,33
 82 -286 82 -286 40 -246 c 0,34,35
 0 -204 0 -204 0 -122 c 0,36,37
 0 76 0 76 0 152 c 0,38,39
 0 226 0 226 0 368 c 1,0,1
EndSplineSet
Validated: 5
Substitution2: "Single Substitution lookup 26 subtable" glyph336
EndChar

StartChar: ngs.isol
Encoding: 6242 6242 123
Width: 614
GlyphClass: 2
Flags: W
LayerCount: 2
Fore
SplineSet
0 368 m 1,0,1
 0 368 0 368 20 368 c 256,2,3
 40 368 40 368 0 368 c 1,4,5
 40 368 40 368 102 368 c 256,6,7
 164 368 164 368 204 368 c 0,8,9
 246 368 246 368 246 328 c 0,10,11
 246 286 246 286 204 286 c 0,12,13
 164 286 164 286 144 286 c 0,14,15
 122 286 122 286 82 286 c 1,16,17
 82 286 82 286 82 266 c 256,18,19
 82 246 82 246 82 204 c 0,20,21
 82 164 82 164 40 164 c 0,22,23
 0 164 0 164 0 204 c 0,24,25
 0 246 0 246 0 270 c 0,26,27
 0 292 0 292 0 368 c 1,0,1
204 368 m 1,28,29
 226 368 226 368 286 368 c 1,30,31
 286 328 286 328 286 204 c 0,32,33
 286 164 286 164 246 164 c 0,34,35
 204 164 204 164 204 204 c 0,36,37
 204 260 204 260 204 368 c 1,28,29
286 368 m 0,38,39
 450 368 450 368 532 286 c 256,40,41
 614 204 614 204 614 40 c 0,42,43
 614 -122 614 -122 532 -204 c 256,44,45
 450 -286 450 -286 286 -286 c 0,46,47
 246 -286 246 -286 246 -246 c 0,48,49
 246 -204 246 -204 286 -204 c 0,50,51
 410 -204 410 -204 472 -144 c 0,52,53
 532 -82 532 -82 532 40 c 0,54,55
 532 164 532 164 472 226 c 0,56,57
 410 286 410 286 286 286 c 0,58,59
 246 286 246 286 246 328 c 0,60,61
 246 368 246 368 286 368 c 0,38,39
EndSplineSet
Validated: 5
Substitution2: "'fina' Terminal Forms in Mongolian lookup 2 subtable" ngs.fina
Substitution2: "'medi' Medial Forms in Mongolian lookup 1 subtable" ngs.medi
Substitution2: "Required Feature in Latin lookup 0 subtable" ngs.init
EndChar

StartChar: ng.isol
Encoding: 6185 6185 124
Width: 614
GlyphClass: 2
Flags: W
LayerCount: 2
Fore
SplineSet
0 368 m 1,0,1
 0 368 0 368 20 368 c 256,2,3
 40 368 40 368 0 368 c 1,4,5
 40 368 40 368 102 368 c 256,6,7
 164 368 164 368 204 368 c 0,8,9
 246 368 246 368 246 328 c 0,10,11
 246 286 246 286 204 286 c 0,12,13
 164 286 164 286 144 286 c 0,14,15
 122 286 122 286 82 286 c 1,16,17
 82 286 82 286 82 266 c 256,18,19
 82 246 82 246 82 204 c 0,20,21
 82 164 82 164 40 164 c 0,22,23
 0 164 0 164 0 204 c 0,24,25
 0 246 0 246 0 270 c 0,26,27
 0 292 0 292 0 368 c 1,0,1
204 368 m 1,28,29
 226 368 226 368 286 368 c 1,30,31
 286 276 286 276 286 0 c 0,32,33
 286 -40 286 -40 246 -40 c 0,34,35
 204 -40 204 -40 204 0 c 0,36,37
 204 122 204 122 204 368 c 1,28,29
286 368 m 0,38,39
 450 368 450 368 532 286 c 256,40,41
 614 204 614 204 614 40 c 0,42,43
 614 -122 614 -122 532 -204 c 256,44,45
 450 -286 450 -286 286 -286 c 0,46,47
 246 -286 246 -286 246 -246 c 0,48,49
 246 -204 246 -204 286 -204 c 0,50,51
 410 -204 410 -204 472 -144 c 0,52,53
 532 -82 532 -82 532 40 c 0,54,55
 532 164 532 164 472 226 c 0,56,57
 410 286 410 286 286 286 c 0,58,59
 246 286 246 286 246 328 c 0,60,61
 246 368 246 368 286 368 c 0,38,39
EndSplineSet
Validated: 5
Substitution2: "'fina' Terminal Forms in Mongolian lookup 2 subtable" ng.fina
Substitution2: "'medi' Medial Forms in Mongolian lookup 1 subtable" ng.medi
Substitution2: "Required Feature in Latin lookup 0 subtable" ng.init
EndChar

StartChar: ng.init
Encoding: 65662 -1 125
Width: 860
GlyphClass: 2
Flags: W
LayerCount: 2
Fore
SplineSet
0 368 m 1,0,1
 0 368 0 368 20 368 c 256,2,3
 40 368 40 368 0 368 c 1,4,5
 40 368 40 368 102 368 c 256,6,7
 164 368 164 368 204 368 c 0,8,9
 246 368 246 368 246 328 c 0,10,11
 246 286 246 286 204 286 c 0,12,13
 164 286 164 286 144 286 c 0,14,15
 122 286 122 286 82 286 c 1,16,17
 82 286 82 286 82 266 c 256,18,19
 82 246 82 246 82 204 c 0,20,21
 82 164 82 164 40 164 c 0,22,23
 0 164 0 164 0 204 c 0,24,25
 0 246 0 246 0 270 c 0,26,27
 0 292 0 292 0 368 c 1,0,1
204 368 m 0,28,29
 204 532 204 532 286 614 c 256,30,31
 368 696 368 696 532 696 c 256,32,33
 696 696 696 696 778 614 c 256,34,35
 860 532 860 532 860 368 c 0,36,37
 860 328 860 328 860 328 c 257,38,39
 860 328 860 328 860 328 c 1,40,41
 860 286 860 286 820 286 c 0,42,43
 778 286 778 286 778 328 c 1,44,45
 778 328 778 328 778 328 c 257,46,47
 778 328 778 328 778 368 c 0,48,49
 778 492 778 492 716 552 c 0,50,51
 656 614 656 614 532 614 c 0,52,53
 410 614 410 614 348 552 c 0,54,55
 286 492 286 492 286 368 c 0,56,57
 286 328 286 328 286 204 c 0,58,59
 286 82 286 82 286 0 c 0,60,61
 286 -40 286 -40 246 -40 c 0,62,63
 204 -40 204 -40 204 0 c 256,64,65
 204 40 204 40 204 184 c 256,66,67
 204 328 204 328 204 368 c 0,28,29
EndSplineSet
Validated: 5
Substitution2: "Single Substitution lookup 24 subtable" glyph319
EndChar

StartChar: jh.isol
Encoding: 6263 6263 126
Width: 206
GlyphClass: 2
Flags: W
LayerCount: 2
Fore
SplineSet
0 368 m 1,0,1
 40 368 40 368 102 368 c 256,2,3
 164 368 164 368 204 368 c 1,4,5
 204 328 204 328 204 328 c 257,6,7
 204 328 204 328 204 286 c 1,8,9
 164 286 164 286 134 286 c 0,10,11
 102 286 102 286 82 286 c 1,12,13
 82 246 82 246 82 132 c 256,14,15
 82 18 82 18 82 0 c 0,16,17
 82 -40 82 -40 40 -40 c 0,18,19
 0 -40 0 -40 0 0 c 0,20,21
 0 88 0 88 0 166 c 0,22,23
 0 246 0 246 0 286 c 0,24,25
 0 328 0 328 0 328 c 257,26,27
 0 328 0 328 0 368 c 1,0,1
168 528 m 0,28,29
 152 510 152 510 128 500 c 0,30,31
 106 492 106 492 82 492 c 256,32,33
 58 492 58 492 34 500 c 0,34,35
 12 510 12 510 -6 528 c 0,36,37
 -22 544 -22 544 -32 568 c 0,38,39
 -42 590 -42 590 -42 614 c 256,40,41
 -42 638 -42 638 -32 662 c 0,42,43
 -22 684 -22 684 -6 702 c 0,44,45
 12 718 12 718 34 728 c 0,46,47
 58 738 58 738 82 738 c 256,48,49
 106 738 106 738 128 728 c 0,50,51
 152 718 152 718 168 702 c 0,52,53
 186 684 186 684 196 662 c 0,54,55
 206 638 206 638 206 614 c 256,56,57
 206 590 206 590 196 568 c 0,58,59
 186 544 186 544 168 528 c 0,28,29
122 614 m 256,60,61
 122 622 122 622 120 630 c 0,62,63
 116 638 116 638 110 644 c 0,64,65
 106 648 106 648 98 652 c 256,66,67
 90 656 90 656 82 656 c 256,68,69
 74 656 74 656 66 652 c 256,70,71
 58 648 58 648 52 644 c 0,72,73
 48 638 48 638 44 630 c 256,74,75
 40 622 40 622 40 614 c 256,76,77
 40 606 40 606 44 598 c 256,78,79
 48 590 48 590 52 586 c 0,80,81
 58 580 58 580 66 576 c 0,82,83
 74 574 74 574 82 574 c 256,84,85
 90 574 90 574 98 576 c 0,86,87
 106 580 106 580 110 586 c 0,88,89
 116 590 116 590 120 598 c 0,90,91
 122 606 122 606 122 614 c 256,60,61
EndSplineSet
Validated: 1
Substitution2: "'fina' Terminal Forms in Mongolian lookup 2 subtable" jh.fina
Substitution2: "'medi' Medial Forms in Mongolian lookup 1 subtable" jh.medi
Substitution2: "Required Feature in Latin lookup 0 subtable" jh.init
EndChar

StartChar: jh.medi
Encoding: 65663 -1 127
Width: 206
GlyphClass: 2
Flags: W
LayerCount: 2
Fore
SplineSet
0 368 m 1,0,1
 40 368 40 368 102 368 c 256,2,3
 164 368 164 368 204 368 c 1,4,5
 204 328 204 328 204 328 c 257,6,7
 204 328 204 328 204 286 c 1,8,9
 164 286 164 286 134 286 c 0,10,11
 102 286 102 286 82 286 c 1,12,13
 82 246 82 246 82 132 c 256,14,15
 82 18 82 18 82 0 c 0,16,17
 82 -40 82 -40 40 -40 c 0,18,19
 0 -40 0 -40 0 0 c 0,20,21
 0 88 0 88 0 166 c 0,22,23
 0 246 0 246 0 286 c 0,24,25
 0 328 0 328 0 328 c 257,26,27
 0 328 0 328 0 368 c 1,0,1
168 528 m 0,28,29
 152 510 152 510 128 500 c 0,30,31
 106 492 106 492 82 492 c 256,32,33
 58 492 58 492 34 500 c 0,34,35
 12 510 12 510 -6 528 c 0,36,37
 -22 544 -22 544 -32 568 c 0,38,39
 -42 590 -42 590 -42 614 c 256,40,41
 -42 638 -42 638 -32 662 c 0,42,43
 -22 684 -22 684 -6 702 c 0,44,45
 12 718 12 718 34 728 c 0,46,47
 58 738 58 738 82 738 c 256,48,49
 106 738 106 738 128 728 c 0,50,51
 152 718 152 718 168 702 c 0,52,53
 186 684 186 684 196 662 c 0,54,55
 206 638 206 638 206 614 c 256,56,57
 206 590 206 590 196 568 c 0,58,59
 186 544 186 544 168 528 c 0,28,29
122 614 m 256,60,61
 122 622 122 622 120 630 c 0,62,63
 116 638 116 638 110 644 c 0,64,65
 106 648 106 648 98 652 c 256,66,67
 90 656 90 656 82 656 c 256,68,69
 74 656 74 656 66 652 c 256,70,71
 58 648 58 648 52 644 c 0,72,73
 48 638 48 638 44 630 c 256,74,75
 40 622 40 622 40 614 c 256,76,77
 40 606 40 606 44 598 c 256,78,79
 48 590 48 590 52 586 c 0,80,81
 58 580 58 580 66 576 c 0,82,83
 74 574 74 574 82 574 c 256,84,85
 90 574 90 574 98 576 c 0,86,87
 106 580 106 580 110 586 c 0,88,89
 116 590 116 590 120 598 c 0,90,91
 122 606 122 606 122 614 c 256,60,61
EndSplineSet
Validated: 1
Substitution2: "Single Substitution lookup 26 subtable" glyph323
EndChar

StartChar: ch.isol
Encoding: 6257 6257 128
Width: 492
GlyphClass: 2
Flags: W
LayerCount: 2
Fore
SplineSet
492 368 m 1,0,1
 532 328 532 328 532 328 c 257,2,3
 532 328 532 328 492 286 c 1,4,5
 338 286 338 286 190 286 c 0,6,7
 40 286 40 286 0 286 c 256,8,9
 -40 286 -40 286 -40 328 c 0,10,11
 -40 368 -40 368 0 368 c 256,12,13
 40 368 40 368 204 368 c 256,14,15
 368 368 368 368 492 368 c 1,0,1
204 40 m 0,16,17
 246 40 246 40 266 62 c 0,18,19
 286 82 286 82 286 122 c 0,20,21
 286 204 286 204 286 252 c 256,22,23
 286 300 286 300 286 328 c 1,24,25
 314 328 314 328 368 328 c 1,26,27
 368 276 368 276 368 122 c 0,28,29
 368 40 368 40 328 0 c 0,30,31
 286 -40 286 -40 204 -40 c 0,32,33
 136 -40 136 -40 0 -40 c 0,34,35
 -40 -40 -40 -40 -40 0 c 256,36,37
 -40 40 -40 40 0 40 c 0,38,39
 62 40 62 40 112 40 c 0,40,41
 164 40 164 40 204 40 c 0,16,17
414 528 m 0,42,43
 398 510 398 510 374 500 c 0,44,45
 352 492 352 492 328 492 c 256,46,47
 304 492 304 492 280 500 c 0,48,49
 258 510 258 510 240 528 c 0,50,51
 224 544 224 544 214 568 c 0,52,53
 204 590 204 590 204 614 c 256,54,55
 204 638 204 638 214 662 c 0,56,57
 224 684 224 684 240 702 c 0,58,59
 258 718 258 718 280 728 c 0,60,61
 304 738 304 738 328 738 c 256,62,63
 352 738 352 738 374 728 c 0,64,65
 398 718 398 718 414 702 c 0,66,67
 432 684 432 684 442 662 c 0,68,69
 450 638 450 638 450 614 c 256,70,71
 450 590 450 590 442 568 c 0,72,73
 432 544 432 544 414 528 c 0,42,43
368 614 m 256,74,75
 368 622 368 622 366 630 c 0,76,77
 362 638 362 638 356 644 c 0,78,79
 352 648 352 648 344 652 c 256,80,81
 336 656 336 656 328 656 c 256,82,83
 320 656 320 656 312 652 c 256,84,85
 304 648 304 648 298 644 c 0,86,87
 294 638 294 638 290 630 c 256,88,89
 286 622 286 622 286 614 c 256,90,91
 286 606 286 606 290 598 c 256,92,93
 294 590 294 590 298 586 c 0,94,95
 304 580 304 580 312 576 c 0,96,97
 320 574 320 574 328 574 c 256,98,99
 336 574 336 574 344 576 c 0,100,101
 352 580 352 580 356 586 c 0,102,103
 362 590 362 590 366 598 c 0,104,105
 368 606 368 606 368 614 c 256,74,75
EndSplineSet
Validated: 5
Substitution2: "'fina' Terminal Forms in Mongolian lookup 2 subtable" ch.fina
Substitution2: "'medi' Medial Forms in Mongolian lookup 1 subtable" ch.medi
Substitution2: "Required Feature in Latin lookup 0 subtable" ch.init
EndChar

StartChar: ch.medi
Encoding: 65665 -1 129
Width: 492
GlyphClass: 2
Flags: W
LayerCount: 2
Fore
SplineSet
492 368 m 1,0,1
 532 328 532 328 532 328 c 257,2,3
 532 328 532 328 492 286 c 1,4,5
 338 286 338 286 190 286 c 0,6,7
 40 286 40 286 0 286 c 256,8,9
 -40 286 -40 286 -40 328 c 0,10,11
 -40 368 -40 368 0 368 c 256,12,13
 40 368 40 368 204 368 c 256,14,15
 368 368 368 368 492 368 c 1,0,1
204 40 m 0,16,17
 246 40 246 40 266 62 c 0,18,19
 286 82 286 82 286 122 c 0,20,21
 286 204 286 204 286 252 c 256,22,23
 286 300 286 300 286 328 c 1,24,25
 314 328 314 328 368 328 c 1,26,27
 368 276 368 276 368 122 c 0,28,29
 368 40 368 40 328 0 c 0,30,31
 286 -40 286 -40 204 -40 c 0,32,33
 136 -40 136 -40 0 -40 c 0,34,35
 -40 -40 -40 -40 -40 0 c 256,36,37
 -40 40 -40 40 0 40 c 0,38,39
 62 40 62 40 112 40 c 0,40,41
 164 40 164 40 204 40 c 0,16,17
414 528 m 0,42,43
 398 510 398 510 374 500 c 0,44,45
 352 492 352 492 328 492 c 256,46,47
 304 492 304 492 280 500 c 0,48,49
 258 510 258 510 240 528 c 0,50,51
 224 544 224 544 214 568 c 0,52,53
 204 590 204 590 204 614 c 256,54,55
 204 638 204 638 214 662 c 0,56,57
 224 684 224 684 240 702 c 0,58,59
 258 718 258 718 280 728 c 0,60,61
 304 738 304 738 328 738 c 256,62,63
 352 738 352 738 374 728 c 0,64,65
 398 718 398 718 414 702 c 0,66,67
 432 684 432 684 442 662 c 0,68,69
 450 638 450 638 450 614 c 256,70,71
 450 590 450 590 442 568 c 0,72,73
 432 544 432 544 414 528 c 0,42,43
368 614 m 256,74,75
 368 622 368 622 366 630 c 0,76,77
 362 638 362 638 356 644 c 0,78,79
 352 648 352 648 344 652 c 256,80,81
 336 656 336 656 328 656 c 256,82,83
 320 656 320 656 312 652 c 256,84,85
 304 648 304 648 298 644 c 0,86,87
 294 638 294 638 290 630 c 256,88,89
 286 622 286 622 286 614 c 256,90,91
 286 606 286 606 290 598 c 256,92,93
 294 590 294 590 298 586 c 0,94,95
 304 580 304 580 312 576 c 0,96,97
 320 574 320 574 328 574 c 256,98,99
 336 574 336 574 344 576 c 0,100,101
 352 580 352 580 356 586 c 0,102,103
 362 590 362 590 366 598 c 0,104,105
 368 606 368 606 368 614 c 256,74,75
EndSplineSet
Validated: 5
EndChar

StartChar: glyph277
Encoding: 65673 -1 130
Width: 206
GlyphClass: 2
Flags: W
LayerCount: 2
Fore
SplineSet
0 368 m 1,0,1
 40 368 40 368 102 368 c 256,2,3
 164 368 164 368 204 368 c 1,4,5
 204 356 204 356 204 342 c 256,6,7
 204 328 204 328 204 286 c 1,8,9
 164 286 164 286 136 286 c 256,10,11
 108 286 108 286 82 286 c 1,12,13
 82 286 82 286 82 266 c 256,14,15
 82 246 82 246 82 204 c 0,16,17
 82 164 82 164 40 164 c 0,18,19
 0 164 0 164 0 204 c 0,20,21
 0 246 0 246 0 246 c 257,22,23
 0 246 0 246 0 286 c 0,24,25
 0 328 0 328 0 328 c 257,26,27
 0 328 0 328 0 368 c 1,0,1
EndSplineSet
Validated: 1
EndChar

StartChar: glyph278
Encoding: 65674 -1 131
Width: 204
GlyphClass: 2
Flags: W
LayerCount: 2
Fore
SplineSet
0 368 m 1,0,1
 0 368 0 368 0 368 c 257,2,3
 0 368 0 368 0 368 c 1,4,5
 40 368 40 368 102 368 c 256,6,7
 164 368 164 368 204 368 c 1,8,9
 204 348 204 348 204 318 c 0,10,11
 204 286 204 286 204 286 c 1,12,13
 164 286 164 286 132 286 c 256,14,15
 100 286 100 286 82 286 c 1,16,17
 82 286 82 286 82 256 c 0,18,19
 82 224 82 224 82 204 c 0,20,21
 82 164 82 164 40 164 c 0,22,23
 0 164 0 164 0 204 c 0,24,25
 0 246 0 246 0 246 c 257,26,27
 0 246 0 246 0 286 c 0,28,29
 0 328 0 328 0 328 c 257,30,31
 0 328 0 328 0 368 c 1,0,1
-202 836 m 0,32,33
 -210 828 -210 828 -222 824 c 0,34,35
 -234 818 -234 818 -246 818 c 256,36,37
 -258 818 -258 818 -270 824 c 0,38,39
 -280 828 -280 828 -290 836 c 0,40,41
 -298 846 -298 846 -302 858 c 0,42,43
 -308 868 -308 868 -308 880 c 256,44,45
 -308 892 -308 892 -302 904 c 0,46,47
 -298 916 -298 916 -290 924 c 0,48,49
 -280 932 -280 932 -270 938 c 0,50,51
 -258 942 -258 942 -246 942 c 256,52,53
 -234 942 -234 942 -222 938 c 0,54,55
 -210 932 -210 932 -202 924 c 256,56,57
 -194 916 -194 916 -190 904 c 0,58,59
 -184 892 -184 892 -184 880 c 256,60,61
 -184 868 -184 868 -190 858 c 0,62,63
 -194 846 -194 846 -202 836 c 0,32,33
EndSplineSet
Validated: 5
EndChar

StartChar: glyph279
Encoding: 65675 -1 132
Width: 206
GlyphClass: 2
Flags: W
LayerCount: 2
Fore
SplineSet
0 368 m 1,0,1
 40 368 40 368 102 368 c 256,2,3
 164 368 164 368 204 368 c 1,4,5
 204 328 204 328 204 328 c 257,6,7
 204 328 204 328 204 286 c 1,8,9
 164 286 164 286 134 286 c 0,10,11
 102 286 102 286 82 286 c 1,12,13
 82 246 82 246 82 132 c 256,14,15
 82 18 82 18 82 0 c 0,16,17
 82 -40 82 -40 40 -40 c 0,18,19
 0 -40 0 -40 0 0 c 0,20,21
 0 88 0 88 0 166 c 0,22,23
 0 246 0 246 0 286 c 0,24,25
 0 328 0 328 0 328 c 257,26,27
 0 328 0 328 0 368 c 1,0,1
EndSplineSet
Validated: 1
EndChar

StartChar: glyph280
Encoding: 65676 -1 133
Width: 450
GlyphClass: 2
Flags: W
LayerCount: 2
Fore
SplineSet
0 368 m 1,0,1
 82 368 82 368 204 368 c 0,2,3
 328 368 328 368 450 368 c 1,4,5
 450 350 450 350 450 324 c 256,6,7
 450 298 450 298 450 286 c 1,8,9
 424 286 424 286 376 286 c 256,10,11
 328 286 328 286 328 286 c 257,12,13
 328 286 328 286 328 266 c 256,14,15
 328 246 328 246 328 246 c 2,16,17
 328 164 328 164 286 122 c 0,18,19
 246 82 246 82 164 82 c 256,20,21
 82 82 82 82 40 122 c 0,22,23
 0 164 0 164 0 246 c 1,24,25
 2 246 2 246 0 292 c 0,26,27
 0 336 0 336 0 368 c 1,0,1
82 246 m 2,28,29
 82 204 82 204 102 184 c 256,30,31
 122 164 122 164 164 164 c 0,32,33
 204 164 204 164 226 184 c 0,34,35
 246 204 246 204 246 246 c 2,36,37
 246 246 246 246 246 266 c 256,38,39
 246 286 246 286 246 286 c 1,40,41
 192 286 192 286 82 286 c 1,42,43
 82 286 82 286 82 266 c 256,44,45
 82 246 82 246 82 246 c 2,28,29
EndSplineSet
Validated: 1
EndChar

StartChar: glyph281
Encoding: 65677 -1 134
Width: 328
GlyphClass: 2
Flags: W
LayerCount: 2
Fore
SplineSet
0 368 m 1,0,1
 82 368 82 368 144 368 c 0,2,3
 204 368 204 368 328 368 c 1,4,5
 328 346 328 346 328 338 c 0,6,7
 328 328 328 328 328 286 c 2,8,9
 328 286 328 286 328 266 c 256,10,11
 328 246 328 246 328 246 c 2,12,13
 328 164 328 164 286 122 c 0,14,15
 246 82 246 82 164 82 c 256,16,17
 82 82 82 82 40 122 c 0,18,19
 0 164 0 164 0 246 c 1,20,21
 2 246 2 246 0 292 c 0,22,23
 0 336 0 336 0 368 c 1,0,1
82 246 m 2,24,25
 82 204 82 204 102 184 c 256,26,27
 122 164 122 164 164 164 c 0,28,29
 204 164 204 164 226 184 c 0,30,31
 246 204 246 204 246 246 c 2,32,33
 246 246 246 246 246 266 c 256,34,35
 246 286 246 286 246 286 c 1,36,37
 192 286 192 286 82 286 c 1,38,39
 82 286 82 286 82 266 c 256,40,41
 82 246 82 246 82 246 c 2,24,25
EndSplineSet
Validated: 1
EndChar

StartChar: glyph282
Encoding: 65678 -1 135
Width: 448
GlyphClass: 2
Flags: W
LayerCount: 2
Fore
SplineSet
0 368 m 1,0,1
 82 368 82 368 204 368 c 0,2,3
 328 368 328 368 450 368 c 1,4,5
 450 332 450 332 450 310 c 0,6,7
 450 286 450 286 450 286 c 1,8,9
 426 286 426 286 398 286 c 0,10,11
 368 286 368 286 328 286 c 1,12,13
 328 286 328 286 328 286 c 257,14,15
 328 286 328 286 328 286 c 257,16,17
 328 286 328 286 328 266 c 256,18,19
 328 246 328 246 328 246 c 2,20,21
 328 164 328 164 286 122 c 0,22,23
 246 82 246 82 164 82 c 256,24,25
 82 82 82 82 40 122 c 0,26,27
 0 164 0 164 0 246 c 1,28,29
 2 246 2 246 0 292 c 0,30,31
 0 336 0 336 0 368 c 1,0,1
82 246 m 2,32,33
 82 204 82 204 102 184 c 256,34,35
 122 164 122 164 164 164 c 0,36,37
 204 164 204 164 226 184 c 0,38,39
 246 204 246 204 246 246 c 2,40,41
 246 246 246 246 246 266 c 256,42,43
 246 286 246 286 246 286 c 1,44,45
 192 286 192 286 82 286 c 1,46,47
 82 286 82 286 82 266 c 256,48,49
 82 246 82 246 82 246 c 2,32,33
84 836 m 0,50,51
 76 828 76 828 64 824 c 0,52,53
 52 818 52 818 40 818 c 0,54,55
 30 818 30 818 18 824 c 0,56,57
 6 828 6 828 -2 836 c 0,58,59
 -10 846 -10 846 -16 858 c 0,60,61
 -20 868 -20 868 -20 880 c 256,62,63
 -20 892 -20 892 -16 904 c 0,64,65
 -10 916 -10 916 -2 924 c 256,66,67
 6 932 6 932 18 938 c 0,68,69
 30 942 30 942 40 942 c 0,70,71
 52 942 52 942 64 938 c 0,72,73
 76 932 76 932 84 924 c 256,74,75
 92 916 92 916 98 904 c 0,76,77
 102 892 102 892 102 880 c 256,78,79
 102 868 102 868 98 858 c 0,80,81
 92 846 92 846 84 836 c 0,50,51
EndSplineSet
Validated: 5
EndChar

StartChar: glyph283
Encoding: 65679 -1 136
Width: 328
GlyphClass: 2
Flags: W
LayerCount: 2
Fore
SplineSet
0 368 m 1,0,1
 82 368 82 368 144 368 c 0,2,3
 204 368 204 368 328 368 c 1,4,5
 328 328 328 328 328 328 c 257,6,7
 328 328 328 328 328 286 c 1,8,9
 328 286 328 286 328 286 c 257,10,11
 328 286 328 286 328 286 c 257,12,13
 328 286 328 286 328 266 c 256,14,15
 328 246 328 246 328 246 c 2,16,17
 328 164 328 164 286 122 c 0,18,19
 246 82 246 82 164 82 c 256,20,21
 82 82 82 82 40 122 c 0,22,23
 0 164 0 164 0 246 c 1,24,25
 2 246 2 246 0 292 c 0,26,27
 0 336 0 336 0 368 c 1,0,1
82 246 m 2,28,29
 82 204 82 204 102 184 c 256,30,31
 122 164 122 164 164 164 c 0,32,33
 204 164 204 164 226 184 c 0,34,35
 246 204 246 204 246 246 c 2,36,37
 246 246 246 246 246 266 c 256,38,39
 246 286 246 286 246 286 c 1,40,41
 192 286 192 286 82 286 c 1,42,43
 82 286 82 286 82 266 c 256,44,45
 82 246 82 246 82 246 c 2,28,29
84 836 m 0,46,47
 76 828 76 828 64 824 c 0,48,49
 52 818 52 818 40 818 c 0,50,51
 30 818 30 818 18 824 c 0,52,53
 6 828 6 828 -2 836 c 0,54,55
 -10 846 -10 846 -16 858 c 0,56,57
 -20 868 -20 868 -20 880 c 256,58,59
 -20 892 -20 892 -16 904 c 0,60,61
 -10 916 -10 916 -2 924 c 256,62,63
 6 932 6 932 18 938 c 0,64,65
 30 942 30 942 40 942 c 0,66,67
 52 942 52 942 64 938 c 0,68,69
 76 932 76 932 84 924 c 256,70,71
 92 916 92 916 98 904 c 0,72,73
 102 892 102 892 102 880 c 256,74,75
 102 868 102 868 98 858 c 0,76,77
 92 846 92 846 84 836 c 0,46,47
EndSplineSet
Validated: 1
EndChar

StartChar: glyph284
Encoding: 65680 -1 137
Width: 452
GlyphClass: 2
Flags: W
LayerCount: 2
Fore
SplineSet
0 368 m 1,0,1
 82 368 82 368 204 368 c 0,2,3
 328 368 328 368 450 368 c 1,4,5
 450 368 450 368 450 328 c 0,6,7
 450 286 450 286 450 286 c 1,8,9
 410 286 410 286 368 286 c 0,10,11
 328 286 328 286 328 286 c 1,12,13
 328 164 328 164 286 122 c 0,14,15
 246 82 246 82 164 82 c 256,16,17
 82 82 82 82 40 122 c 0,18,19
 0 164 0 164 0 246 c 2,20,21
 0 246 0 246 0 266 c 256,22,23
 0 286 0 286 0 286 c 257,24,25
 0 286 0 286 0 328 c 0,26,27
 0 368 0 368 0 368 c 1,0,1
82 246 m 2,28,29
 82 204 82 204 102 184 c 256,30,31
 122 164 122 164 164 164 c 0,32,33
 204 164 204 164 226 184 c 0,34,35
 246 204 246 204 246 246 c 2,36,37
 246 246 246 246 246 266 c 256,38,39
 246 286 246 286 246 286 c 1,40,41
 204 286 204 286 164 286 c 0,42,43
 122 286 122 286 82 286 c 1,44,45
 82 286 82 286 82 266 c 256,46,47
 82 246 82 246 82 246 c 2,28,29
246 328 m 1,48,49
 266 328 266 328 328 328 c 1,50,51
 328 246 328 246 328 144 c 0,52,53
 328 40 328 40 328 0 c 256,54,55
 328 -40 328 -40 286 -40 c 0,56,57
 246 -40 246 -40 246 0 c 256,58,59
 246 40 246 40 246 144 c 0,60,61
 246 246 246 246 246 328 c 1,48,49
EndSplineSet
Validated: 5
EndChar

StartChar: glyph285
Encoding: 65681 -1 138
Width: 656
GlyphClass: 2
Flags: W
LayerCount: 2
Fore
SplineSet
0 368 m 1,0,1
 82 368 82 368 144 368 c 0,2,3
 204 368 204 368 328 368 c 0,4,5
 492 368 492 368 574 286 c 256,6,7
 656 204 656 204 656 40 c 0,8,9
 656 0 656 0 614 0 c 0,10,11
 574 0 574 0 574 40 c 0,12,13
 574 164 574 164 512 226 c 0,14,15
 450 286 450 286 328 286 c 1,16,17
 328 266 328 266 328 256 c 256,18,19
 328 246 328 246 328 246 c 2,20,21
 328 164 328 164 286 122 c 0,22,23
 246 82 246 82 164 82 c 256,24,25
 82 82 82 82 40 122 c 0,26,27
 0 164 0 164 0 246 c 2,28,29
 0 246 0 246 0 266 c 256,30,31
 0 286 0 286 0 286 c 2,32,33
 0 328 0 328 0 328 c 257,34,35
 0 328 0 328 0 368 c 1,0,1
82 246 m 2,36,37
 82 204 82 204 102 184 c 256,38,39
 122 164 122 164 164 164 c 0,40,41
 204 164 204 164 226 184 c 0,42,43
 246 204 246 204 246 246 c 2,44,45
 246 246 246 246 246 266 c 256,46,47
 246 286 246 286 246 286 c 1,48,49
 204 286 204 286 164 286 c 0,50,51
 122 286 122 286 82 286 c 1,52,53
 82 286 82 286 82 266 c 256,54,55
 82 246 82 246 82 246 c 2,36,37
EndSplineSet
Validated: 1
EndChar

StartChar: glyph286
Encoding: 65682 -1 139
Width: 246
GlyphClass: 2
Flags: W
LayerCount: 2
Fore
SplineSet
0 368 m 1,0,1
 0 532 0 532 82 614 c 256,2,3
 164 696 164 696 286 696 c 0,4,5
 410 696 410 696 492 614 c 256,6,7
 574 532 574 532 574 368 c 2,8,9
 574 368 574 368 574 348 c 256,10,11
 574 328 574 328 574 328 c 2,12,13
 574 286 574 286 532 286 c 0,14,15
 492 286 492 286 492 328 c 2,16,17
 492 328 492 328 492 338 c 256,18,19
 492 348 492 348 492 368 c 0,20,21
 492 492 492 492 430 552 c 0,22,23
 368 614 368 614 286 614 c 256,24,25
 204 614 204 614 144 552 c 0,26,27
 82 492 82 492 82 368 c 1,28,29
 164 368 164 368 204 368 c 0,30,31
 246 368 246 368 328 368 c 1,32,33
 328 268 328 268 328 258 c 0,34,35
 328 246 328 246 328 246 c 2,36,37
 328 164 328 164 286 122 c 0,38,39
 246 82 246 82 164 82 c 256,40,41
 82 82 82 82 40 122 c 0,42,43
 0 164 0 164 0 246 c 1,44,45
 2 246 2 246 2 308 c 0,46,47
 2 368 2 368 0 368 c 1,0,1
82 246 m 2,48,49
 82 204 82 204 102 184 c 256,50,51
 122 164 122 164 164 164 c 0,52,53
 204 164 204 164 226 184 c 0,54,55
 246 204 246 204 246 246 c 2,56,57
 246 246 246 246 246 266 c 256,58,59
 246 286 246 286 246 286 c 1,60,61
 192 286 192 286 82 286 c 1,62,63
 82 286 82 286 82 266 c 256,64,65
 82 246 82 246 82 246 c 2,48,49
EndSplineSet
Validated: 1
EndChar

StartChar: glyph287
Encoding: 65683 -1 140
Width: 246
GlyphClass: 2
Flags: W
LayerCount: 2
Fore
SplineSet
0 368 m 1,0,1
 0 532 0 532 82 614 c 256,2,3
 164 696 164 696 286 696 c 0,4,5
 410 696 410 696 492 614 c 256,6,7
 574 532 574 532 574 368 c 2,8,9
 574 368 574 368 574 348 c 256,10,11
 574 328 574 328 574 328 c 2,12,13
 574 286 574 286 532 286 c 0,14,15
 492 286 492 286 492 328 c 2,16,17
 492 328 492 328 492 338 c 256,18,19
 492 348 492 348 492 368 c 0,20,21
 492 492 492 492 430 552 c 0,22,23
 368 614 368 614 286 614 c 256,24,25
 204 614 204 614 144 552 c 0,26,27
 82 492 82 492 82 368 c 1,28,29
 164 368 164 368 204 368 c 0,30,31
 246 368 246 368 328 368 c 1,32,33
 328 268 328 268 328 258 c 0,34,35
 328 246 328 246 328 246 c 2,36,37
 328 164 328 164 286 122 c 0,38,39
 246 82 246 82 164 82 c 256,40,41
 82 82 82 82 40 122 c 0,42,43
 0 164 0 164 0 246 c 1,44,45
 2 246 2 246 2 308 c 0,46,47
 2 368 2 368 0 368 c 1,0,1
82 246 m 2,48,49
 82 204 82 204 102 184 c 256,50,51
 122 164 122 164 164 164 c 0,52,53
 204 164 204 164 226 184 c 0,54,55
 246 204 246 204 246 246 c 2,56,57
 246 246 246 246 246 266 c 256,58,59
 246 286 246 286 246 286 c 1,60,61
 192 286 192 286 82 286 c 1,62,63
 82 286 82 286 82 266 c 256,64,65
 82 246 82 246 82 246 c 2,48,49
EndSplineSet
Validated: 1
EndChar

StartChar: glyph288
Encoding: 65684 -1 141
Width: 246
GlyphClass: 2
Flags: W
LayerCount: 2
Fore
SplineSet
0 368 m 1,0,1
 0 532 0 532 82 614 c 256,2,3
 164 696 164 696 286 696 c 0,4,5
 410 696 410 696 492 614 c 256,6,7
 574 532 574 532 574 368 c 2,8,9
 574 368 574 368 574 348 c 256,10,11
 574 328 574 328 574 328 c 2,12,13
 574 286 574 286 532 286 c 0,14,15
 492 286 492 286 492 328 c 2,16,17
 492 328 492 328 492 338 c 256,18,19
 492 348 492 348 492 368 c 0,20,21
 492 492 492 492 430 552 c 0,22,23
 368 614 368 614 286 614 c 256,24,25
 204 614 204 614 144 552 c 0,26,27
 82 492 82 492 82 368 c 1,28,29
 164 368 164 368 204 368 c 0,30,31
 246 368 246 368 328 368 c 1,32,33
 328 268 328 268 328 258 c 0,34,35
 328 246 328 246 328 246 c 2,36,37
 328 164 328 164 286 122 c 0,38,39
 246 82 246 82 164 82 c 256,40,41
 82 82 82 82 40 122 c 0,42,43
 0 164 0 164 0 246 c 1,44,45
 2 246 2 246 2 308 c 0,46,47
 2 368 2 368 0 368 c 1,0,1
82 246 m 2,48,49
 82 204 82 204 102 184 c 256,50,51
 122 164 122 164 164 164 c 0,52,53
 204 164 204 164 226 184 c 0,54,55
 246 204 246 204 246 246 c 2,56,57
 246 246 246 246 246 266 c 256,58,59
 246 286 246 286 246 286 c 1,60,61
 192 286 192 286 82 286 c 1,62,63
 82 286 82 286 82 266 c 256,64,65
 82 246 82 246 82 246 c 2,48,49
246 656 m 1,66,67
 266 656 266 656 328 656 c 1,68,69
 328 624 328 624 328 532 c 0,70,71
 328 492 328 492 286 492 c 0,72,73
 246 492 246 492 246 532 c 0,74,75
 246 574 246 574 246 656 c 1,66,67
EndSplineSet
Validated: 5
EndChar

StartChar: glyph289
Encoding: 65685 -1 142
Width: 246
GlyphClass: 2
Flags: W
LayerCount: 2
Fore
SplineSet
0 368 m 1,0,1
 0 532 0 532 82 614 c 256,2,3
 164 696 164 696 286 696 c 0,4,5
 410 696 410 696 492 614 c 256,6,7
 574 532 574 532 574 368 c 2,8,9
 574 368 574 368 574 348 c 256,10,11
 574 328 574 328 574 328 c 2,12,13
 574 286 574 286 532 286 c 0,14,15
 492 286 492 286 492 328 c 2,16,17
 492 328 492 328 492 338 c 256,18,19
 492 348 492 348 492 368 c 0,20,21
 492 492 492 492 430 552 c 0,22,23
 368 614 368 614 286 614 c 256,24,25
 204 614 204 614 144 552 c 0,26,27
 82 492 82 492 82 368 c 1,28,29
 164 368 164 368 204 368 c 0,30,31
 246 368 246 368 328 368 c 1,32,33
 328 268 328 268 328 258 c 0,34,35
 328 246 328 246 328 246 c 2,36,37
 328 164 328 164 286 122 c 0,38,39
 246 82 246 82 164 82 c 256,40,41
 82 82 82 82 40 122 c 0,42,43
 0 164 0 164 0 246 c 1,44,45
 2 246 2 246 2 308 c 0,46,47
 2 368 2 368 0 368 c 1,0,1
82 246 m 2,48,49
 82 204 82 204 102 184 c 256,50,51
 122 164 122 164 164 164 c 0,52,53
 204 164 204 164 226 184 c 0,54,55
 246 204 246 204 246 246 c 2,56,57
 246 246 246 246 246 266 c 256,58,59
 246 286 246 286 246 286 c 1,60,61
 192 286 192 286 82 286 c 1,62,63
 82 286 82 286 82 266 c 256,64,65
 82 246 82 246 82 246 c 2,48,49
246 656 m 1,66,67
 266 656 266 656 328 656 c 1,68,69
 328 624 328 624 328 532 c 0,70,71
 328 492 328 492 286 492 c 0,72,73
 246 492 246 492 246 532 c 0,74,75
 246 574 246 574 246 656 c 1,66,67
EndSplineSet
Validated: 5
EndChar

StartChar: glyph290
Encoding: 65686 -1 143
Width: 410
GlyphClass: 2
Flags: W
LayerCount: 2
Fore
SplineSet
0 368 m 1,0,1
 0 368 0 368 20 368 c 256,2,3
 40 368 40 368 0 368 c 1,4,5
 40 368 40 368 102 368 c 256,6,7
 164 368 164 368 204 368 c 2,8,9
 204 368 204 368 286 368 c 256,10,11
 368 368 368 368 410 368 c 1,12,13
 410 368 410 368 410 348 c 256,14,15
 410 328 410 328 410 286 c 1,16,17
 368 286 368 286 348 286 c 256,18,19
 328 286 328 286 286 286 c 1,20,21
 286 286 286 286 286 266 c 256,22,23
 286 246 286 246 286 204 c 0,24,25
 286 164 286 164 246 164 c 0,26,27
 204 164 204 164 204 204 c 0,28,29
 204 246 204 246 204 246 c 257,30,31
 204 246 204 246 204 286 c 1,32,33
 164 286 164 286 144 286 c 0,34,35
 122 286 122 286 82 286 c 1,36,37
 82 286 82 286 82 266 c 256,38,39
 82 246 82 246 82 204 c 0,40,41
 82 164 82 164 40 164 c 0,42,43
 0 164 0 164 0 204 c 0,44,45
 0 246 0 246 0 270 c 0,46,47
 0 292 0 292 0 368 c 1,0,1
EndSplineSet
Validated: 5
EndChar

StartChar: glyph291
Encoding: 65687 -1 144
Width: 410
GlyphClass: 2
Flags: W
LayerCount: 2
Fore
SplineSet
0 368 m 1,0,1
 0 368 0 368 20 368 c 256,2,3
 40 368 40 368 0 368 c 1,4,5
 40 368 40 368 102 368 c 256,6,7
 164 368 164 368 204 368 c 2,8,9
 204 368 204 368 286 368 c 256,10,11
 368 368 368 368 410 368 c 1,12,13
 410 368 410 368 410 348 c 256,14,15
 410 328 410 328 410 286 c 1,16,17
 380 286 380 286 352 286 c 0,18,19
 326 286 326 286 82 286 c 1,20,21
 82 286 82 286 82 266 c 256,22,23
 82 246 82 246 82 204 c 0,24,25
 82 164 82 164 40 164 c 0,26,27
 0 164 0 164 0 204 c 0,28,29
 0 246 0 246 0 270 c 0,30,31
 0 292 0 292 0 368 c 1,0,1
84 -24 m 256,32,33
 76 -32 76 -32 64 -36 c 0,34,35
 52 -42 52 -42 40 -42 c 0,36,37
 30 -42 30 -42 18 -36 c 0,38,39
 6 -32 6 -32 -2 -24 c 256,40,41
 -10 -16 -10 -16 -16 -4 c 0,42,43
 -20 8 -20 8 -20 20 c 256,44,45
 -20 32 -20 32 -16 44 c 0,46,47
 -10 56 -10 56 -2 64 c 256,48,49
 6 72 6 72 18 76 c 0,50,51
 30 82 30 82 40 82 c 0,52,53
 52 82 52 82 64 76 c 0,54,55
 76 72 76 72 84 64 c 256,56,57
 92 56 92 56 98 44 c 0,58,59
 102 32 102 32 102 20 c 256,60,61
 102 8 102 8 98 -4 c 0,62,63
 92 -16 92 -16 84 -24 c 256,32,33
290 -24 m 0,64,65
 280 -32 280 -32 270 -36 c 0,66,67
 258 -42 258 -42 246 -42 c 256,68,69
 234 -42 234 -42 222 -36 c 0,70,71
 210 -32 210 -32 202 -24 c 0,72,73
 194 -14 194 -14 190 -4 c 0,74,75
 184 8 184 8 184 20 c 256,76,77
 184 32 184 32 190 44 c 0,78,79
 194 56 194 56 202 64 c 256,80,81
 210 72 210 72 222 78 c 0,82,83
 234 82 234 82 246 82 c 256,84,85
 258 82 258 82 270 78 c 0,86,87
 280 72 280 72 290 64 c 0,88,89
 298 56 298 56 302 44 c 0,90,91
 308 32 308 32 308 20 c 256,92,93
 308 8 308 8 302 -4 c 0,94,95
 298 -14 298 -14 290 -24 c 0,64,65
EndSplineSet
Validated: 5
EndChar

StartChar: glyph292
Encoding: 65688 -1 145
Width: 1148
GlyphClass: 2
Flags: W
LayerCount: 2
Fore
SplineSet
0 368 m 1,0,1
 0 368 0 368 20 368 c 256,2,3
 40 368 40 368 0 368 c 1,4,5
 40 368 40 368 102 368 c 256,6,7
 164 368 164 368 204 368 c 2,8,9
 204 368 204 368 286 368 c 256,10,11
 368 368 368 368 410 368 c 1,12,13
 410 368 410 368 410 348 c 256,14,15
 410 328 410 328 410 286 c 1,16,17
 368 286 368 286 348 286 c 256,18,19
 328 286 328 286 286 286 c 1,20,21
 286 286 286 286 286 266 c 256,22,23
 286 246 286 246 286 204 c 0,24,25
 286 164 286 164 246 164 c 0,26,27
 204 164 204 164 204 204 c 0,28,29
 204 246 204 246 204 246 c 257,30,31
 204 246 204 246 204 286 c 1,32,33
 164 286 164 286 144 286 c 0,34,35
 122 286 122 286 82 286 c 1,36,37
 82 286 82 286 82 266 c 256,38,39
 82 246 82 246 82 204 c 0,40,41
 82 164 82 164 40 164 c 0,42,43
 0 164 0 164 0 204 c 0,44,45
 0 246 0 246 0 270 c 0,46,47
 0 292 0 292 0 368 c 1,0,1
84 -24 m 256,48,49
 76 -32 76 -32 64 -36 c 0,50,51
 52 -42 52 -42 40 -42 c 0,52,53
 30 -42 30 -42 18 -36 c 0,54,55
 6 -32 6 -32 -2 -24 c 256,56,57
 -10 -16 -10 -16 -16 -4 c 0,58,59
 -20 8 -20 8 -20 20 c 256,60,61
 -20 32 -20 32 -16 44 c 0,62,63
 -10 56 -10 56 -2 64 c 256,64,65
 6 72 6 72 18 76 c 0,66,67
 30 82 30 82 40 82 c 0,68,69
 52 82 52 82 64 76 c 0,70,71
 76 72 76 72 84 64 c 256,72,73
 92 56 92 56 98 44 c 0,74,75
 102 32 102 32 102 20 c 256,76,77
 102 8 102 8 98 -4 c 0,78,79
 92 -16 92 -16 84 -24 c 256,48,49
290 -24 m 0,80,81
 280 -32 280 -32 270 -36 c 0,82,83
 258 -42 258 -42 246 -42 c 256,84,85
 234 -42 234 -42 222 -36 c 0,86,87
 210 -32 210 -32 202 -24 c 0,88,89
 194 -14 194 -14 190 -4 c 0,90,91
 184 8 184 8 184 20 c 256,92,93
 184 32 184 32 190 44 c 0,94,95
 194 56 194 56 202 64 c 256,96,97
 210 72 210 72 222 78 c 0,98,99
 234 82 234 82 246 82 c 256,100,101
 258 82 258 82 270 78 c 0,102,103
 280 72 280 72 290 64 c 0,104,105
 298 56 298 56 302 44 c 0,106,107
 308 32 308 32 308 20 c 256,108,109
 308 8 308 8 302 -4 c 0,110,111
 298 -14 298 -14 290 -24 c 0,80,81
EndSplineSet
Validated: 5
EndChar

StartChar: glyph293
Encoding: 65689 -1 146
Width: 410
GlyphClass: 2
Flags: W
LayerCount: 2
Fore
SplineSet
0 368 m 1,0,1
 0 368 0 368 20 368 c 256,2,3
 40 368 40 368 0 368 c 1,4,5
 40 368 40 368 102 368 c 256,6,7
 164 368 164 368 204 368 c 2,8,9
 204 368 204 368 286 368 c 256,10,11
 368 368 368 368 410 368 c 1,12,13
 410 368 410 368 410 348 c 256,14,15
 410 328 410 328 410 286 c 1,16,17
 368 286 368 286 348 286 c 256,18,19
 328 286 328 286 286 286 c 1,20,21
 286 286 286 286 286 266 c 256,22,23
 286 246 286 246 286 204 c 0,24,25
 286 164 286 164 246 164 c 0,26,27
 204 164 204 164 204 204 c 0,28,29
 204 246 204 246 204 246 c 257,30,31
 204 246 204 246 204 286 c 1,32,33
 164 286 164 286 144 286 c 0,34,35
 122 286 122 286 82 286 c 1,36,37
 82 286 82 286 82 266 c 256,38,39
 82 246 82 246 82 204 c 0,40,41
 82 164 82 164 40 164 c 0,42,43
 0 164 0 164 0 204 c 0,44,45
 0 246 0 246 0 270 c 0,46,47
 0 292 0 292 0 368 c 1,0,1
290 592 m 0,48,49
 280 582 280 582 270 578 c 0,50,51
 258 574 258 574 246 574 c 256,52,53
 234 574 234 574 222 578 c 256,54,55
 210 582 210 582 202 592 c 0,56,57
 194 600 194 600 190 612 c 0,58,59
 184 622 184 622 184 634 c 256,60,61
 184 646 184 646 190 658 c 0,62,63
 194 670 194 670 202 678 c 256,64,65
 210 686 210 686 222 692 c 0,66,67
 234 696 234 696 246 696 c 256,68,69
 258 696 258 696 270 692 c 0,70,71
 280 686 280 686 290 678 c 0,72,73
 298 670 298 670 302 658 c 0,74,75
 308 646 308 646 308 634 c 256,76,77
 308 622 308 622 302 612 c 0,78,79
 298 600 298 600 290 592 c 0,48,49
EndSplineSet
Validated: 5
EndChar

